ThiruValluvar-Regular.ufo
<glyph name="exclam" format="2">
  <advance width="524"/>
  <unicode hex="0021"/>
  <outline>
    <contour>
      <point x="308" y="356" type="curve"/>
      <point x="361" y="1307" type="line"/>
      <point x="320" y="1332" type="line"/>
      <point x="278" y="1314"/>
      <point x="203" y="1278"/>
      <point x="155" y="1249" type="curve"/>
      <point x="207" y="340" type="line"/>
      <point x="233" y="321" type="line"/>
      <point x="262" y="330"/>
      <point x="286" y="340"/>
    </contour>
    <contour>
      <point x="376" y="112" type="curve" smooth="yes"/>
      <point x="376" y="184"/>
      <point x="335" y="221"/>
      <point x="274" y="221" type="curve" smooth="yes"/>
      <point x="199" y="221"/>
      <point x="135" y="157"/>
      <point x="135" y="71" type="curve" smooth="yes"/>
      <point x="135" y="0"/>
      <point x="172" y="-36"/>
      <point x="238" y="-36" type="curve" smooth="yes"/>
      <point x="315" y="-36"/>
      <point x="376" y="25"/>
    </contour>
  </outline>
</glyph>
<glyph name="quotedbl" format="2">
  <advance width="783"/>
  <unicode hex="0022"/>
  <outline>
    <contour>
      <point x="601" y="750" type="curve"/>
      <point x="639" y="1313" type="line"/>
      <point x="601" y="1332" type="line"/>
      <point x="575" y="1326"/>
      <point x="492" y="1298"/>
      <point x="466" y="1283" type="curve"/>
      <point x="513" y="731" type="line"/>
      <point x="541" y="731"/>
      <point x="582" y="740"/>
    </contour>
    <contour>
      <point x="278" y="750" type="curve"/>
      <point x="316" y="1313" type="line"/>
      <point x="278" y="1332" type="line"/>
      <point x="252" y="1326"/>
      <point x="171" y="1298"/>
      <point x="144" y="1283" type="curve"/>
      <point x="191" y="731" type="line"/>
      <point x="219" y="731"/>
      <point x="260" y="740"/>
    </contour>
  </outline>
</glyph>
<glyph name="numbersign" format="2">
  <advance width="864"/>
  <unicode hex="0023"/>
  <outline>
    <contour>
      <point x="883" y="842" type="curve"/>
      <point x="861" y="864" type="line"/>
      <point x="201" y="864" type="line"/>
      <point x="192" y="840"/>
      <point x="179" y="809"/>
      <point x="173" y="783" type="curve"/>
      <point x="196" y="761" type="line"/>
      <point x="855" y="761" type="line"/>
      <point x="864" y="781"/>
      <point x="878" y="816"/>
    </contour>
    <contour>
      <point x="522" y="153" type="curve"/>
      <point x="804" y="1143" type="line"/>
      <point x="780" y="1162" type="line"/>
      <point x="752" y="1152"/>
      <point x="725" y="1144"/>
      <point x="699" y="1125" type="curve"/>
      <point x="415" y="132" type="line"/>
      <point x="439" y="114" type="line"/>
      <point x="470" y="125"/>
      <point x="500" y="136"/>
    </contour>
    <contour>
      <point x="251" y="153" type="curve"/>
      <point x="535" y="1143" type="line"/>
      <point x="509" y="1162" type="line"/>
      <point x="483" y="1152"/>
      <point x="456" y="1144"/>
      <point x="430" y="1125" type="curve"/>
      <point x="146" y="132" type="line"/>
      <point x="170" y="114" type="line"/>
      <point x="201" y="125"/>
      <point x="229" y="136"/>
    </contour>
    <contour>
      <point x="785" y="506" type="curve"/>
      <point x="765" y="531" type="line"/>
      <point x="105" y="531" type="line"/>
      <point x="94" y="506"/>
      <point x="83" y="473"/>
      <point x="78" y="450" type="curve"/>
      <point x="98" y="427" type="line"/>
      <point x="760" y="427" type="line"/>
      <point x="769" y="448"/>
      <point x="780" y="483"/>
    </contour>
  </outline>
</glyph>
<glyph name="dollar" format="2">
  <advance width="864"/>
  <unicode hex="0024"/>
  <outline>
    <contour>
      <point x="469" y="-128" type="curve"/>
      <point x="469" y="1225" type="line"/>
      <point x="446" y="1245" type="line"/>
      <point x="411" y="1236"/>
      <point x="422" y="1240"/>
      <point x="388" y="1220" type="curve"/>
      <point x="388" y="-136" type="line"/>
      <point x="413" y="-156" type="line"/>
      <point x="442" y="-149"/>
      <point x="448" y="-147"/>
    </contour>
    <contour>
      <point x="397" y="-9" type="curve" smooth="yes"/>
      <point x="647" y="-9"/>
      <point x="775" y="179"/>
      <point x="775" y="339" type="curve" smooth="yes"/>
      <point x="775" y="702"/>
      <point x="202" y="626"/>
      <point x="202" y="862" type="curve" smooth="yes"/>
      <point x="202" y="930"/>
      <point x="252" y="1004"/>
      <point x="405" y="1004" type="curve" smooth="yes"/>
      <point x="475" y="1004"/>
      <point x="550" y="971"/>
      <point x="619" y="891" type="curve"/>
      <point x="654" y="884" type="line"/>
      <point x="685" y="912"/>
      <point x="744" y="995"/>
      <point x="729" y="1011" type="curve"/>
      <point x="682" y="1060"/>
      <point x="575" y="1092"/>
      <point x="460" y="1092" type="curve" smooth="yes"/>
      <point x="177" y="1092"/>
      <point x="88" y="932"/>
      <point x="88" y="819" type="curve" smooth="yes"/>
      <point x="88" y="481"/>
      <point x="654" y="589"/>
      <point x="654" y="291" type="curve" smooth="yes"/>
      <point x="654" y="177"/>
      <point x="547" y="99"/>
      <point x="440" y="99" type="curve" smooth="yes"/>
      <point x="311" y="99"/>
      <point x="197" y="160"/>
      <point x="130" y="302" type="curve"/>
      <point x="91" y="306" type="line"/>
      <point x="73" y="239"/>
      <point x="75" y="98"/>
      <point x="91" y="86" type="curve"/>
      <point x="200" y="18"/>
      <point x="278" y="-9"/>
    </contour>
  </outline>
</glyph>
<glyph name="ampersand" format="2">
  <advance width="1245"/>
  <unicode hex="0026"/>
  <outline>
    <contour>
      <point x="1231" y="673" type="curve"/>
      <point x="1208" y="707" type="line"/>
      <point x="797" y="707" type="line"/>
      <point x="773" y="698"/>
      <point x="739" y="670"/>
      <point x="726" y="655" type="curve"/>
      <point x="748" y="627" type="line"/>
      <point x="819" y="627"/>
      <point x="890" y="552"/>
      <point x="890" y="451" type="curve" smooth="yes"/>
      <point x="890" y="300"/>
      <point x="726" y="84"/>
      <point x="488" y="84" type="curve" smooth="yes"/>
      <point x="364" y="84"/>
      <point x="242" y="167"/>
      <point x="242" y="335" type="curve" smooth="yes"/>
      <point x="242" y="475"/>
      <point x="312" y="590"/>
      <point x="562" y="748" type="curve"/>
      <point x="704" y="837"/>
      <point x="805" y="958"/>
      <point x="805" y="1083" type="curve" smooth="yes"/>
      <point x="805" y="1199"/>
      <point x="746" y="1305"/>
      <point x="583" y="1305" type="curve" smooth="yes"/>
      <point x="418" y="1305"/>
      <point x="271" y="1159"/>
      <point x="271" y="965" type="curve" smooth="yes"/>
      <point x="271" y="550"/>
      <point x="875" y="-27"/>
      <point x="970" y="-27" type="curve" smooth="yes"/>
      <point x="996" y="-27"/>
      <point x="1092" y="0"/>
      <point x="1196" y="45" type="curve"/>
      <point x="1185" y="92" type="line"/>
      <point x="1119" y="77"/>
      <point x="1062" y="89"/>
      <point x="1011" y="132" type="curve"/>
      <point x="789" y="312"/>
      <point x="415" y="731"/>
      <point x="415" y="1017" type="curve" smooth="yes"/>
      <point x="415" y="1111"/>
      <point x="454" y="1201"/>
      <point x="533" y="1201" type="curve" smooth="yes"/>
      <point x="608" y="1201"/>
      <point x="651" y="1137"/>
      <point x="651" y="1053" type="curve" smooth="yes"/>
      <point x="651" y="974"/>
      <point x="615" y="880"/>
      <point x="462" y="794" type="curve" smooth="yes"/>
      <point x="203" y="650"/>
      <point x="67" y="478"/>
      <point x="67" y="316" type="curve" smooth="yes"/>
      <point x="67" y="91"/>
      <point x="219" y="-27"/>
      <point x="452" y="-27" type="curve" smooth="yes"/>
      <point x="767" y="-27"/>
      <point x="1017" y="279"/>
      <point x="1017" y="488" type="curve" smooth="yes"/>
      <point x="1017" y="550"/>
      <point x="1013" y="581"/>
      <point x="987" y="621" type="curve"/>
      <point x="1028" y="619"/>
      <point x="1093" y="602"/>
      <point x="1138" y="581" type="curve"/>
      <point x="1167" y="602"/>
      <point x="1201" y="636"/>
    </contour>
  </outline>
</glyph>
<glyph name="quotesingle" format="2">
  <advance width="460"/>
  <unicode hex="0027"/>
  <outline>
    <contour>
      <point x="278" y="750" type="curve"/>
      <point x="316" y="1313" type="line"/>
      <point x="278" y="1332" type="line"/>
      <point x="252" y="1326"/>
      <point x="171" y="1298"/>
      <point x="144" y="1283" type="curve"/>
      <point x="191" y="731" type="line"/>
      <point x="219" y="731"/>
      <point x="260" y="740"/>
    </contour>
  </outline>
</glyph>
<glyph name="parenleft" format="2">
  <advance width="593"/>
  <unicode hex="0028"/>
  <outline>
    <contour>
      <point x="526" y="-283" type="curve"/>
      <point x="562" y="-234" type="line"/>
      <point x="383" y="-78"/>
      <point x="284" y="235"/>
      <point x="284" y="585" type="curve" smooth="yes"/>
      <point x="284" y="971"/>
      <point x="410" y="1255"/>
      <point x="562" y="1390" type="curve"/>
      <point x="526" y="1440" type="line"/>
      <point x="270" y="1300"/>
      <point x="104" y="954"/>
      <point x="104" y="560" type="curve" smooth="yes"/>
      <point x="104" y="179"/>
      <point x="246" y="-147"/>
    </contour>
  </outline>
</glyph>
<glyph name="parenright" format="2">
  <advance width="574"/>
  <unicode hex="0029"/>
  <outline>
    <contour>
      <point x="-113" y="1295" type="curve"/>
      <point x="-125" y="1282" type="line"/>
      <point x="127" y="1084"/>
      <point x="230" y="705"/>
      <point x="230" y="391" type="curve" smooth="yes"/>
      <point x="230" y="54"/>
      <point x="117" y="-302"/>
      <point x="-125" y="-504" type="curve"/>
      <point x="-113" y="-518" type="line"/>
      <point x="327" y="-271"/>
      <point x="389" y="164"/>
      <point x="389" y="387" type="curve" smooth="yes"/>
      <point x="389" y="945"/>
      <point x="54" y="1202"/>
    </contour>
  </outline>
</glyph>
<glyph name="plus" format="2">
  <advance width="762"/>
  <unicode hex="002B"/>
  <outline>
    <contour>
      <point x="709" y="536" type="curve"/>
      <point x="685" y="560" type="line"/>
      <point x="84" y="560" type="line"/>
      <point x="74" y="537"/>
      <point x="58" y="499"/>
      <point x="52" y="475" type="curve"/>
      <point x="77" y="451" type="line"/>
      <point x="677" y="451" type="line"/>
      <point x="686" y="471"/>
      <point x="703" y="511"/>
    </contour>
    <contour>
      <point x="437" y="209" type="curve"/>
      <point x="437" y="810" type="line"/>
      <point x="414" y="833" type="line"/>
      <point x="387" y="827"/>
      <point x="347" y="812"/>
      <point x="325" y="805" type="curve"/>
      <point x="325" y="200" type="line"/>
      <point x="350" y="178" type="line"/>
      <point x="376" y="184"/>
      <point x="414" y="197"/>
    </contour>
  </outline>
</glyph>
<glyph name="comma" format="2">
  <advance width="451"/>
  <unicode hex="002C"/>
  <outline>
    <contour>
      <point x="150" y="258" type="curve" smooth="yes"/>
      <point x="86" y="258"/>
      <point x="31" y="200"/>
      <point x="31" y="137" type="curve" smooth="yes"/>
      <point x="31" y="76"/>
      <point x="89" y="14"/>
      <point x="129" y="14" type="curve" smooth="yes"/>
      <point x="159" y="14"/>
      <point x="199" y="53"/>
      <point x="219" y="53" type="curve" smooth="yes"/>
      <point x="241" y="53"/>
      <point x="244" y="51"/>
      <point x="244" y="29" type="curve" smooth="yes"/>
      <point x="244" y="-91"/>
      <point x="87" y="-190"/>
      <point x="47" y="-190" type="curve"/>
      <point x="47" y="-246" type="line"/>
      <point x="100" y="-246"/>
      <point x="162" y="-208"/>
      <point x="233" y="-133" type="curve" smooth="yes"/>
      <point x="288" y="-75"/>
      <point x="315" y="-7"/>
      <point x="315" y="70" type="curve" smooth="yes"/>
      <point x="315" y="161"/>
      <point x="252" y="258"/>
    </contour>
  </outline>
</glyph>
<glyph name="hyphen" format="2">
  <advance width="632"/>
  <unicode hex="002D"/>
  <outline>
    <contour>
      <point x="579" y="493" type="curve"/>
      <point x="555" y="517" type="line"/>
      <point x="84" y="517" type="line"/>
      <point x="74" y="494"/>
      <point x="58" y="454"/>
      <point x="52" y="428" type="curve"/>
      <point x="77" y="405" type="line"/>
      <point x="547" y="405" type="line"/>
      <point x="556" y="424"/>
      <point x="572" y="467"/>
    </contour>
  </outline>
</glyph>
<glyph name="period" format="2">
  <advance width="446"/>
  <unicode hex="002E"/>
  <outline>
    <contour>
      <point x="359" y="112" type="curve"/>
      <point x="359" y="184"/>
      <point x="318" y="221"/>
      <point x="256" y="221" type="curve" smooth="yes"/>
      <point x="182" y="221"/>
      <point x="117" y="157"/>
      <point x="117" y="71" type="curve" smooth="yes"/>
      <point x="117" y="0"/>
      <point x="155" y="-36"/>
      <point x="221" y="-36" type="curve" smooth="yes"/>
      <point x="298" y="-36"/>
      <point x="359" y="25"/>
    </contour>
  </outline>
</glyph>
<glyph name="slash" format="2">
  <advance width="533"/>
  <unicode hex="002F"/>
  <outline>
    <contour>
      <point x="533" y="1258" type="line"/>
      <point x="453" y="1258" type="line"/>
      <point x="-39" y="-193" type="line"/>
      <point x="43" y="-193" type="line"/>
    </contour>
  </outline>
</glyph>
<glyph name="zero" format="2">
  <advance width="680"/>
  <unicode hex="0030"/>
  <outline>
    <contour>
      <point x="340" y="932" type="curve" smooth="yes"/>
      <point x="67" y="932"/>
      <point x="33" y="570"/>
      <point x="33" y="461" type="curve" smooth="yes"/>
      <point x="33" y="425"/>
      <point x="39" y="-9"/>
      <point x="340" y="-9" type="curve" smooth="yes"/>
      <point x="641" y="-9"/>
      <point x="649" y="414"/>
      <point x="649" y="461" type="curve" smooth="yes"/>
      <point x="649" y="499"/>
      <point x="642" y="932"/>
    </contour>
    <contour>
      <point x="518" y="461" type="curve" smooth="yes"/>
      <point x="518" y="172"/>
      <point x="459" y="27"/>
      <point x="340" y="27" type="curve" smooth="yes"/>
      <point x="223" y="27"/>
      <point x="164" y="172"/>
      <point x="164" y="461" type="curve" smooth="yes"/>
      <point x="164" y="750"/>
      <point x="223" y="895"/>
      <point x="340" y="895" type="curve" smooth="yes"/>
      <point x="415" y="895"/>
      <point x="463" y="848"/>
      <point x="485" y="752" type="curve" smooth="yes"/>
      <point x="507" y="658"/>
      <point x="518" y="560"/>
    </contour>
  </outline>
</glyph>
<glyph name="one" format="2">
  <advance width="887"/>
  <unicode hex="0031"/>
  <outline>
    <contour>
      <point x="148" y="0" type="line"/>
      <point x="778" y="0" type="line"/>
      <point x="778" y="56" type="line"/>
      <point x="597" y="79"/>
      <point x="553" y="114"/>
      <point x="553" y="137" type="curve" smooth="yes"/>
      <point x="553" y="1086" type="line"/>
      <point x="517" y="1120" type="line"/>
      <point x="436" y="1078"/>
      <point x="221" y="993"/>
      <point x="120" y="967" type="curve"/>
      <point x="141" y="912" type="line"/>
      <point x="300" y="945"/>
      <point x="360" y="940"/>
      <point x="375" y="925" type="curve" smooth="yes"/>
      <point x="389" y="909"/>
      <point x="391" y="884"/>
      <point x="391" y="837" type="curve" smooth="yes"/>
      <point x="391" y="137" type="line" smooth="yes"/>
      <point x="391" y="112"/>
      <point x="336" y="79"/>
      <point x="148" y="56" type="curve"/>
    </contour>
  </outline>
</glyph>
<glyph name="two" format="2">
  <advance width="887"/>
  <unicode hex="0032"/>
  <outline>
    <contour>
      <point x="765" y="0" type="line"/>
      <point x="779" y="278" type="line"/>
      <point x="725" y="291" type="line"/>
      <point x="725" y="291"/>
      <point x="714" y="124"/>
      <point x="633" y="124" type="curve" smooth="yes"/>
      <point x="263" y="124" type="line"/>
      <point x="637" y="555"/>
      <point x="767" y="704"/>
      <point x="767" y="865" type="curve" smooth="yes"/>
      <point x="767" y="1032"/>
      <point x="651" y="1111"/>
      <point x="492" y="1111" type="curve" smooth="yes"/>
      <point x="294" y="1111"/>
      <point x="108" y="949"/>
      <point x="108" y="825" type="curve"/>
      <point x="134" y="787" type="line"/>
      <point x="189" y="792"/>
      <point x="236" y="813"/>
      <point x="276" y="836" type="curve"/>
      <point x="271" y="922"/>
      <point x="333" y="1023"/>
      <point x="431" y="1023" type="curve" smooth="yes"/>
      <point x="551" y="1023"/>
      <point x="598" y="939"/>
      <point x="598" y="831" type="curve" smooth="yes"/>
      <point x="598" y="697"/>
      <point x="509" y="561"/>
      <point x="83" y="66" type="curve"/>
      <point x="109" y="0" type="line"/>
    </contour>
  </outline>
</glyph>
<glyph name="three" format="2">
  <advance width="680"/>
  <unicode hex="0033"/>
  <outline>
    <contour>
      <point x="414" y="547" type="curve"/>
      <point x="500" y="602"/>
      <point x="543" y="666"/>
      <point x="543" y="738" type="curve" smooth="yes"/>
      <point x="543" y="779"/>
      <point x="527" y="820"/>
      <point x="494" y="861" type="curve" smooth="yes"/>
      <point x="461" y="902"/>
      <point x="406" y="922"/>
      <point x="328" y="922" type="curve" smooth="yes"/>
      <point x="161" y="922"/>
      <point x="91" y="794"/>
      <point x="62" y="701" type="curve"/>
      <point x="82" y="695" type="line"/>
      <point x="129" y="792"/>
      <point x="196" y="840"/>
      <point x="285" y="840" type="curve" smooth="yes"/>
      <point x="396" y="840"/>
      <point x="432" y="757"/>
      <point x="432" y="699" type="curve" smooth="yes"/>
      <point x="432" y="590"/>
      <point x="357" y="513"/>
      <point x="207" y="469" type="curve"/>
      <point x="207" y="451" type="line"/>
      <point x="315" y="451"/>
      <point x="389" y="428"/>
      <point x="430" y="382" type="curve" smooth="yes"/>
      <point x="470" y="337"/>
      <point x="490" y="289"/>
      <point x="490" y="240" type="curve" smooth="yes"/>
      <point x="490" y="161"/>
      <point x="450" y="29"/>
      <point x="305" y="29" type="curve" smooth="yes"/>
      <point x="276" y="29"/>
      <point x="256" y="35"/>
      <point x="205" y="67" type="curve"/>
      <point x="153" y="97" type="line" smooth="yes"/>
      <point x="140" y="104"/>
      <point x="126" y="107"/>
      <point x="113" y="107" type="curve" smooth="yes"/>
      <point x="78" y="107"/>
      <point x="60" y="91"/>
      <point x="60" y="60" type="curve" smooth="yes"/>
      <point x="60" y="-12"/>
      <point x="168" y="-19"/>
      <point x="211" y="-19" type="curve" smooth="yes"/>
      <point x="414" y="-19"/>
      <point x="588" y="93"/>
      <point x="588" y="295" type="curve" smooth="yes"/>
      <point x="588" y="373"/>
      <point x="583" y="474"/>
    </contour>
  </outline>
</glyph>
<glyph name="five" format="2">
  <advance width="680"/>
  <unicode hex="0035"/>
  <outline>
    <contour>
      <point x="486" y="275" type="curve" smooth="yes"/>
      <point x="486" y="36"/>
      <point x="298" y="31"/>
      <point x="295" y="31" type="curve" smooth="yes"/>
      <point x="280" y="31"/>
      <point x="266" y="34"/>
      <point x="254" y="39" type="curve"/>
      <point x="206" y="71" type="line" smooth="yes"/>
      <point x="158" y="103"/>
      <point x="137" y="117"/>
      <point x="99" y="117" type="curve" smooth="yes"/>
      <point x="62" y="117"/>
      <point x="43" y="99"/>
      <point x="43" y="64" type="curve" smooth="yes"/>
      <point x="43" y="-18"/>
      <point x="205" y="-19"/>
      <point x="215" y="-19" type="curve" smooth="yes"/>
      <point x="427" y="-19"/>
      <point x="580" y="126"/>
      <point x="580" y="307" type="curve" smooth="yes"/>
      <point x="580" y="425"/>
      <point x="564" y="470"/>
      <point x="506" y="539" type="curve" smooth="yes"/>
      <point x="461" y="596"/>
      <point x="405" y="643"/>
      <point x="189" y="678" type="curve"/>
      <point x="246" y="795" type="line"/>
      <point x="514" y="795" type="line" smooth="yes"/>
      <point x="531" y="795"/>
      <point x="542" y="799"/>
      <point x="545" y="807" type="curve" smooth="yes"/>
      <point x="596" y="928" type="line"/>
      <point x="584" y="938" type="line"/>
      <point x="567" y="913"/>
      <point x="547" y="901"/>
      <point x="522" y="901" type="curve" smooth="yes"/>
      <point x="238" y="901" type="line"/>
      <point x="88" y="580" type="line"/>
      <point x="83" y="568"/>
      <point x="92" y="561"/>
      <point x="97" y="561" type="curve" smooth="yes"/>
      <point x="151" y="561"/>
      <point x="486" y="531"/>
    </contour>
  </outline>
</glyph>
<glyph name="seven" format="2">
  <advance width="887"/>
  <unicode hex="0037"/>
  <outline>
    <contour>
      <point x="819" y="1050" type="curve"/>
      <point x="789" y="1084" type="line"/>
      <point x="132" y="1084" type="line"/>
      <point x="117" y="1031"/>
      <point x="99" y="891"/>
      <point x="91" y="835" type="curve"/>
      <point x="139" y="816" type="line"/>
      <point x="190" y="956"/>
      <point x="225" y="951"/>
      <point x="260" y="951" type="curve" smooth="yes"/>
      <point x="666" y="951" type="line"/>
      <point x="534" y="645"/>
      <point x="423" y="372"/>
      <point x="215" y="4" type="curve"/>
      <point x="254" y="-27" type="line"/>
      <point x="313" y="-11"/>
      <point x="375" y="12"/>
      <point x="418" y="41" type="curve"/>
      <point x="481" y="233"/>
      <point x="652" y="663"/>
    </contour>
  </outline>
</glyph>
<glyph name="nine" format="2">
  <advance width="680"/>
  <unicode hex="0039"/>
  <outline>
    <contour>
      <point x="328" y="922" type="curve" smooth="yes"/>
      <point x="154" y="922"/>
      <point x="41" y="775"/>
      <point x="41" y="592" type="curve" smooth="yes"/>
      <point x="41" y="546"/>
      <point x="64" y="324"/>
      <point x="287" y="324" type="curve" smooth="yes"/>
      <point x="360" y="324"/>
      <point x="427" y="349"/>
      <point x="486" y="398" type="curve"/>
      <point x="490" y="396" type="line"/>
      <point x="461" y="259"/>
      <point x="373" y="159"/>
      <point x="314" y="105" type="curve" smooth="yes"/>
      <point x="253" y="50"/>
      <point x="174" y="14"/>
      <point x="76" y="-2" type="curve"/>
      <point x="80" y="-31" type="line"/>
      <point x="133" y="-31"/>
      <point x="184" y="-23"/>
      <point x="232" y="-6" type="curve" smooth="yes"/>
      <point x="605" y="118"/>
      <point x="625" y="467"/>
      <point x="625" y="539" type="curve" smooth="yes"/>
      <point x="625" y="761"/>
      <point x="498" y="922"/>
    </contour>
    <contour>
      <point x="340" y="381" type="curve" smooth="yes"/>
      <point x="276" y="381"/>
      <point x="231" y="408"/>
      <point x="205" y="462" type="curve" smooth="yes"/>
      <point x="179" y="516"/>
      <point x="166" y="577"/>
      <point x="166" y="645" type="curve" smooth="yes"/>
      <point x="166" y="853"/>
      <point x="259" y="883"/>
      <point x="312" y="883" type="curve" smooth="yes"/>
      <point x="433" y="883"/>
      <point x="494" y="768"/>
      <point x="494" y="537" type="curve" smooth="yes"/>
      <point x="494" y="484" type="line" smooth="yes"/>
      <point x="494" y="394"/>
      <point x="361" y="381"/>
    </contour>
  </outline>
</glyph>
<glyph name="colon" format="2">
  <advance width="481"/>
  <unicode hex="003A"/>
  <outline>
    <contour>
      <point x="197" y="807" type="curve" smooth="yes"/>
      <point x="127" y="807"/>
      <point x="70" y="750"/>
      <point x="70" y="680" type="curve" smooth="yes"/>
      <point x="70" y="605"/>
      <point x="130" y="553"/>
      <point x="197" y="553" type="curve" smooth="yes"/>
      <point x="267" y="553"/>
      <point x="328" y="607"/>
      <point x="328" y="680" type="curve" smooth="yes"/>
      <point x="328" y="752"/>
      <point x="265" y="807"/>
    </contour>
    <contour>
      <point x="197" y="233" type="curve" smooth="yes"/>
      <point x="127" y="233"/>
      <point x="70" y="176"/>
      <point x="70" y="106" type="curve" smooth="yes"/>
      <point x="70" y="33"/>
      <point x="129" y="-20"/>
      <point x="197" y="-20" type="curve" smooth="yes"/>
      <point x="268" y="-20"/>
      <point x="328" y="33"/>
      <point x="328" y="106" type="curve" smooth="yes"/>
      <point x="328" y="178"/>
      <point x="265" y="233"/>
    </contour>
  </outline>
</glyph>
<glyph name="semicolon" format="2">
  <advance width="481"/>
  <unicode hex="003B"/>
  <outline>
    <contour>
      <point x="184" y="807" type="curve" smooth="yes"/>
      <point x="118" y="807"/>
      <point x="57" y="754"/>
      <point x="57" y="680" type="curve" smooth="yes"/>
      <point x="57" y="605"/>
      <point x="117" y="553"/>
      <point x="184" y="553" type="curve" smooth="yes"/>
      <point x="254" y="553"/>
      <point x="315" y="607"/>
      <point x="315" y="680" type="curve" smooth="yes"/>
      <point x="315" y="753"/>
      <point x="254" y="807"/>
    </contour>
    <contour>
      <point x="150" y="258" type="curve" smooth="yes"/>
      <point x="86" y="258"/>
      <point x="31" y="200"/>
      <point x="31" y="137" type="curve" smooth="yes"/>
      <point x="31" y="76"/>
      <point x="89" y="14"/>
      <point x="129" y="14" type="curve" smooth="yes"/>
      <point x="159" y="14"/>
      <point x="199" y="53"/>
      <point x="219" y="53" type="curve" smooth="yes"/>
      <point x="241" y="53"/>
      <point x="244" y="51"/>
      <point x="244" y="29" type="curve" smooth="yes"/>
      <point x="244" y="-89"/>
      <point x="86" y="-211"/>
      <point x="47" y="-211" type="curve"/>
      <point x="47" y="-246" type="line"/>
      <point x="100" y="-246"/>
      <point x="162" y="-208"/>
      <point x="233" y="-133" type="curve" smooth="yes"/>
      <point x="288" y="-75"/>
      <point x="315" y="-7"/>
      <point x="315" y="70" type="curve" smooth="yes"/>
      <point x="315" y="161"/>
      <point x="252" y="258"/>
    </contour>
  </outline>
</glyph>
<glyph name="equal" format="2">
  <advance width="1155"/>
  <unicode hex="003D"/>
  <outline>
    <contour>
      <point x="991" y="735" type="line"/>
      <point x="164" y="735" type="line"/>
      <point x="164" y="629" type="line"/>
      <point x="991" y="629" type="line"/>
    </contour>
    <contour>
      <point x="991" y="408" type="line"/>
      <point x="164" y="408" type="line"/>
      <point x="164" y="301" type="line"/>
      <point x="991" y="301" type="line"/>
    </contour>
  </outline>
</glyph>
<glyph name="question" format="2">
  <advance width="811"/>
  <unicode hex="003F"/>
  <outline>
    <contour>
      <point x="743" y="1048" type="curve" smooth="yes"/>
      <point x="743" y="1216"/>
      <point x="642" y="1332"/>
      <point x="458" y="1332" type="curve" smooth="yes"/>
      <point x="251" y="1332"/>
      <point x="67" y="1204"/>
      <point x="67" y="1035" type="curve" smooth="yes"/>
      <point x="67" y="1026"/>
      <point x="67" y="1010"/>
      <point x="69" y="1001" type="curve"/>
      <point x="95" y="972" type="line"/>
      <point x="148" y="977"/>
      <point x="216" y="993"/>
      <point x="255" y="1012" type="curve"/>
      <point x="249" y="1030"/>
      <point x="244" y="1050"/>
      <point x="244" y="1067" type="curve" smooth="yes"/>
      <point x="244" y="1161"/>
      <point x="312" y="1238"/>
      <point x="390" y="1238" type="curve" smooth="yes"/>
      <point x="501" y="1238"/>
      <point x="566" y="1155"/>
      <point x="566" y="1008" type="curve" smooth="yes"/>
      <point x="566" y="840"/>
      <point x="320" y="657"/>
      <point x="320" y="456" type="curve" smooth="yes"/>
      <point x="320" y="451"/>
      <point x="320" y="447"/>
      <point x="320" y="443" type="curve"/>
      <point x="328" y="341" type="line"/>
      <point x="352" y="319" type="line"/>
      <point x="386" y="328"/>
      <point x="406" y="339"/>
      <point x="427" y="356" type="curve"/>
      <point x="433" y="443" type="line" smooth="yes"/>
      <point x="448" y="683"/>
      <point x="743" y="777"/>
    </contour>
    <contour>
      <point x="505" y="112" type="curve" smooth="yes"/>
      <point x="505" y="184"/>
      <point x="464" y="221"/>
      <point x="403" y="221" type="curve" smooth="yes"/>
      <point x="328" y="221"/>
      <point x="264" y="157"/>
      <point x="264" y="71" type="curve" smooth="yes"/>
      <point x="264" y="0"/>
      <point x="301" y="-36"/>
      <point x="368" y="-36" type="curve" smooth="yes"/>
      <point x="445" y="-36"/>
      <point x="505" y="25"/>
    </contour>
  </outline>
</glyph>
<glyph name="at" format="2">
  <advance width="1487"/>
  <unicode hex="0040"/>
  <outline>
    <contour>
      <point x="1424" y="494" type="curve"/>
      <point x="1424" y="954"/>
      <point x="1188" y="1199"/>
      <point x="831" y="1199" type="curve" smooth="yes"/>
      <point x="409" y="1199"/>
      <point x="63" y="826"/>
      <point x="63" y="418" type="curve" smooth="yes"/>
      <point x="63" y="-42"/>
      <point x="355" y="-337"/>
      <point x="768" y="-337" type="curve" smooth="yes"/>
      <point x="1026" y="-337"/>
      <point x="1218" y="-214"/>
      <point x="1305" y="-123" type="curve"/>
      <point x="1280" y="-73" type="line"/>
      <point x="1208" y="-135"/>
      <point x="1015" y="-229"/>
      <point x="812" y="-229" type="curve" smooth="yes"/>
      <point x="486" y="-229"/>
      <point x="198" y="36"/>
      <point x="198" y="471" type="curve" smooth="yes"/>
      <point x="198" y="796"/>
      <point x="429" y="1091"/>
      <point x="796" y="1091" type="curve" smooth="yes"/>
      <point x="1100" y="1091"/>
      <point x="1316" y="864"/>
      <point x="1316" y="460" type="curve" smooth="yes"/>
      <point x="1316" y="258"/>
      <point x="1205" y="98"/>
      <point x="1144" y="98" type="curve" smooth="yes"/>
      <point x="1087" y="98"/>
      <point x="1047" y="149"/>
      <point x="1047" y="256" type="curve" smooth="yes"/>
      <point x="1047" y="650" type="line" smooth="yes"/>
      <point x="1047" y="723"/>
      <point x="1062" y="800"/>
      <point x="1074" y="837" type="curve"/>
      <point x="1046" y="864" type="line"/>
      <point x="1013" y="827"/>
      <point x="981" y="800"/>
      <point x="949" y="781" type="curve"/>
      <point x="886" y="851"/>
      <point x="855" y="864"/>
      <point x="800" y="864" type="curve" smooth="yes"/>
      <point x="566" y="864"/>
      <point x="414" y="606"/>
      <point x="414" y="399" type="curve" smooth="yes"/>
      <point x="414" y="132"/>
      <point x="556" y="-27"/>
      <point x="678" y="-27" type="curve" smooth="yes"/>
      <point x="774" y="-27"/>
      <point x="819" y="9"/>
      <point x="918" y="145" type="curve"/>
      <point x="934" y="20"/>
      <point x="982" y="-27"/>
      <point x="1041" y="-27" type="curve" smooth="yes"/>
      <point x="1194" y="-27"/>
      <point x="1424" y="182"/>
    </contour>
    <contour>
      <point x="912" y="657" type="curve"/>
      <point x="912" y="225" type="line"/>
      <point x="821" y="117"/>
      <point x="789" y="90"/>
      <point x="742" y="90" type="curve" smooth="yes"/>
      <point x="657" y="90"/>
      <point x="549" y="223"/>
      <point x="549" y="427" type="curve" smooth="yes"/>
      <point x="549" y="652"/>
      <point x="639" y="765"/>
      <point x="772" y="765" type="curve" smooth="yes"/>
      <point x="844" y="765"/>
      <point x="879" y="724"/>
    </contour>
  </outline>
</glyph>
<glyph name="A" format="2">
  <advance width="1117"/>
  <unicode hex="0041"/>
  <anchor x="549" y="0" name="H"/>
  <anchor x="549" y="1233" name="U"/>
  <outline>
    <contour>
      <point x="346" y="396" type="line"/>
      <point x="710" y="396" type="line"/>
      <point x="809" y="108" type="line" smooth="yes"/>
      <point x="822" y="69"/>
      <point x="788" y="53"/>
      <point x="696" y="47" type="curve"/>
      <point x="696" y="0" type="line"/>
      <point x="1098" y="0" type="line"/>
      <point x="1098" y="47" type="line"/>
      <point x="1021" y="56"/>
      <point x="994" y="75"/>
      <point x="982" y="108" type="curve" smooth="yes"/>
      <point x="604" y="1185" type="line"/>
      <point x="563" y="1167"/>
      <point x="505" y="1140"/>
      <point x="468" y="1104" type="curve"/>
      <point x="139" y="108" type="line" smooth="yes"/>
      <point x="128" y="72"/>
      <point x="81" y="62"/>
      <point x="0" y="47" type="curve"/>
      <point x="0" y="0" type="line"/>
      <point x="380" y="0" type="line"/>
      <point x="380" y="47" type="line"/>
      <point x="282" y="58"/>
      <point x="239" y="72"/>
      <point x="250" y="108" type="curve" smooth="yes"/>
    </contour>
    <contour>
      <point x="678" y="486" type="line"/>
      <point x="376" y="486" type="line"/>
      <point x="523" y="933" type="line"/>
    </contour>
  </outline>
</glyph>
<glyph name="B" format="2">
  <advance width="1044"/>
  <unicode hex="0042"/>
  <outline>
    <contour>
      <point x="948" y="320" type="curve"/>
      <point x="948" y="486"/>
      <point x="828" y="621"/>
      <point x="666" y="650" type="curve"/>
      <point x="780" y="691"/>
      <point x="848" y="789"/>
      <point x="848" y="918" type="curve" smooth="yes"/>
      <point x="848" y="1069"/>
      <point x="692" y="1161"/>
      <point x="440" y="1161" type="curve" smooth="yes"/>
      <point x="305" y="1161"/>
      <point x="131" y="1133"/>
      <point x="33" y="1107" type="curve"/>
      <point x="42" y="1044" type="line"/>
      <point x="144" y="1063"/>
      <point x="292" y="1078"/>
      <point x="387" y="1078" type="curve" smooth="yes"/>
      <point x="610" y="1078"/>
      <point x="679" y="993"/>
      <point x="679" y="873" type="curve" smooth="yes"/>
      <point x="679" y="770"/>
      <point x="629" y="657"/>
      <point x="368" y="657" type="curve" smooth="yes"/>
      <point x="284" y="657" type="line"/>
      <point x="293" y="560" type="line"/>
      <point x="346" y="571"/>
      <point x="402" y="581"/>
      <point x="481" y="581" type="curve" smooth="yes"/>
      <point x="690" y="581"/>
      <point x="771" y="426"/>
      <point x="771" y="294" type="curve" smooth="yes"/>
      <point x="771" y="159"/>
      <point x="667" y="69"/>
      <point x="494" y="69" type="curve" smooth="yes"/>
      <point x="440" y="69"/>
      <point x="369" y="75"/>
      <point x="333" y="94" type="curve"/>
      <point x="110" y="0" type="line"/>
      <point x="228" y="-5"/>
      <point x="409" y="-12"/>
      <point x="518" y="-12" type="curve"/>
      <point x="777" y="-12"/>
      <point x="948" y="116"/>
    </contour>
    <contour>
      <point x="42" y="0" type="line"/>
      <point x="465" y="0" type="line"/>
      <point x="465" y="45" type="line"/>
      <point x="378" y="61"/>
      <point x="342" y="85"/>
      <point x="342" y="100" type="curve" smooth="yes"/>
      <point x="342" y="1107" type="line"/>
      <point x="171" y="1089" type="line"/>
      <point x="171" y="102" type="line" smooth="yes"/>
      <point x="171" y="86"/>
      <point x="123" y="63"/>
      <point x="42" y="47" type="curve"/>
    </contour>
  </outline>
</glyph>
<glyph name="C" format="2">
  <advance width="988"/>
  <unicode hex="0043"/>
  <anchor x="525" y="0" name="H"/>
  <anchor x="552" y="1233" name="U"/>
  <outline>
    <contour>
      <point x="916" y="189" type="curve"/>
      <point x="912" y="198"/>
      <point x="895" y="225"/>
      <point x="882" y="230" type="curve"/>
      <point x="750" y="119"/>
      <point x="643" y="81"/>
      <point x="578" y="81" type="curve" smooth="yes"/>
      <point x="407" y="81"/>
      <point x="202" y="241"/>
      <point x="202" y="560" type="curve" smooth="yes"/>
      <point x="202" y="934"/>
      <point x="409" y="1062"/>
      <point x="532" y="1062" type="curve" smooth="yes"/>
      <point x="641" y="1062"/>
      <point x="726" y="1021"/>
      <point x="786" y="965" type="curve"/>
      <point x="818" y="960" type="line"/>
      <point x="846" y="988"/>
      <point x="912" y="1060"/>
      <point x="899" y="1071" type="curve" smooth="yes"/>
      <point x="837" y="1120"/>
      <point x="737" y="1161"/>
      <point x="608" y="1161" type="curve" smooth="yes"/>
      <point x="313" y="1161"/>
      <point x="63" y="910"/>
      <point x="63" y="527" type="curve" smooth="yes"/>
      <point x="63" y="179"/>
      <point x="291" y="-27"/>
      <point x="513" y="-27" type="curve" smooth="yes"/>
      <point x="638" y="-27"/>
      <point x="763" y="26"/>
    </contour>
  </outline>
</glyph>
<glyph name="D" format="2">
  <advance width="1092"/>
  <unicode hex="0044"/>
  <anchor x="495" y="1233" name="U"/>
  <outline>
    <contour>
      <point x="45" y="0" type="line"/>
      <point x="73" y="0" type="line" smooth="yes"/>
      <point x="246" y="0"/>
      <point x="310" y="0"/>
      <point x="450" y="0" type="curve" smooth="yes"/>
      <point x="503" y="0" type="line" smooth="yes"/>
      <point x="715" y="0"/>
      <point x="1010" y="158"/>
      <point x="1010" y="608" type="curve" smooth="yes"/>
      <point x="1010" y="956"/>
      <point x="800" y="1161"/>
      <point x="466" y="1161" type="curve" smooth="yes"/>
      <point x="324" y="1161"/>
      <point x="142" y="1136"/>
      <point x="36" y="1107" type="curve"/>
      <point x="45" y="1051" type="line"/>
      <point x="84" y="1057"/>
      <point x="128" y="1063"/>
      <point x="175" y="1070" type="curve"/>
      <point x="175" y="93" type="line" smooth="yes"/>
      <point x="175" y="77"/>
      <point x="126" y="54"/>
      <point x="45" y="38" type="curve"/>
    </contour>
    <contour>
      <point x="483" y="75" type="curve" smooth="yes"/>
      <point x="405" y="75"/>
      <point x="319" y="83"/>
      <point x="319" y="138" type="curve" smooth="yes"/>
      <point x="319" y="1082" type="line"/>
      <point x="348" y="1084"/>
      <point x="378" y="1085"/>
      <point x="407" y="1085" type="curve" smooth="yes"/>
      <point x="696" y="1085"/>
      <point x="857" y="891"/>
      <point x="857" y="573" type="curve" smooth="yes"/>
      <point x="857" y="235"/>
      <point x="648" y="75"/>
    </contour>
  </outline>
</glyph>
<glyph name="E" format="2">
  <advance width="914"/>
  <unicode hex="0045"/>
  <anchor x="451" y="0" name="H"/>
  <anchor x="451" y="1233" name="U"/>
  <outline>
    <contour>
      <point x="800" y="1111" type="curve"/>
      <point x="770" y="1134" type="line"/>
      <point x="298" y="1134" type="line"/>
      <point x="272" y="1053" type="line"/>
      <point x="648" y="1053" type="line" smooth="yes"/>
      <point x="693" y="1053"/>
      <point x="717" y="1019"/>
      <point x="722" y="909" type="curve"/>
      <point x="763" y="909" type="line"/>
      <point x="777" y="954"/>
      <point x="796" y="1050"/>
    </contour>
    <contour>
      <point x="707" y="636" type="curve"/>
      <point x="684" y="661" type="line"/>
      <point x="279" y="661" type="line"/>
      <point x="260" y="585" type="line"/>
      <point x="446" y="585" type="line" smooth="yes"/>
      <point x="547" y="585"/>
      <point x="587" y="571"/>
      <point x="624" y="536" type="curve"/>
      <point x="650" y="555"/>
      <point x="687" y="603"/>
    </contour>
    <contour>
      <point x="858" y="219" type="curve"/>
      <point x="819" y="235" type="line"/>
      <point x="768" y="95"/>
      <point x="729" y="81"/>
      <point x="619" y="81" type="curve" smooth="yes"/>
      <point x="503" y="81" type="line" smooth="yes"/>
      <point x="344" y="81"/>
      <point x="319" y="103"/>
      <point x="319" y="138" type="curve" smooth="yes"/>
      <point x="319" y="1059" type="line" smooth="yes"/>
      <point x="319" y="1075"/>
      <point x="369" y="1087"/>
      <point x="450" y="1095" type="curve"/>
      <point x="450" y="1134" type="line"/>
      <point x="45" y="1134" type="line"/>
      <point x="45" y="1095" type="line"/>
      <point x="131" y="1078"/>
      <point x="175" y="1053"/>
      <point x="175" y="1039" type="curve" smooth="yes"/>
      <point x="175" y="93" type="line" smooth="yes"/>
      <point x="175" y="77"/>
      <point x="126" y="54"/>
      <point x="45" y="38" type="curve"/>
      <point x="45" y="0" type="line"/>
      <point x="821" y="0" type="line"/>
      <point x="831" y="35"/>
      <point x="849" y="116"/>
    </contour>
  </outline>
</glyph>
<glyph name="F" format="2">
  <advance width="899"/>
  <unicode hex="0046"/>
  <anchor x="435" y="1233" name="U"/>
  <outline>
    <contour>
      <point x="829" y="1109" type="curve"/>
      <point x="799" y="1134" type="line"/>
      <point x="321" y="1134" type="line"/>
      <point x="295" y="1044" type="line"/>
      <point x="669" y="1044" type="line" smooth="yes"/>
      <point x="715" y="1044"/>
      <point x="739" y="1001"/>
      <point x="743" y="891" type="curve"/>
      <point x="794" y="891" type="line"/>
      <point x="809" y="936"/>
      <point x="828" y="1048"/>
    </contour>
    <contour>
      <point x="704" y="634" type="curve"/>
      <point x="676" y="661" type="line"/>
      <point x="277" y="661" type="line"/>
      <point x="227" y="579" type="line"/>
      <point x="442" y="579" type="line" smooth="yes"/>
      <point x="542" y="579"/>
      <point x="585" y="564"/>
      <point x="620" y="529" type="curve"/>
      <point x="645" y="548"/>
      <point x="682" y="598"/>
    </contour>
    <contour>
      <point x="42" y="0" type="line"/>
      <point x="497" y="0" type="line"/>
      <point x="497" y="47" type="line"/>
      <point x="379" y="70"/>
      <point x="342" y="88"/>
      <point x="342" y="102" type="curve" smooth="yes"/>
      <point x="342" y="1050" type="line" smooth="yes"/>
      <point x="342" y="1066"/>
      <point x="407" y="1078"/>
      <point x="472" y="1086" type="curve"/>
      <point x="472" y="1134" type="line"/>
      <point x="42" y="1134" type="line"/>
      <point x="42" y="1086" type="line"/>
      <point x="129" y="1069"/>
      <point x="171" y="1044"/>
      <point x="171" y="1030" type="curve" smooth="yes"/>
      <point x="171" y="102" type="line" smooth="yes"/>
      <point x="171" y="86"/>
      <point x="123" y="63"/>
      <point x="42" y="47" type="curve"/>
    </contour>
  </outline>
</glyph>
<glyph name="G" format="2">
  <advance width="1074"/>
  <unicode hex="0047"/>
  <anchor x="558" y="0" name="H"/>
  <anchor x="576" y="1233" name="U"/>
  <outline>
    <contour>
      <point x="1030" y="510" type="curve"/>
      <point x="1030" y="549" type="line"/>
      <point x="615" y="549" type="line"/>
      <point x="615" y="510" type="line"/>
      <point x="761" y="486"/>
      <point x="801" y="462"/>
      <point x="801" y="436" type="curve" smooth="yes"/>
      <point x="801" y="88" type="line" smooth="yes"/>
      <point x="801" y="72"/>
      <point x="936" y="138"/>
      <point x="936" y="138" type="curve"/>
      <point x="936" y="436" type="line" smooth="yes"/>
      <point x="936" y="464"/>
      <point x="962" y="494"/>
    </contour>
    <contour>
      <point x="937" y="1069" type="curve"/>
      <point x="860" y="1127"/>
      <point x="742" y="1161"/>
      <point x="663" y="1161" type="curve" smooth="yes"/>
      <point x="333" y="1161"/>
      <point x="63" y="923"/>
      <point x="63" y="523" type="curve" smooth="yes"/>
      <point x="63" y="153"/>
      <point x="315" y="-27"/>
      <point x="556" y="-27" type="curve" smooth="yes"/>
      <point x="665" y="-27"/>
      <point x="757" y="-7"/>
      <point x="936" y="138" type="curve"/>
      <point x="928" y="147"/>
      <point x="875" y="167"/>
      <point x="860" y="175" type="curve"/>
      <point x="798" y="116"/>
      <point x="702" y="81"/>
      <point x="580" y="81" type="curve" smooth="yes"/>
      <point x="397" y="81"/>
      <point x="202" y="239"/>
      <point x="202" y="573" type="curve" smooth="yes"/>
      <point x="202" y="947"/>
      <point x="448" y="1062"/>
      <point x="538" y="1062" type="curve" smooth="yes"/>
      <point x="656" y="1062"/>
      <point x="742" y="1044"/>
      <point x="821" y="969" type="curve"/>
      <point x="851" y="963" type="line"/>
      <point x="882" y="991"/>
      <point x="954" y="1056"/>
    </contour>
  </outline>
</glyph>
<glyph name="H" format="2">
  <advance width="1205"/>
  <unicode hex="0048"/>
  <anchor x="243" y="0" name="H"/>
  <anchor x="594" y="1233" name="U"/>
  <outline>
    <contour>
      <point x="738" y="0" type="line"/>
      <point x="1143" y="0" type="line"/>
      <point x="1143" y="38" type="line"/>
      <point x="1056" y="54"/>
      <point x="1012" y="79"/>
      <point x="1012" y="93" type="curve" smooth="yes"/>
      <point x="1012" y="1039" type="line" smooth="yes"/>
      <point x="1012" y="1056"/>
      <point x="1062" y="1078"/>
      <point x="1143" y="1095" type="curve"/>
      <point x="1143" y="1134" type="line"/>
      <point x="738" y="1134" type="line"/>
      <point x="738" y="1095" type="line"/>
      <point x="824" y="1078"/>
      <point x="868" y="1053"/>
      <point x="868" y="1039" type="curve" smooth="yes"/>
      <point x="868" y="93" type="line" smooth="yes"/>
      <point x="868" y="77"/>
      <point x="819" y="54"/>
      <point x="738" y="38" type="curve"/>
    </contour>
    <contour>
      <point x="294" y="553" type="line"/>
      <point x="886" y="553" type="line"/>
      <point x="886" y="634" type="line"/>
      <point x="294" y="634" type="line"/>
    </contour>
    <contour>
      <point x="45" y="0" type="line"/>
      <point x="450" y="0" type="line"/>
      <point x="450" y="38" type="line"/>
      <point x="362" y="54"/>
      <point x="319" y="79"/>
      <point x="319" y="93" type="curve" smooth="yes"/>
      <point x="319" y="1039" type="line" smooth="yes"/>
      <point x="319" y="1056"/>
      <point x="369" y="1078"/>
      <point x="450" y="1095" type="curve"/>
      <point x="450" y="1134" type="line"/>
      <point x="45" y="1134" type="line"/>
      <point x="45" y="1095" type="line"/>
      <point x="131" y="1078"/>
      <point x="175" y="1053"/>
      <point x="175" y="1039" type="curve" smooth="yes"/>
      <point x="175" y="93" type="line" smooth="yes"/>
      <point x="175" y="77"/>
      <point x="126" y="54"/>
      <point x="45" y="38" type="curve"/>
    </contour>
  </outline>
</glyph>
<glyph name="I" format="2">
  <advance width="549"/>
  <unicode hex="0049"/>
  <anchor x="265" y="0" name="H"/>
  <anchor x="265" y="1233" name="U"/>
  <outline>
    <contour>
      <point x="63" y="0" type="line"/>
      <point x="468" y="0" type="line"/>
      <point x="468" y="38" type="line"/>
      <point x="381" y="54"/>
      <point x="337" y="79"/>
      <point x="337" y="93" type="curve" smooth="yes"/>
      <point x="337" y="1039" type="line" smooth="yes"/>
      <point x="337" y="1056"/>
      <point x="387" y="1078"/>
      <point x="468" y="1095" type="curve"/>
      <point x="468" y="1134" type="line"/>
      <point x="63" y="1134" type="line"/>
      <point x="63" y="1095" type="line"/>
      <point x="149" y="1078"/>
      <point x="193" y="1053"/>
      <point x="193" y="1039" type="curve" smooth="yes"/>
      <point x="193" y="93" type="line" smooth="yes"/>
      <point x="193" y="77"/>
      <point x="144" y="54"/>
      <point x="63" y="38" type="curve"/>
    </contour>
  </outline>
</glyph>
<glyph name="J" format="2">
  <advance width="562"/>
  <unicode hex="004A"/>
  <anchor x="297" y="1233" name="U"/>
  <outline>
    <contour>
      <point x="499" y="1095" type="curve"/>
      <point x="499" y="1134" type="line"/>
      <point x="49" y="1134" type="line"/>
      <point x="49" y="1095" type="line"/>
      <point x="193" y="1074"/>
      <point x="225" y="1053"/>
      <point x="225" y="1039" type="curve" smooth="yes"/>
      <point x="225" y="119" type="line" smooth="yes"/>
      <point x="225" y="-162"/>
      <point x="138" y="-231"/>
      <point x="75" y="-231" type="curve" smooth="yes"/>
      <point x="29" y="-231"/>
      <point x="0" y="-224"/>
      <point x="-66" y="-180" type="curve"/>
      <point x="-99" y="-192"/>
      <point x="-171" y="-250"/>
      <point x="-171" y="-270" type="curve" smooth="yes"/>
      <point x="-171" y="-290"/>
      <point x="-95" y="-342"/>
      <point x="-22" y="-342" type="curve" smooth="yes"/>
      <point x="24" y="-342"/>
      <point x="126" y="-311"/>
      <point x="189" y="-259" type="curve" smooth="yes"/>
      <point x="284" y="-182"/>
      <point x="369" y="-99"/>
      <point x="369" y="184" type="curve" smooth="yes"/>
      <point x="369" y="1039" type="line" smooth="yes"/>
      <point x="369" y="1056"/>
      <point x="418" y="1078"/>
    </contour>
  </outline>
</glyph>
<glyph name="K" format="2">
  <advance width="1090"/>
  <unicode hex="004B"/>
  <outline>
    <contour>
      <point x="1026" y="1086" type="curve"/>
      <point x="1026" y="1134" type="line"/>
      <point x="639" y="1134" type="line"/>
      <point x="639" y="1086" type="line"/>
      <point x="733" y="1078"/>
      <point x="753" y="1071"/>
      <point x="698" y="1006" type="curve" smooth="yes"/>
      <point x="335" y="578" type="line"/>
      <point x="461" y="578" type="line"/>
      <point x="877" y="1030" type="line" smooth="yes"/>
      <point x="914" y="1070"/>
      <point x="948" y="1076"/>
    </contour>
    <contour>
      <point x="1083" y="37" type="curve"/>
      <point x="1077" y="85" type="line"/>
      <point x="1015" y="78"/>
      <point x="961" y="79"/>
      <point x="920" y="125" type="curve" smooth="yes"/>
      <point x="447" y="648" type="line"/>
      <point x="335" y="578" type="line"/>
      <point x="784" y="26" type="line" smooth="yes"/>
      <point x="808" y="-3"/>
      <point x="833" y="-12"/>
      <point x="868" y="-12" type="curve" smooth="yes"/>
      <point x="926" y="-12"/>
      <point x="1013" y="15"/>
    </contour>
    <contour>
      <point x="42" y="0" type="line"/>
      <point x="470" y="0" type="line"/>
      <point x="470" y="47" type="line"/>
      <point x="382" y="63"/>
      <point x="342" y="88"/>
      <point x="342" y="102" type="curve" smooth="yes"/>
      <point x="342" y="1030" type="line" smooth="yes"/>
      <point x="342" y="1047"/>
      <point x="389" y="1069"/>
      <point x="470" y="1086" type="curve"/>
      <point x="470" y="1134" type="line"/>
      <point x="42" y="1134" type="line"/>
      <point x="42" y="1086" type="line"/>
      <point x="129" y="1069"/>
      <point x="171" y="1044"/>
      <point x="171" y="1030" type="curve" smooth="yes"/>
      <point x="171" y="102" type="line" smooth="yes"/>
      <point x="171" y="86"/>
      <point x="123" y="63"/>
      <point x="42" y="47" type="curve"/>
    </contour>
  </outline>
</glyph>
<glyph name="L" format="2">
  <advance width="877"/>
  <unicode hex="004C"/>
  <anchor x="447" y="0" name="H"/>
  <anchor x="420" y="1233" name="U"/>
  <outline>
    <contour>
      <point x="849" y="219" type="curve"/>
      <point x="810" y="235" type="line"/>
      <point x="759" y="95"/>
      <point x="726" y="81"/>
      <point x="615" y="81" type="curve" smooth="yes"/>
      <point x="486" y="81" type="line" smooth="yes"/>
      <point x="355" y="81"/>
      <point x="319" y="105"/>
      <point x="319" y="147" type="curve" smooth="yes"/>
      <point x="319" y="1039" type="line" smooth="yes"/>
      <point x="319" y="1056"/>
      <point x="369" y="1078"/>
      <point x="450" y="1095" type="curve"/>
      <point x="450" y="1134" type="line"/>
      <point x="45" y="1134" type="line"/>
      <point x="45" y="1095" type="line"/>
      <point x="131" y="1078"/>
      <point x="175" y="1053"/>
      <point x="175" y="1039" type="curve" smooth="yes"/>
      <point x="175" y="93" type="line" smooth="yes"/>
      <point x="175" y="77"/>
      <point x="126" y="54"/>
      <point x="45" y="38" type="curve"/>
      <point x="45" y="0" type="line"/>
      <point x="812" y="0" type="line"/>
      <point x="821" y="35"/>
      <point x="840" y="116"/>
    </contour>
  </outline>
</glyph>
<glyph name="M" format="2">
  <advance width="1485"/>
  <unicode hex="004D"/>
  <anchor x="1215" y="0" name="H"/>
  <anchor x="733" y="1233" name="U"/>
  <outline>
    <contour>
      <point x="1003" y="0" type="line"/>
      <point x="1413" y="0" type="line"/>
      <point x="1413" y="38" type="line"/>
      <point x="1326" y="54"/>
      <point x="1282" y="79"/>
      <point x="1282" y="93" type="curve" smooth="yes"/>
      <point x="1273" y="1092" type="line"/>
      <point x="1134" y="1041" type="line"/>
      <point x="1143" y="93" type="line" smooth="yes"/>
      <point x="1143" y="77"/>
      <point x="1084" y="54"/>
      <point x="1003" y="38" type="curve"/>
    </contour>
    <contour>
      <point x="1395" y="1095" type="curve"/>
      <point x="1395" y="1134" type="line"/>
      <point x="1137" y="1134" type="line" smooth="yes"/>
      <point x="1115" y="1134"/>
      <point x="1110" y="1130"/>
      <point x="1080" y="1058" type="curve" smooth="yes"/>
      <point x="731" y="235" type="line" smooth="yes"/>
      <point x="715" y="197"/>
      <point x="709" y="151"/>
      <point x="737" y="0" type="curve"/>
      <point x="740" y="0" type="line"/>
      <point x="1145" y="961" type="line" smooth="yes"/>
      <point x="1171" y="1023"/>
      <point x="1314" y="1095"/>
    </contour>
    <contour>
      <point x="740" y="237" type="curve" smooth="yes"/>
      <point x="378" y="1058" type="line" smooth="yes"/>
      <point x="349" y="1123"/>
      <point x="343" y="1134"/>
      <point x="320" y="1134" type="curve" smooth="yes"/>
      <point x="63" y="1134" type="line"/>
      <point x="63" y="1095" type="line"/>
      <point x="128" y="1095"/>
      <point x="238" y="1063"/>
      <point x="285" y="954" type="curve" smooth="yes"/>
      <point x="696" y="0" type="line"/>
      <point x="737" y="0" type="line"/>
      <point x="766" y="151"/>
      <point x="756" y="200"/>
    </contour>
    <contour>
      <point x="54" y="0" type="line"/>
      <point x="418" y="0" type="line"/>
      <point x="418" y="38" type="line"/>
      <point x="332" y="54"/>
      <point x="288" y="79"/>
      <point x="288" y="93" type="curve" smooth="yes"/>
      <point x="297" y="1098" type="line"/>
      <point x="193" y="1076" type="line"/>
      <point x="184" y="93" type="line" smooth="yes"/>
      <point x="184" y="77"/>
      <point x="135" y="54"/>
      <point x="54" y="38" type="curve"/>
    </contour>
  </outline>
</glyph>
<glyph name="N" format="2">
  <advance width="1205"/>
  <unicode hex="004E"/>
  <outline>
    <contour>
      <point x="1163" y="1086" type="curve"/>
      <point x="1163" y="1134" type="line"/>
      <point x="789" y="1134" type="line"/>
      <point x="789" y="1086" type="line"/>
      <point x="886" y="1072"/>
      <point x="918" y="1044"/>
      <point x="918" y="1030" type="curve" smooth="yes"/>
      <point x="918" y="63" type="line"/>
      <point x="1035" y="28" type="line"/>
      <point x="1035" y="1030" type="line" smooth="yes"/>
      <point x="1035" y="1047"/>
      <point x="1076" y="1074"/>
    </contour>
    <contour>
      <point x="1035" y="-27" type="curve"/>
      <point x="1035" y="114" type="line"/>
      <point x="1035" y="114"/>
      <point x="949" y="221"/>
      <point x="924" y="256" type="curve" smooth="yes"/>
      <point x="340" y="1063" type="line" smooth="yes"/>
      <point x="295" y="1125"/>
      <point x="288" y="1134"/>
      <point x="253" y="1134" type="curve" smooth="yes"/>
      <point x="42" y="1134" type="line"/>
      <point x="42" y="1086" type="line"/>
      <point x="105" y="1076"/>
      <point x="164" y="1043"/>
      <point x="214" y="974" type="curve" smooth="yes"/>
      <point x="891" y="34" type="line" smooth="yes"/>
      <point x="912" y="6"/>
      <point x="957" y="-19"/>
    </contour>
    <contour>
      <point x="42" y="0" type="line"/>
      <point x="416" y="0" type="line"/>
      <point x="416" y="47" type="line"/>
      <point x="323" y="60"/>
      <point x="288" y="88"/>
      <point x="288" y="102" type="curve" smooth="yes"/>
      <point x="288" y="1098" type="line"/>
      <point x="171" y="1067" type="line"/>
      <point x="171" y="102" type="line" smooth="yes"/>
      <point x="171" y="86"/>
      <point x="130" y="58"/>
      <point x="42" y="47" type="curve"/>
    </contour>
  </outline>
</glyph>
<glyph name="O" format="2">
  <advance width="1106"/>
  <unicode hex="004F"/>
  <anchor x="528" y="0" name="H"/>
  <anchor x="555" y="1233" name="U"/>
  <outline>
    <contour>
      <point x="519" y="-27" type="curve" smooth="yes"/>
      <point x="792" y="-27"/>
      <point x="1026" y="256"/>
      <point x="1026" y="582" type="curve" smooth="yes"/>
      <point x="1026" y="875"/>
      <point x="868" y="1161"/>
      <point x="571" y="1161" type="curve" smooth="yes"/>
      <point x="288" y="1161"/>
      <point x="64" y="877"/>
      <point x="64" y="550" type="curve" smooth="yes"/>
      <point x="64" y="248"/>
      <point x="230" y="-27"/>
    </contour>
    <contour>
      <point x="545" y="81" type="curve" smooth="yes"/>
      <point x="360" y="81"/>
      <point x="204" y="307"/>
      <point x="204" y="576" type="curve" smooth="yes"/>
      <point x="204" y="870"/>
      <point x="332" y="1057"/>
      <point x="545" y="1057" type="curve" smooth="yes"/>
      <point x="749" y="1057"/>
      <point x="886" y="814"/>
      <point x="886" y="566" type="curve" smooth="yes"/>
      <point x="886" y="248"/>
      <point x="744" y="81"/>
    </contour>
  </outline>
</glyph>
<glyph name="P" format="2">
  <advance width="963"/>
  <unicode hex="0050"/>
  <anchor x="459" y="1233" name="U"/>
  <outline>
    <contour>
      <point x="883" y="842" type="curve"/>
      <point x="883" y="1048"/>
      <point x="717" y="1161"/>
      <point x="459" y="1161" type="curve" smooth="yes"/>
      <point x="313" y="1161"/>
      <point x="153" y="1138"/>
      <point x="36" y="1107" type="curve"/>
      <point x="45" y="1051" type="line"/>
      <point x="161" y="1071"/>
      <point x="281" y="1085"/>
      <point x="407" y="1085" type="curve" smooth="yes"/>
      <point x="593" y="1085"/>
      <point x="744" y="1002"/>
      <point x="744" y="805" type="curve" smooth="yes"/>
      <point x="744" y="636"/>
      <point x="599" y="549"/>
      <point x="488" y="549" type="curve" smooth="yes"/>
      <point x="446" y="549"/>
      <point x="399" y="553"/>
      <point x="350" y="576" type="curve"/>
      <point x="370" y="508" type="line"/>
      <point x="411" y="490"/>
      <point x="460" y="481"/>
      <point x="515" y="481" type="curve" smooth="yes"/>
      <point x="656" y="481"/>
      <point x="883" y="593"/>
    </contour>
    <contour>
      <point x="45" y="0" type="line"/>
      <point x="477" y="0" type="line"/>
      <point x="477" y="38" type="line"/>
      <point x="351" y="59"/>
      <point x="319" y="79"/>
      <point x="319" y="93" type="curve" smooth="yes"/>
      <point x="319" y="1089" type="line"/>
      <point x="175" y="1089" type="line"/>
      <point x="175" y="93" type="line" smooth="yes"/>
      <point x="175" y="77"/>
      <point x="126" y="54"/>
      <point x="45" y="38" type="curve"/>
    </contour>
  </outline>
</glyph>
<glyph name="R" format="2">
  <advance width="1061"/>
  <unicode hex="0052"/>
  <outline>
    <contour>
      <point x="865" y="888" type="curve"/>
      <point x="865" y="1043"/>
      <point x="733" y="1161"/>
      <point x="440" y="1161" type="curve" smooth="yes"/>
      <point x="277" y="1161"/>
      <point x="150" y="1134"/>
      <point x="33" y="1107" type="curve"/>
      <point x="42" y="1042" type="line"/>
      <point x="166" y="1061"/>
      <point x="299" y="1078"/>
      <point x="404" y="1078" type="curve" smooth="yes"/>
      <point x="616" y="1078"/>
      <point x="697" y="985"/>
      <point x="697" y="860" type="curve" smooth="yes"/>
      <point x="697" y="706"/>
      <point x="602" y="620"/>
      <point x="422" y="620" type="curve" smooth="yes"/>
      <point x="391" y="620"/>
      <point x="368" y="621"/>
      <point x="325" y="629" type="curve"/>
      <point x="331" y="548" type="line"/>
      <point x="368" y="539"/>
      <point x="404" y="535"/>
      <point x="437" y="535" type="curve" smooth="yes"/>
      <point x="674" y="535"/>
      <point x="865" y="657"/>
    </contour>
    <contour>
      <point x="1056" y="37" type="curve"/>
      <point x="1045" y="85" type="line"/>
      <point x="964" y="78"/>
      <point x="925" y="86"/>
      <point x="889" y="138" type="curve" smooth="yes"/>
      <point x="580" y="610" type="line"/>
      <point x="473" y="550" type="line"/>
      <point x="748" y="36" type="line" smooth="yes"/>
      <point x="765" y="9"/>
      <point x="802" y="-12"/>
      <point x="837" y="-12" type="curve" smooth="yes"/>
      <point x="883" y="-12"/>
      <point x="977" y="11"/>
    </contour>
    <contour>
      <point x="42" y="0" type="line"/>
      <point x="470" y="0" type="line"/>
      <point x="470" y="47" type="line"/>
      <point x="382" y="63"/>
      <point x="342" y="88"/>
      <point x="342" y="102" type="curve" smooth="yes"/>
      <point x="342" y="1092" type="line"/>
      <point x="171" y="1092" type="line"/>
      <point x="171" y="102" type="line" smooth="yes"/>
      <point x="171" y="86"/>
      <point x="123" y="63"/>
      <point x="42" y="47" type="curve"/>
    </contour>
  </outline>
</glyph>
<glyph name="S" format="2">
  <advance width="877"/>
  <unicode hex="0053"/>
  <anchor x="432" y="0" name="H"/>
  <anchor x="450" y="1233" name="U"/>
  <outline>
    <contour>
      <point x="670" y="958" type="line"/>
      <point x="700" y="984"/>
      <point x="757" y="1063"/>
      <point x="740" y="1078" type="curve"/>
      <point x="696" y="1125"/>
      <point x="582" y="1161"/>
      <point x="473" y="1161" type="curve" smooth="yes"/>
      <point x="209" y="1161"/>
      <point x="114" y="982"/>
      <point x="114" y="870" type="curve" smooth="yes"/>
      <point x="114" y="522"/>
      <point x="675" y="584"/>
      <point x="675" y="291" type="curve" smooth="yes"/>
      <point x="675" y="177"/>
      <point x="554" y="81"/>
      <point x="446" y="81" type="curve" smooth="yes"/>
      <point x="324" y="81"/>
      <point x="209" y="145"/>
      <point x="154" y="287" type="curve"/>
      <point x="117" y="291" type="line"/>
      <point x="99" y="226"/>
      <point x="101" y="70"/>
      <point x="117" y="61" type="curve" smooth="yes"/>
      <point x="202" y="7"/>
      <point x="316" y="-27"/>
      <point x="396" y="-27" type="curve" smooth="yes"/>
      <point x="666" y="-27"/>
      <point x="796" y="179"/>
      <point x="796" y="339" type="curve" smooth="yes"/>
      <point x="796" y="694"/>
      <point x="231" y="685"/>
      <point x="231" y="912" type="curve" smooth="yes"/>
      <point x="231" y="981"/>
      <point x="287" y="1070"/>
      <point x="420" y="1070" type="curve" smooth="yes"/>
      <point x="488" y="1070"/>
      <point x="571" y="1043"/>
      <point x="638" y="963" type="curve"/>
    </contour>
  </outline>
</glyph>
<glyph name="T" format="2">
  <advance width="1015"/>
  <unicode hex="0054"/>
  <anchor x="495" y="0" name="H"/>
  <anchor x="491" y="1233" name="U"/>
  <outline>
    <contour>
      <point x="974" y="1111" type="curve"/>
      <point x="947" y="1134" type="line"/>
      <point x="492" y="1134" type="line"/>
      <point x="466" y="1053" type="line"/>
      <point x="823" y="1053" type="line" smooth="yes"/>
      <point x="874" y="1053"/>
      <point x="883" y="1011"/>
      <point x="907" y="900" type="curve"/>
      <point x="947" y="900" type="line"/>
      <point x="962" y="975"/>
      <point x="972" y="1050"/>
    </contour>
    <contour>
      <point x="154" y="1053" type="curve" smooth="yes"/>
      <point x="628" y="1053" type="line"/>
      <point x="603" y="1134" type="line"/>
      <point x="38" y="1134" type="line"/>
      <point x="26" y="1071"/>
      <point x="14" y="982"/>
      <point x="9" y="912" type="curve"/>
      <point x="47" y="895" type="line"/>
      <point x="101" y="1035"/>
      <point x="117" y="1053"/>
    </contour>
    <contour>
      <point x="276" y="0" type="line"/>
      <point x="715" y="0" type="line"/>
      <point x="715" y="38" type="line"/>
      <point x="604" y="61"/>
      <point x="567" y="88"/>
      <point x="567" y="103" type="curve" smooth="yes"/>
      <point x="567" y="1059" type="line" smooth="yes"/>
      <point x="567" y="1075"/>
      <point x="615" y="1078"/>
      <point x="696" y="1095" type="curve"/>
      <point x="696" y="1134" type="line"/>
      <point x="293" y="1134" type="line"/>
      <point x="293" y="1095" type="line"/>
      <point x="379" y="1078"/>
      <point x="423" y="1073"/>
      <point x="423" y="1059" type="curve" smooth="yes"/>
      <point x="423" y="103" type="line" smooth="yes"/>
      <point x="423" y="86"/>
      <point x="387" y="61"/>
      <point x="276" y="38" type="curve"/>
    </contour>
  </outline>
</glyph>
<glyph name="U" format="2">
  <advance width="1205"/>
  <unicode hex="0055"/>
  <anchor x="609" y="0" name="H"/>
  <anchor x="609" y="1233" name="U"/>
  <outline>
    <contour>
      <point x="1147" y="1095" type="curve"/>
      <point x="1147" y="1134" type="line"/>
      <point x="769" y="1134" type="line"/>
      <point x="769" y="1095" type="line"/>
      <point x="855" y="1078"/>
      <point x="900" y="1053"/>
      <point x="900" y="1039" type="curve" smooth="yes"/>
      <point x="900" y="434" type="line" smooth="yes"/>
      <point x="900" y="256"/>
      <point x="805" y="76"/>
      <point x="634" y="76" type="curve" smooth="yes"/>
      <point x="429" y="76"/>
      <point x="319" y="214"/>
      <point x="319" y="444" type="curve" smooth="yes"/>
      <point x="319" y="1039" type="line" smooth="yes"/>
      <point x="319" y="1056"/>
      <point x="369" y="1078"/>
      <point x="450" y="1095" type="curve"/>
      <point x="450" y="1134" type="line"/>
      <point x="45" y="1134" type="line"/>
      <point x="45" y="1095" type="line"/>
      <point x="131" y="1078"/>
      <point x="175" y="1053"/>
      <point x="175" y="1039" type="curve" smooth="yes"/>
      <point x="175" y="399" type="line" smooth="yes"/>
      <point x="175" y="107"/>
      <point x="351" y="-27"/>
      <point x="599" y="-27" type="curve" smooth="yes"/>
      <point x="858" y="-27"/>
      <point x="1017" y="156"/>
      <point x="1017" y="471" type="curve" smooth="yes"/>
      <point x="1017" y="1039" type="line" smooth="yes"/>
      <point x="1017" y="1056"/>
      <point x="1066" y="1078"/>
    </contour>
  </outline>
</glyph>
<glyph name="V" format="2">
  <advance width="1206"/>
  <unicode hex="0056"/>
  <anchor x="588" y="0" name="H"/>
  <anchor x="603" y="1233" name="U"/>
  <outline>
    <contour>
      <point x="1172" y="1086" type="curve"/>
      <point x="1172" y="1134" type="line"/>
      <point x="793" y="1134" type="line"/>
      <point x="793" y="1086" type="line"/>
      <point x="891" y="1074"/>
      <point x="929" y="1062"/>
      <point x="916" y="1026" type="curve" smooth="yes"/>
      <point x="625" y="207" type="line"/>
      <point x="316" y="1028" type="line" smooth="yes"/>
      <point x="303" y="1062"/>
      <point x="334" y="1079"/>
      <point x="429" y="1086" type="curve"/>
      <point x="429" y="1134" type="line"/>
      <point x="15" y="1134" type="line"/>
      <point x="15" y="1086" type="line"/>
      <point x="91" y="1076"/>
      <point x="129" y="1058"/>
      <point x="141" y="1026" type="curve" smooth="yes"/>
      <point x="541" y="-27" type="line"/>
      <point x="582" y="-17"/>
      <point x="671" y="6"/>
      <point x="690" y="59" type="curve" smooth="yes"/>
      <point x="1032" y="1026" type="line"/>
      <point x="1044" y="1060"/>
      <point x="1091" y="1071"/>
    </contour>
  </outline>
</glyph>
<glyph name="W" format="2">
  <advance width="1566"/>
  <unicode hex="0057"/>
  <anchor x="779" y="1233" name="U"/>
  <outline>
    <contour>
      <point x="1540" y="1086" type="curve"/>
      <point x="1540" y="1134" type="line"/>
      <point x="1152" y="1134" type="line"/>
      <point x="1152" y="1086" type="line"/>
      <point x="1233" y="1072"/>
      <point x="1296" y="1058"/>
      <point x="1291" y="1030" type="curve"/>
      <point x="1130" y="265" type="line"/>
      <point x="817" y="1134" type="line"/>
      <point x="754" y="1134" type="line"/>
      <point x="472" y="265" type="line"/>
      <point x="301" y="1023" type="line" smooth="yes"/>
      <point x="296" y="1049"/>
      <point x="305" y="1074"/>
      <point x="422" y="1086" type="curve"/>
      <point x="422" y="1134" type="line"/>
      <point x="18" y="1134" type="line"/>
      <point x="18" y="1086" type="line"/>
      <point x="103" y="1071"/>
      <point x="135" y="1053"/>
      <point x="142" y="1023" type="curve" smooth="yes"/>
      <point x="376" y="-27" type="line"/>
      <point x="424" y="-16"/>
      <point x="497" y="1"/>
      <point x="514" y="53" type="curve" smooth="yes"/>
      <point x="772" y="829" type="line"/>
      <point x="1070" y="-27" type="line"/>
      <point x="1107" y="-18"/>
      <point x="1187" y="1"/>
      <point x="1197" y="53" type="curve" smooth="yes"/>
      <point x="1404" y="1030" type="line" smooth="yes"/>
      <point x="1407" y="1049"/>
      <point x="1434" y="1064"/>
    </contour>
  </outline>
</glyph>
<glyph name="X" format="2">
  <advance width="1134"/>
  <unicode hex="0058"/>
  <anchor x="567" y="1233" name="U"/>
  <outline>
    <contour>
      <point x="1062" y="1095" type="curve"/>
      <point x="1062" y="1134" type="line"/>
      <point x="654" y="1134" type="line"/>
      <point x="654" y="1095" type="line"/>
      <point x="761" y="1087"/>
      <point x="805" y="1072"/>
      <point x="772" y="1019" type="curve" smooth="yes"/>
      <point x="520" y="613" type="line"/>
      <point x="564" y="481" type="line"/>
      <point x="897" y="1019" type="line" smooth="yes"/>
      <point x="928" y="1071"/>
      <point x="974" y="1085"/>
    </contour>
    <contour>
      <point x="700" y="0" type="line"/>
      <point x="1106" y="0" type="line"/>
      <point x="1106" y="38" type="line"/>
      <point x="1035" y="47"/>
      <point x="999" y="63"/>
      <point x="963" y="114" type="curve" smooth="yes"/>
      <point x="346" y="1019" type="line" smooth="yes"/>
      <point x="310" y="1071"/>
      <point x="341" y="1085"/>
      <point x="442" y="1095" type="curve"/>
      <point x="442" y="1134" type="line"/>
      <point x="36" y="1134" type="line"/>
      <point x="36" y="1095" type="line"/>
      <point x="116" y="1083"/>
      <point x="141" y="1072"/>
      <point x="177" y="1019" type="curve" smooth="yes"/>
      <point x="794" y="114" type="line" smooth="yes"/>
      <point x="828" y="65"/>
      <point x="805" y="49"/>
      <point x="700" y="38" type="curve"/>
    </contour>
    <contour>
      <point x="316" y="114" type="curve" smooth="yes"/>
      <point x="567" y="520" type="line"/>
      <point x="536" y="676" type="line"/>
      <point x="191" y="114" type="line" smooth="yes"/>
      <point x="161" y="64"/>
      <point x="105" y="44"/>
      <point x="27" y="38" type="curve"/>
      <point x="27" y="0" type="line"/>
      <point x="432" y="0" type="line"/>
      <point x="432" y="38" type="line"/>
      <point x="322" y="45"/>
      <point x="283" y="61"/>
    </contour>
  </outline>
</glyph>
<glyph name="Y" format="2">
  <advance width="1106"/>
  <unicode hex="0059"/>
  <anchor x="550" y="1233" name="U"/>
  <outline>
    <contour>
      <point x="1071" y="1086" type="curve"/>
      <point x="1071" y="1134" type="line"/>
      <point x="708" y="1134" type="line"/>
      <point x="708" y="1086" type="line"/>
      <point x="801" y="1074"/>
      <point x="826" y="1058"/>
      <point x="808" y="1026" type="curve" smooth="yes"/>
      <point x="577" y="611" type="line"/>
      <point x="494" y="784"/>
      <point x="377" y="988"/>
      <point x="287" y="1105" type="curve" smooth="yes"/>
      <point x="268" y="1130"/>
      <point x="238" y="1143"/>
      <point x="210" y="1143" type="curve" smooth="yes"/>
      <point x="161" y="1143"/>
      <point x="70" y="1131"/>
      <point x="0" y="1121" type="curve"/>
      <point x="3" y="1074" type="line"/>
      <point x="103" y="1074"/>
      <point x="126" y="1053"/>
      <point x="148" y="1026" type="curve"/>
      <point x="238" y="904"/>
      <point x="399" y="637"/>
      <point x="483" y="437" type="curve"/>
      <point x="612" y="437" type="line"/>
      <point x="933" y="1026" type="line" smooth="yes"/>
      <point x="950" y="1057"/>
      <point x="990" y="1071"/>
    </contour>
    <contour>
      <point x="319" y="0" type="line"/>
      <point x="783" y="0" type="line"/>
      <point x="783" y="47" type="line"/>
      <point x="670" y="70"/>
      <point x="635" y="97"/>
      <point x="635" y="112" type="curve" smooth="yes"/>
      <point x="635" y="573" type="line"/>
      <point x="464" y="573" type="line"/>
      <point x="464" y="112" type="line" smooth="yes"/>
      <point x="464" y="95"/>
      <point x="428" y="70"/>
      <point x="319" y="47" type="curve"/>
    </contour>
  </outline>
</glyph>
<glyph name="Z" format="2">
  <advance width="977"/>
  <unicode hex="005A"/>
  <outline>
    <contour>
      <point x="907" y="281" type="curve"/>
      <point x="849" y="296" type="line"/>
      <point x="803" y="148"/>
      <point x="777" y="99"/>
      <point x="725" y="99" type="curve" smooth="yes"/>
      <point x="275" y="99" type="line"/>
      <point x="898" y="1093" type="line"/>
      <point x="873" y="1134" type="line"/>
      <point x="303" y="1134" type="line" smooth="yes"/>
      <point x="233" y="1134"/>
      <point x="198" y="1134"/>
      <point x="132" y="1148" type="curve"/>
      <point x="104" y="859" type="line"/>
      <point x="164" y="846" type="line"/>
      <point x="190" y="971"/>
      <point x="247" y="1035"/>
      <point x="286" y="1035" type="curve" smooth="yes"/>
      <point x="679" y="1035" type="line"/>
      <point x="50" y="42" type="line"/>
      <point x="79" y="0" type="line"/>
      <point x="896" y="0" type="line"/>
      <point x="898" y="70"/>
      <point x="904" y="204"/>
    </contour>
  </outline>
</glyph>
<glyph name="bracketleft" format="2">
  <advance width="585"/>
  <unicode hex="005B"/>
  <outline>
    <contour>
      <point x="553" y="-217" type="curve"/>
      <point x="519" y="-189" type="line"/>
      <point x="274" y="-189" type="line"/>
      <point x="274" y="1327" type="line"/>
      <point x="525" y="1327" type="line"/>
      <point x="532" y="1341"/>
      <point x="546" y="1384"/>
      <point x="551" y="1414" type="curve"/>
      <point x="519" y="1440" type="line"/>
      <point x="121" y="1440" type="line"/>
      <point x="121" y="-301" type="line"/>
      <point x="525" y="-301" type="line"/>
      <point x="534" y="-280"/>
      <point x="548" y="-240"/>
    </contour>
  </outline>
</glyph>
<glyph name="backslash" format="2">
  <advance width="864"/>
  <unicode hex="005C"/>
  <outline>
    <contour>
      <point x="783" y="-301" type="curve"/>
      <point x="814" y="-279" type="line"/>
      <point x="184" y="1395" type="line"/>
      <point x="151" y="1416"/>
      <point x="117" y="1431"/>
      <point x="82" y="1440" type="curve"/>
      <point x="49" y="1420" type="line"/>
      <point x="680" y="-255" type="line"/>
      <point x="702" y="-271"/>
      <point x="754" y="-292"/>
    </contour>
  </outline>
</glyph>
<glyph name="bracketright" format="2">
  <advance width="567"/>
  <unicode hex="005D"/>
  <outline>
    <contour>
      <point x="65" y="-301" type="line"/>
      <point x="463" y="-301" type="line"/>
      <point x="463" y="1440" type="line"/>
      <point x="58" y="1440" type="line"/>
      <point x="50" y="1419"/>
      <point x="35" y="1379"/>
      <point x="31" y="1353" type="curve"/>
      <point x="65" y="1327" type="line"/>
      <point x="310" y="1327" type="line"/>
      <point x="310" y="-189" type="line"/>
      <point x="58" y="-189" type="line"/>
      <point x="50" y="-204"/>
      <point x="37" y="-245"/>
      <point x="33" y="-273" type="curve"/>
    </contour>
  </outline>
</glyph>
<glyph name="asciicircum" format="2">
  <advance width="907"/>
  <unicode hex="005E"/>
  <outline>
    <contour>
      <point x="816" y="571" type="curve"/>
      <point x="499" y="1395" type="line"/>
      <point x="466" y="1378"/>
      <point x="409" y="1343"/>
      <point x="379" y="1315" type="curve"/>
      <point x="90" y="532" type="line"/>
      <point x="110" y="508" type="line"/>
      <point x="135" y="520"/>
      <point x="182" y="547"/>
      <point x="207" y="571" type="curve"/>
      <point x="432" y="1183" type="line"/>
      <point x="687" y="532" type="line"/>
      <point x="720" y="508" type="line"/>
      <point x="761" y="527"/>
      <point x="786" y="543"/>
    </contour>
  </outline>
</glyph>
<glyph name="underscore" format="2">
  <advance width="724"/>
  <unicode hex="005F"/>
  <outline>
    <contour>
      <point x="753" y="-142" type="curve"/>
      <point x="730" y="-117" type="line"/>
      <point x="5" y="-117" type="line"/>
      <point x="-4" y="-141"/>
      <point x="-20" y="-180"/>
      <point x="-26" y="-204" type="curve"/>
      <point x="-1" y="-230" type="line"/>
      <point x="722" y="-230" type="line"/>
      <point x="732" y="-208"/>
      <point x="747" y="-167"/>
    </contour>
  </outline>
</glyph>
<glyph name="grave" format="2">
  <advance width="587"/>
  <unicode hex="0060"/>
  <anchor x="294" y="1269" name="U"/>
  <outline>
    <contour>
      <point x="394" y="970" type="curve"/>
      <point x="178" y="1340" type="line"/>
      <point x="148" y="1337"/>
      <point x="70" y="1323"/>
      <point x="46" y="1318" type="curve"/>
      <point x="27" y="1281" type="line"/>
      <point x="343" y="942" type="line"/>
      <point x="364" y="948"/>
      <point x="383" y="961"/>
    </contour>
  </outline>
</glyph>
<glyph name="a" format="2">
  <advance width="846"/>
  <unicode hex="0061"/>
  <anchor x="401" y="0" name="H"/>
  <anchor x="432" y="945" name="U"/>
  <outline>
    <contour>
      <point x="833" y="73" type="curve"/>
      <point x="819" y="114" type="line"/>
      <point x="772" y="94"/>
      <point x="748" y="90"/>
      <point x="731" y="90" type="curve" smooth="yes"/>
      <point x="710" y="90"/>
      <point x="695" y="109"/>
      <point x="695" y="160" type="curve" smooth="yes"/>
      <point x="695" y="667" type="line" smooth="yes"/>
      <point x="695" y="791"/>
      <point x="621" y="864"/>
      <point x="489" y="864" type="curve" smooth="yes"/>
      <point x="337" y="864"/>
      <point x="152" y="755"/>
      <point x="97" y="635" type="curve"/>
      <point x="109" y="600" type="line"/>
      <point x="139" y="593"/>
      <point x="265" y="629"/>
      <point x="262" y="651" type="curve" smooth="yes"/>
      <point x="255" y="723"/>
      <point x="332" y="772"/>
      <point x="409" y="774" type="curve" smooth="yes"/>
      <point x="527" y="777"/>
      <point x="560" y="712"/>
      <point x="560" y="631" type="curve" smooth="yes"/>
      <point x="560" y="147" type="line" smooth="yes"/>
      <point x="560" y="40"/>
      <point x="589" y="-27"/>
      <point x="631" y="-27" type="curve" smooth="yes"/>
      <point x="665" y="-27"/>
      <point x="731" y="3"/>
    </contour>
    <contour>
      <point x="569" y="439" type="curve"/>
      <point x="569" y="506" type="line"/>
      <point x="286" y="465"/>
      <point x="211" y="419"/>
      <point x="153" y="360" type="curve" smooth="yes"/>
      <point x="108" y="316"/>
      <point x="72" y="259"/>
      <point x="72" y="167" type="curve" smooth="yes"/>
      <point x="72" y="27"/>
      <point x="177" y="-27"/>
      <point x="263" y="-27" type="curve" smooth="yes"/>
      <point x="344" y="-27"/>
      <point x="464" y="24"/>
      <point x="576" y="145" type="curve"/>
      <point x="569" y="212" type="line"/>
      <point x="475" y="128"/>
      <point x="390" y="90"/>
      <point x="316" y="90" type="curve" smooth="yes"/>
      <point x="285" y="90"/>
      <point x="219" y="110"/>
      <point x="219" y="206" type="curve" smooth="yes"/>
      <point x="219" y="261"/>
      <point x="241" y="302"/>
      <point x="271" y="334" type="curve" smooth="yes"/>
      <point x="311" y="376"/>
      <point x="361" y="405"/>
    </contour>
  </outline>
</glyph>
<glyph name="b" format="2">
  <advance width="936"/>
  <unicode hex="0062"/>
  <anchor x="431" y="0" name="H"/>
  <anchor x="468" y="1458" name="U"/>
  <outline>
    <contour>
      <point x="855" y="442" type="curve"/>
      <point x="855" y="705"/>
      <point x="737" y="864"/>
      <point x="573" y="864" type="curve" smooth="yes"/>
      <point x="504" y="864"/>
      <point x="380" y="798"/>
      <point x="261" y="654" type="curve"/>
      <point x="261" y="1364" type="line"/>
      <point x="251" y="1374"/>
      <point x="239" y="1385"/>
      <point x="227" y="1395" type="curve"/>
      <point x="159" y="1358"/>
      <point x="87" y="1341"/>
      <point x="9" y="1323" type="curve"/>
      <point x="9" y="1287" type="line"/>
      <point x="107" y="1275"/>
      <point x="126" y="1272"/>
      <point x="126" y="1166" type="curve" smooth="yes"/>
      <point x="126" y="86" type="line"/>
      <point x="255" y="14"/>
      <point x="376" y="-27"/>
      <point x="422" y="-27" type="curve" smooth="yes"/>
      <point x="687" y="-27"/>
      <point x="855" y="234"/>
    </contour>
    <contour>
      <point x="733" y="367" type="curve"/>
      <point x="733" y="228"/>
      <point x="656" y="90"/>
      <point x="510" y="90" type="curve" smooth="yes"/>
      <point x="468" y="90"/>
      <point x="356" y="110"/>
      <point x="261" y="182" type="curve"/>
      <point x="261" y="549" type="line"/>
      <point x="361" y="698"/>
      <point x="468" y="742"/>
      <point x="510" y="742" type="curve" smooth="yes"/>
      <point x="626" y="742"/>
      <point x="733" y="606"/>
    </contour>
  </outline>
</glyph>
<glyph name="c" format="2">
  <advance width="805"/>
  <unicode hex="0063"/>
  <anchor x="441" y="0" name="H"/>
  <anchor x="441" y="945" name="U"/>
  <outline>
    <contour>
      <point x="756" y="171" type="curve"/>
      <point x="720" y="207" type="line"/>
      <point x="587" y="93"/>
      <point x="550" y="90"/>
      <point x="483" y="90" type="curve" smooth="yes"/>
      <point x="339" y="90"/>
      <point x="207" y="223"/>
      <point x="207" y="427" type="curve" smooth="yes"/>
      <point x="207" y="652"/>
      <point x="324" y="765"/>
      <point x="450" y="765" type="curve" smooth="yes"/>
      <point x="573" y="765"/>
      <point x="638" y="696"/>
      <point x="657" y="654" type="curve"/>
      <point x="691" y="645" type="line"/>
      <point x="713" y="678"/>
      <point x="747" y="763"/>
      <point x="742" y="792" type="curve"/>
      <point x="702" y="835"/>
      <point x="610" y="864"/>
      <point x="531" y="864" type="curve" smooth="yes"/>
      <point x="272" y="864"/>
      <point x="72" y="657"/>
      <point x="72" y="399" type="curve" smooth="yes"/>
      <point x="72" y="132"/>
      <point x="243" y="-27"/>
      <point x="418" y="-27" type="curve" smooth="yes"/>
      <point x="531" y="-27"/>
      <point x="599" y="-12"/>
    </contour>
  </outline>
</glyph>
<glyph name="d" format="2">
  <advance width="958"/>
  <unicode hex="0064"/>
  <anchor x="502" y="0" name="H"/>
  <anchor x="472" y="1521" name="U"/>
  <outline>
    <contour>
      <point x="945" y="75" type="curve"/>
      <point x="934" y="114" type="line"/>
      <point x="862" y="86"/>
      <point x="836" y="81"/>
      <point x="826" y="95" type="curve" smooth="yes"/>
      <point x="813" y="112"/>
      <point x="805" y="144"/>
      <point x="805" y="228" type="curve" smooth="yes"/>
      <point x="805" y="1368" type="line"/>
      <point x="777" y="1395" type="line"/>
      <point x="715" y="1374"/>
      <point x="638" y="1349"/>
      <point x="540" y="1336" type="curve"/>
      <point x="540" y="1301" type="line"/>
      <point x="666" y="1292"/>
      <point x="670" y="1278"/>
      <point x="670" y="1146" type="curve" smooth="yes"/>
      <point x="670" y="244" type="line" smooth="yes"/>
      <point x="670" y="44"/>
      <point x="698" y="-27"/>
      <point x="746" y="-27" type="curve" smooth="yes"/>
      <point x="779" y="-27"/>
      <point x="835" y="1"/>
    </contour>
    <contour>
      <point x="737" y="234" type="curve"/>
      <point x="731" y="243"/>
      <point x="719" y="260"/>
      <point x="703" y="267" type="curve"/>
      <point x="619" y="186"/>
      <point x="532" y="90"/>
      <point x="438" y="90" type="curve" smooth="yes"/>
      <point x="339" y="90"/>
      <point x="207" y="223"/>
      <point x="207" y="427" type="curve" smooth="yes"/>
      <point x="207" y="652"/>
      <point x="315" y="765"/>
      <point x="468" y="765" type="curve" smooth="yes"/>
      <point x="558" y="765"/>
      <point x="639" y="720"/>
      <point x="676" y="645" type="curve"/>
      <point x="715" y="668"/>
      <point x="729" y="684"/>
      <point x="729" y="756" type="curve"/>
      <point x="636" y="849"/>
      <point x="567" y="864"/>
      <point x="495" y="864" type="curve" smooth="yes"/>
      <point x="244" y="864"/>
      <point x="72" y="606"/>
      <point x="72" y="399" type="curve" smooth="yes"/>
      <point x="72" y="132"/>
      <point x="241" y="-27"/>
      <point x="374" y="-27" type="curve" smooth="yes"/>
      <point x="525" y="-27"/>
      <point x="615" y="75"/>
    </contour>
  </outline>
</glyph>
<glyph name="e" format="2">
  <advance width="851"/>
  <unicode hex="0065"/>
  <anchor x="450" y="0" name="H"/>
  <anchor x="459" y="945" name="U"/>
  <outline>
    <contour>
      <point x="779" y="501" type="curve"/>
      <point x="779" y="654"/>
      <point x="707" y="864"/>
      <point x="471" y="864" type="curve" smooth="yes"/>
      <point x="407" y="864"/>
      <point x="324" y="829"/>
      <point x="270" y="792" type="curve" smooth="yes"/>
      <point x="145" y="707"/>
      <point x="72" y="552"/>
      <point x="72" y="390" type="curve" smooth="yes"/>
      <point x="72" y="136"/>
      <point x="234" y="-27"/>
      <point x="418" y="-27" type="curve" smooth="yes"/>
      <point x="541" y="-27"/>
      <point x="613" y="0"/>
      <point x="774" y="175" type="curve"/>
      <point x="768" y="184"/>
      <point x="756" y="204"/>
      <point x="740" y="212" type="curve"/>
      <point x="606" y="101"/>
      <point x="549" y="90"/>
      <point x="473" y="90" type="curve" smooth="yes"/>
      <point x="307" y="90"/>
      <point x="207" y="258"/>
      <point x="207" y="447" type="curve" smooth="yes"/>
      <point x="207" y="631"/>
      <point x="302" y="769"/>
      <point x="446" y="769" type="curve" smooth="yes"/>
      <point x="603" y="769"/>
      <point x="631" y="619"/>
      <point x="631" y="554" type="curve" smooth="yes"/>
      <point x="631" y="529"/>
      <point x="624" y="522"/>
      <point x="597" y="522" type="curve" smooth="yes"/>
      <point x="165" y="522" type="line"/>
      <point x="163" y="441" type="line"/>
      <point x="680" y="441" type="line"/>
      <point x="719" y="456"/>
      <point x="757" y="477"/>
    </contour>
  </outline>
</glyph>
<glyph name="f" format="2">
  <advance width="573"/>
  <unicode hex="0066"/>
  <anchor x="247" y="0" name="H"/>
  <anchor x="378" y="1458" name="U"/>
  <outline>
    <contour>
      <point x="735" y="1308" type="curve"/>
      <point x="735" y="1329"/>
      <point x="639" y="1395"/>
      <point x="566" y="1395" type="curve" smooth="yes"/>
      <point x="520" y="1395"/>
      <point x="423" y="1364"/>
      <point x="359" y="1312" type="curve" smooth="yes"/>
      <point x="263" y="1234"/>
      <point x="180" y="1148"/>
      <point x="180" y="864" type="curve" smooth="yes"/>
      <point x="180" y="837" type="line"/>
      <point x="110" y="837" type="line"/>
      <point x="40" y="776" type="line"/>
      <point x="59" y="751" type="line"/>
      <point x="180" y="751" type="line"/>
      <point x="180" y="91" type="line" smooth="yes"/>
      <point x="180" y="77"/>
      <point x="135" y="53"/>
      <point x="54" y="38" type="curve"/>
      <point x="54" y="0" type="line"/>
      <point x="503" y="0" type="line"/>
      <point x="503" y="38" type="line"/>
      <point x="362" y="64"/>
      <point x="315" y="77"/>
      <point x="315" y="91" type="curve" smooth="yes"/>
      <point x="315" y="751" type="line"/>
      <point x="411" y="751"/>
      <point x="457" y="734"/>
      <point x="485" y="720" type="curve"/>
      <point x="506" y="730"/>
      <point x="550" y="777"/>
      <point x="573" y="810" type="curve"/>
      <point x="547" y="837" type="line"/>
      <point x="315" y="837" type="line"/>
      <point x="315" y="914" type="line" smooth="yes"/>
      <point x="315" y="1211"/>
      <point x="405" y="1282"/>
      <point x="468" y="1282" type="curve" smooth="yes"/>
      <point x="499" y="1282"/>
      <point x="564" y="1259"/>
      <point x="621" y="1208" type="curve"/>
      <point x="656" y="1225"/>
      <point x="735" y="1288"/>
    </contour>
  </outline>
</glyph>
<glyph name="g" format="2">
  <advance width="899"/>
  <unicode hex="0067"/>
  <anchor x="450" y="-423" name="H"/>
  <anchor x="450" y="945" name="U"/>
  <outline>
    <contour>
      <point x="873" y="-108" type="curve" smooth="yes"/>
      <point x="873" y="-23"/>
      <point x="803" y="70"/>
      <point x="541" y="99" type="curve"/>
      <point x="353" y="121"/>
      <point x="311" y="147"/>
      <point x="311" y="176" type="curve" smooth="yes"/>
      <point x="311" y="186"/>
      <point x="345" y="243"/>
      <point x="453" y="315" type="curve"/>
      <point x="325" y="299" type="line"/>
      <point x="186" y="209"/>
      <point x="163" y="159"/>
      <point x="163" y="137" type="curve" smooth="yes"/>
      <point x="163" y="80"/>
      <point x="230" y="23"/>
      <point x="466" y="-3" type="curve" smooth="yes"/>
      <point x="684" y="-27"/>
      <point x="738" y="-74"/>
      <point x="738" y="-141" type="curve" smooth="yes"/>
      <point x="738" y="-265"/>
      <point x="631" y="-355"/>
      <point x="469" y="-355" type="curve" smooth="yes"/>
      <point x="306" y="-355"/>
      <point x="162" y="-271"/>
      <point x="162" y="-171" type="curve" smooth="yes"/>
      <point x="162" y="-130"/>
      <point x="179" y="-73"/>
      <point x="372" y="27" type="curve"/>
      <point x="367" y="51"/>
      <point x="300" y="54"/>
      <point x="300" y="54" type="curve"/>
      <point x="65" y="-65"/>
      <point x="27" y="-140"/>
      <point x="27" y="-206" type="curve" smooth="yes"/>
      <point x="27" y="-380"/>
      <point x="252" y="-450"/>
      <point x="420" y="-450" type="curve" smooth="yes"/>
      <point x="631" y="-450"/>
      <point x="873" y="-305"/>
    </contour>
    <contour>
      <point x="890" y="837" type="curve"/>
      <point x="872" y="864" type="line"/>
      <point x="816" y="843"/>
      <point x="729" y="810"/>
      <point x="571" y="801" type="curve"/>
      <point x="613" y="732" type="line"/>
      <point x="715" y="729"/>
      <point x="774" y="736"/>
      <point x="838" y="747" type="curve"/>
      <point x="866" y="776"/>
      <point x="875" y="803"/>
    </contour>
    <contour>
      <point x="747" y="576" type="curve" smooth="yes"/>
      <point x="747" y="732"/>
      <point x="612" y="864"/>
      <point x="436" y="864" type="curve" smooth="yes"/>
      <point x="261" y="864"/>
      <point x="90" y="718"/>
      <point x="90" y="541" type="curve" smooth="yes"/>
      <point x="90" y="374"/>
      <point x="217" y="265"/>
      <point x="390" y="265" type="curve" smooth="yes"/>
      <point x="566" y="265"/>
      <point x="747" y="393"/>
    </contour>
    <contour>
      <point x="621" y="540" type="curve" smooth="yes"/>
      <point x="621" y="421"/>
      <point x="532" y="360"/>
      <point x="462" y="360" type="curve" smooth="yes"/>
      <point x="293" y="360"/>
      <point x="216" y="465"/>
      <point x="216" y="593" type="curve" smooth="yes"/>
      <point x="216" y="711"/>
      <point x="315" y="774"/>
      <point x="374" y="774" type="curve" smooth="yes"/>
      <point x="536" y="774"/>
      <point x="621" y="667"/>
    </contour>
  </outline>
</glyph>
<glyph name="h" format="2">
  <advance width="1017"/>
  <unicode hex="0068"/>
  <anchor x="231" y="0" name="H"/>
  <anchor x="519" y="1458" name="U"/>
  <outline>
    <contour>
      <point x="603" y="0" type="line"/>
      <point x="990" y="0" type="line"/>
      <point x="990" y="38" type="line"/>
      <point x="895" y="63"/>
      <point x="864" y="77"/>
      <point x="864" y="93" type="curve" smooth="yes"/>
      <point x="864" y="666" type="line" smooth="yes"/>
      <point x="864" y="801"/>
      <point x="768" y="864"/>
      <point x="665" y="864" type="curve" smooth="yes"/>
      <point x="571" y="864"/>
      <point x="414" y="768"/>
      <point x="310" y="615" type="curve"/>
      <point x="310" y="1364" type="line"/>
      <point x="277" y="1395" type="line"/>
      <point x="208" y="1359"/>
      <point x="151" y="1341"/>
      <point x="49" y="1323" type="curve"/>
      <point x="49" y="1287" type="line"/>
      <point x="165" y="1273"/>
      <point x="175" y="1268"/>
      <point x="175" y="1168" type="curve" smooth="yes"/>
      <point x="175" y="93" type="line" smooth="yes"/>
      <point x="175" y="73"/>
      <point x="128" y="59"/>
      <point x="49" y="38" type="curve"/>
      <point x="49" y="0" type="line"/>
      <point x="436" y="0" type="line"/>
      <point x="436" y="38" type="line"/>
      <point x="359" y="54"/>
      <point x="310" y="75"/>
      <point x="310" y="93" type="curve" smooth="yes"/>
      <point x="310" y="494" type="line"/>
      <point x="414" y="661"/>
      <point x="531" y="747"/>
      <point x="613" y="747" type="curve" smooth="yes"/>
      <point x="693" y="747"/>
      <point x="729" y="715"/>
      <point x="729" y="569" type="curve" smooth="yes"/>
      <point x="729" y="93" type="line" smooth="yes"/>
      <point x="729" y="77"/>
      <point x="689" y="61"/>
      <point x="603" y="38" type="curve"/>
    </contour>
  </outline>
</glyph>
<glyph name="i" format="2">
  <advance width="499"/>
  <unicode hex="0069"/>
  <anchor x="256" y="0" name="H"/>
  <anchor x="256" y="945" name="U"/>
  <outline>
    <contour>
      <point x="351" y="1134" type="curve" smooth="yes"/>
      <point x="351" y="1190"/>
      <point x="325" y="1220"/>
      <point x="274" y="1220" type="curve" smooth="yes"/>
      <point x="217" y="1220"/>
      <point x="171" y="1166"/>
      <point x="171" y="1098" type="curve" smooth="yes"/>
      <point x="171" y="1043"/>
      <point x="193" y="1011"/>
      <point x="246" y="1011" type="curve" smooth="yes"/>
      <point x="306" y="1011"/>
      <point x="351" y="1067"/>
    </contour>
    <contour>
      <point x="63" y="0" type="line"/>
      <point x="450" y="0" type="line"/>
      <point x="450" y="38" type="line"/>
      <point x="362" y="54"/>
      <point x="324" y="79"/>
      <point x="324" y="93" type="curve" smooth="yes"/>
      <point x="324" y="864" type="line"/>
      <point x="293" y="864" type="line"/>
      <point x="232" y="834"/>
      <point x="138" y="806"/>
      <point x="63" y="792" type="curve"/>
      <point x="63" y="756" type="line"/>
      <point x="188" y="744"/>
      <point x="189" y="726"/>
      <point x="189" y="603" type="curve" smooth="yes"/>
      <point x="189" y="93" type="line" smooth="yes"/>
      <point x="189" y="77"/>
      <point x="144" y="54"/>
      <point x="63" y="38" type="curve"/>
    </contour>
  </outline>
</glyph>
<glyph name="j" format="2">
  <advance width="477"/>
  <unicode hex="006A"/>
  <anchor x="252" y="945" name="U"/>
  <outline>
    <contour>
      <point x="346" y="1134" type="curve" smooth="yes"/>
      <point x="346" y="1190"/>
      <point x="321" y="1220"/>
      <point x="270" y="1220" type="curve" smooth="yes"/>
      <point x="212" y="1220"/>
      <point x="166" y="1166"/>
      <point x="166" y="1098" type="curve" smooth="yes"/>
      <point x="166" y="1043"/>
      <point x="189" y="1011"/>
      <point x="243" y="1011" type="curve" smooth="yes"/>
      <point x="301" y="1011"/>
      <point x="346" y="1067"/>
    </contour>
    <contour>
      <point x="319" y="89" type="curve" smooth="yes"/>
      <point x="319" y="864" type="line"/>
      <point x="286" y="864" type="line"/>
      <point x="212" y="832"/>
      <point x="158" y="810"/>
      <point x="58" y="792" type="curve"/>
      <point x="58" y="756" type="line"/>
      <point x="183" y="742"/>
      <point x="184" y="726"/>
      <point x="184" y="603" type="curve" smooth="yes"/>
      <point x="184" y="38" type="line" smooth="yes"/>
      <point x="184" y="-252"/>
      <point x="109" y="-328"/>
      <point x="40" y="-328" type="curve" smooth="yes"/>
      <point x="-4" y="-328"/>
      <point x="-45" y="-321"/>
      <point x="-83" y="-288" type="curve"/>
      <point x="-118" y="-304"/>
      <point x="-198" y="-367"/>
      <point x="-198" y="-387" type="curve" smooth="yes"/>
      <point x="-198" y="-407"/>
      <point x="-122" y="-450"/>
      <point x="-48" y="-450" type="curve" smooth="yes"/>
      <point x="-2" y="-450"/>
      <point x="84" y="-411"/>
      <point x="148" y="-360" type="curve" smooth="yes"/>
      <point x="244" y="-282"/>
      <point x="319" y="-187"/>
    </contour>
  </outline>
</glyph>
<glyph name="k" format="2">
  <advance width="899"/>
  <unicode hex="006B"/>
  <anchor x="225" y="0" name="H"/>
  <anchor x="462" y="1458" name="U"/>
  <outline>
    <contour>
      <point x="867" y="798" type="curve"/>
      <point x="867" y="837" type="line"/>
      <point x="526" y="837" type="line"/>
      <point x="526" y="798" type="line"/>
      <point x="589" y="798"/>
      <point x="644" y="788"/>
      <point x="565" y="719" type="curve" smooth="yes"/>
      <point x="283" y="473" type="line"/>
      <point x="352" y="446" type="line"/>
      <point x="723" y="742" type="line" smooth="yes"/>
      <point x="774" y="783"/>
      <point x="814" y="792"/>
    </contour>
    <contour>
      <point x="27" y="0" type="line"/>
      <point x="387" y="0" type="line"/>
      <point x="387" y="38" type="line"/>
      <point x="297" y="66"/>
      <point x="288" y="75"/>
      <point x="288" y="93" type="curve" smooth="yes"/>
      <point x="288" y="1364" type="line"/>
      <point x="254" y="1395" type="line"/>
      <point x="194" y="1359"/>
      <point x="109" y="1340"/>
      <point x="27" y="1323" type="curve"/>
      <point x="27" y="1287" type="line"/>
      <point x="130" y="1275"/>
      <point x="153" y="1272"/>
      <point x="153" y="1166" type="curve" smooth="yes"/>
      <point x="153" y="93" type="line" smooth="yes"/>
      <point x="153" y="72"/>
      <point x="106" y="59"/>
      <point x="27" y="38" type="curve"/>
    </contour>
    <contour>
      <point x="899" y="16" type="curve"/>
      <point x="893" y="54" type="line"/>
      <point x="823" y="49"/>
      <point x="788" y="61"/>
      <point x="755" y="99" type="curve" smooth="yes"/>
      <point x="378" y="541" type="line"/>
      <point x="285" y="473" type="line"/>
      <point x="630" y="38" type="line" smooth="yes"/>
      <point x="657" y="3"/>
      <point x="683" y="-9"/>
      <point x="733" y="-9" type="curve" smooth="yes"/>
      <point x="758" y="-9"/>
      <point x="828" y="0"/>
    </contour>
  </outline>
</glyph>
<glyph name="l" format="2">
  <advance width="499"/>
  <unicode hex="006C"/>
  <anchor x="256" y="0" name="H"/>
  <anchor x="256" y="1521" name="U"/>
  <outline>
    <contour>
      <point x="54" y="0" type="line"/>
      <point x="459" y="0" type="line"/>
      <point x="459" y="38" type="line"/>
      <point x="360" y="54"/>
      <point x="324" y="75"/>
      <point x="324" y="93" type="curve" smooth="yes"/>
      <point x="324" y="1364" type="line"/>
      <point x="291" y="1395" type="line"/>
      <point x="217" y="1356"/>
      <point x="149" y="1340"/>
      <point x="63" y="1323" type="curve"/>
      <point x="63" y="1287" type="line"/>
      <point x="163" y="1275"/>
      <point x="189" y="1271"/>
      <point x="189" y="1166" type="curve" smooth="yes"/>
      <point x="189" y="93" type="line" smooth="yes"/>
      <point x="189" y="73"/>
      <point x="157" y="56"/>
      <point x="54" y="38" type="curve"/>
    </contour>
  </outline>
</glyph>
<glyph name="m" format="2">
  <advance width="1505"/>
  <unicode hex="006D"/>
  <outline>
    <contour>
      <point x="1074" y="0" type="line"/>
      <point x="1481" y="0" type="line"/>
      <point x="1481" y="47" type="line"/>
      <point x="1386" y="72"/>
      <point x="1354" y="86"/>
      <point x="1354" y="102" type="curve" smooth="yes"/>
      <point x="1354" y="655" type="line" smooth="yes"/>
      <point x="1354" y="801"/>
      <point x="1264" y="864"/>
      <point x="1150" y="864" type="curve" smooth="yes"/>
      <point x="1062" y="864"/>
      <point x="951" y="799"/>
      <point x="839" y="660" type="curve"/>
      <point x="838" y="677" type="line" smooth="yes"/>
      <point x="833" y="809"/>
      <point x="756" y="864"/>
      <point x="641" y="864" type="curve" smooth="yes"/>
      <point x="555" y="864"/>
      <point x="445" y="801"/>
      <point x="329" y="655" type="curve"/>
      <point x="319" y="830" type="line"/>
      <point x="285" y="864" type="line"/>
      <point x="214" y="832"/>
      <point x="149" y="808"/>
      <point x="47" y="794" type="curve"/>
      <point x="47" y="749" type="line"/>
      <point x="163" y="735"/>
      <point x="171" y="728"/>
      <point x="171" y="633" type="curve" smooth="yes"/>
      <point x="171" y="102" type="line" smooth="yes"/>
      <point x="171" y="82"/>
      <point x="126" y="68"/>
      <point x="47" y="47" type="curve"/>
      <point x="47" y="0" type="line"/>
      <point x="454" y="0" type="line"/>
      <point x="454" y="47" type="line"/>
      <point x="377" y="63"/>
      <point x="333" y="84"/>
      <point x="333" y="102" type="curve" smooth="yes"/>
      <point x="333" y="542" type="line"/>
      <point x="430" y="669"/>
      <point x="512" y="740"/>
      <point x="584" y="740" type="curve" smooth="yes"/>
      <point x="656" y="740"/>
      <point x="681" y="708"/>
      <point x="681" y="560" type="curve" smooth="yes"/>
      <point x="681" y="102" type="line" smooth="yes"/>
      <point x="681" y="86"/>
      <point x="649" y="70"/>
      <point x="563" y="47" type="curve"/>
      <point x="563" y="0" type="line"/>
      <point x="966" y="0" type="line"/>
      <point x="966" y="47" type="line"/>
      <point x="871" y="72"/>
      <point x="843" y="86"/>
      <point x="843" y="102" type="curve" smooth="yes"/>
      <point x="843" y="542" type="line"/>
      <point x="930" y="667"/>
      <point x="1022" y="740"/>
      <point x="1093" y="740" type="curve" smooth="yes"/>
      <point x="1162" y="740"/>
      <point x="1192" y="708"/>
      <point x="1192" y="560" type="curve" smooth="yes"/>
      <point x="1192" y="102" type="line" smooth="yes"/>
      <point x="1192" y="86"/>
      <point x="1160" y="70"/>
      <point x="1074" y="47" type="curve"/>
    </contour>
  </outline>
</glyph>
<glyph name="n" format="2">
  <advance width="1017"/>
  <unicode hex="006E"/>
  <anchor x="796" y="0" name="H"/>
  <anchor x="519" y="945" name="U"/>
  <outline>
    <contour>
      <point x="603" y="0" type="line"/>
      <point x="990" y="0" type="line"/>
      <point x="990" y="38" type="line"/>
      <point x="895" y="63"/>
      <point x="864" y="77"/>
      <point x="864" y="93" type="curve" smooth="yes"/>
      <point x="864" y="666" type="line" smooth="yes"/>
      <point x="864" y="801"/>
      <point x="768" y="864"/>
      <point x="665" y="864" type="curve" smooth="yes"/>
      <point x="571" y="864"/>
      <point x="412" y="768"/>
      <point x="306" y="608" type="curve"/>
      <point x="297" y="832" type="line"/>
      <point x="265" y="864" type="line"/>
      <point x="198" y="830"/>
      <point x="130" y="804"/>
      <point x="49" y="792" type="curve"/>
      <point x="49" y="756" type="line"/>
      <point x="171" y="742"/>
      <point x="175" y="733"/>
      <point x="175" y="639" type="curve" smooth="yes"/>
      <point x="175" y="93" type="line" smooth="yes"/>
      <point x="175" y="73"/>
      <point x="128" y="59"/>
      <point x="49" y="38" type="curve"/>
      <point x="49" y="0" type="line"/>
      <point x="436" y="0" type="line"/>
      <point x="436" y="38" type="line"/>
      <point x="359" y="54"/>
      <point x="310" y="75"/>
      <point x="310" y="93" type="curve" smooth="yes"/>
      <point x="310" y="494" type="line"/>
      <point x="426" y="680"/>
      <point x="540" y="747"/>
      <point x="613" y="747" type="curve" smooth="yes"/>
      <point x="698" y="747"/>
      <point x="729" y="715"/>
      <point x="729" y="569" type="curve" smooth="yes"/>
      <point x="729" y="93" type="line" smooth="yes"/>
      <point x="729" y="77"/>
      <point x="689" y="61"/>
      <point x="603" y="38" type="curve"/>
    </contour>
  </outline>
</glyph>
<glyph name="o" format="2">
  <advance width="927"/>
  <unicode hex="006F"/>
  <anchor x="481" y="0" name="H"/>
  <anchor x="481" y="945" name="U"/>
  <outline>
    <contour>
      <point x="855" y="436" type="curve" smooth="yes"/>
      <point x="855" y="682"/>
      <point x="707" y="864"/>
      <point x="481" y="864" type="curve" smooth="yes"/>
      <point x="256" y="864"/>
      <point x="72" y="638"/>
      <point x="72" y="399" type="curve" smooth="yes"/>
      <point x="72" y="154"/>
      <point x="219" y="-27"/>
      <point x="446" y="-27" type="curve" smooth="yes"/>
      <point x="665" y="-27"/>
      <point x="855" y="197"/>
    </contour>
    <contour>
      <point x="715" y="409" type="curve" smooth="yes"/>
      <point x="715" y="204"/>
      <point x="641" y="72"/>
      <point x="471" y="72" type="curve" smooth="yes"/>
      <point x="360" y="72"/>
      <point x="211" y="235"/>
      <point x="211" y="425" type="curve" smooth="yes"/>
      <point x="211" y="617"/>
      <point x="272" y="765"/>
      <point x="455" y="765" type="curve" smooth="yes"/>
      <point x="578" y="765"/>
      <point x="715" y="599"/>
    </contour>
  </outline>
</glyph>
<glyph name="p" format="2">
  <advance width="976"/>
  <unicode hex="0070"/>
  <anchor x="241" y="-432" name="H"/>
  <anchor x="476" y="945" name="U"/>
  <outline>
    <contour>
      <point x="560" y="-27" type="curve" smooth="yes"/>
      <point x="736" y="-27"/>
      <point x="904" y="234"/>
      <point x="904" y="442" type="curve" smooth="yes"/>
      <point x="904" y="705"/>
      <point x="784" y="864"/>
      <point x="621" y="864" type="curve" smooth="yes"/>
      <point x="552" y="864"/>
      <point x="424" y="798"/>
      <point x="305" y="654" type="curve"/>
      <point x="297" y="832" type="line"/>
      <point x="265" y="864" type="line"/>
      <point x="195" y="830"/>
      <point x="132" y="810"/>
      <point x="49" y="792" type="curve"/>
      <point x="49" y="756" type="line"/>
      <point x="163" y="750"/>
      <point x="175" y="729"/>
      <point x="175" y="639" type="curve" smooth="yes"/>
      <point x="175" y="-337" type="line" smooth="yes"/>
      <point x="175" y="-358"/>
      <point x="128" y="-374"/>
      <point x="49" y="-393" type="curve"/>
      <point x="49" y="-432" type="line"/>
      <point x="462" y="-432" type="line"/>
      <point x="462" y="-393" type="line"/>
      <point x="350" y="-376"/>
      <point x="310" y="-356"/>
      <point x="310" y="-337" type="curve" smooth="yes"/>
      <point x="310" y="88" type="line"/>
      <point x="395" y="14"/>
      <point x="490" y="-27"/>
    </contour>
    <contour>
      <point x="560" y="751" type="curve" smooth="yes"/>
      <point x="676" y="751"/>
      <point x="783" y="593"/>
      <point x="783" y="383" type="curve" smooth="yes"/>
      <point x="783" y="191"/>
      <point x="687" y="90"/>
      <point x="558" y="90" type="curve" smooth="yes"/>
      <point x="494" y="90"/>
      <point x="417" y="110"/>
      <point x="310" y="191" type="curve"/>
      <point x="310" y="549" type="line"/>
      <point x="415" y="703"/>
      <point x="517" y="751"/>
    </contour>
  </outline>
</glyph>
<glyph name="q" format="2">
  <advance width="949"/>
  <unicode hex="0071"/>
  <anchor x="501" y="945" name="U"/>
  <outline>
    <contour>
      <point x="517" y="-432" type="line"/>
      <point x="930" y="-432" type="line"/>
      <point x="930" y="-393" type="line"/>
      <point x="838" y="-376"/>
      <point x="805" y="-356"/>
      <point x="805" y="-337" type="curve" smooth="yes"/>
      <point x="805" y="645" type="line" smooth="yes"/>
      <point x="805" y="754"/>
      <point x="833" y="837"/>
      <point x="833" y="837" type="curve"/>
      <point x="805" y="864" type="line"/>
      <point x="775" y="834"/>
      <point x="709" y="775"/>
      <point x="670" y="763" type="curve"/>
      <point x="670" y="-337" type="line" smooth="yes"/>
      <point x="670" y="-358"/>
      <point x="630" y="-376"/>
      <point x="517" y="-393" type="curve"/>
    </contour>
    <contour>
      <point x="737" y="234" type="curve"/>
      <point x="731" y="243"/>
      <point x="719" y="260"/>
      <point x="703" y="267" type="curve"/>
      <point x="619" y="186"/>
      <point x="532" y="90"/>
      <point x="438" y="90" type="curve" smooth="yes"/>
      <point x="339" y="90"/>
      <point x="207" y="223"/>
      <point x="207" y="427" type="curve" smooth="yes"/>
      <point x="207" y="652"/>
      <point x="333" y="765"/>
      <point x="468" y="765" type="curve" smooth="yes"/>
      <point x="558" y="765"/>
      <point x="639" y="720"/>
      <point x="676" y="645" type="curve"/>
      <point x="715" y="668"/>
      <point x="729" y="684"/>
      <point x="729" y="756" type="curve"/>
      <point x="636" y="849"/>
      <point x="567" y="864"/>
      <point x="495" y="864" type="curve" smooth="yes"/>
      <point x="450" y="864"/>
      <point x="378" y="842"/>
      <point x="309" y="805" type="curve" smooth="yes"/>
      <point x="225" y="757"/>
      <point x="72" y="610"/>
      <point x="72" y="399" type="curve" smooth="yes"/>
      <point x="72" y="132"/>
      <point x="241" y="-27"/>
      <point x="374" y="-27" type="curve" smooth="yes"/>
      <point x="525" y="-27"/>
      <point x="615" y="75"/>
    </contour>
  </outline>
</glyph>
<glyph name="r" format="2">
  <advance width="729"/>
  <unicode hex="0072"/>
  <anchor x="243" y="0" name="H"/>
  <anchor x="405" y="945" name="U"/>
  <outline>
    <contour>
      <point x="693" y="830" type="curve" smooth="yes"/>
      <point x="649" y="855"/>
      <point x="603" y="864"/>
      <point x="564" y="864" type="curve" smooth="yes"/>
      <point x="460" y="864"/>
      <point x="373" y="761"/>
      <point x="308" y="628" type="curve"/>
      <point x="297" y="832" type="line"/>
      <point x="265" y="864" type="line"/>
      <point x="206" y="830"/>
      <point x="126" y="810"/>
      <point x="49" y="792" type="curve"/>
      <point x="49" y="756" type="line"/>
      <point x="116" y="752"/>
      <point x="138" y="747"/>
      <point x="154" y="731" type="curve" smooth="yes"/>
      <point x="165" y="720"/>
      <point x="175" y="696"/>
      <point x="175" y="617" type="curve" smooth="yes"/>
      <point x="175" y="93" type="line" smooth="yes"/>
      <point x="175" y="73"/>
      <point x="128" y="56"/>
      <point x="49" y="38" type="curve"/>
      <point x="49" y="0" type="line"/>
      <point x="462" y="0" type="line"/>
      <point x="462" y="38" type="line"/>
      <point x="350" y="54"/>
      <point x="310" y="75"/>
      <point x="310" y="93" type="curve" smooth="yes"/>
      <point x="310" y="446" type="line"/>
      <point x="368" y="650"/>
      <point x="462" y="738"/>
      <point x="515" y="738" type="curve" smooth="yes"/>
      <point x="560" y="738"/>
      <point x="601" y="705"/>
      <point x="615" y="608" type="curve"/>
      <point x="654" y="608" type="line"/>
      <point x="684" y="673"/>
      <point x="715" y="817"/>
    </contour>
  </outline>
</glyph>
<glyph name="s" format="2">
  <advance width="711"/>
  <unicode hex="0073"/>
  <anchor x="346" y="0" name="H"/>
  <anchor x="357" y="945" name="U"/>
  <outline>
    <contour>
      <point x="630" y="254" type="curve" smooth="yes"/>
      <point x="630" y="388"/>
      <point x="513" y="449"/>
      <point x="409" y="503" type="curve" smooth="yes"/>
      <point x="273" y="573"/>
      <point x="210" y="608"/>
      <point x="210" y="675" type="curve" smooth="yes"/>
      <point x="210" y="724"/>
      <point x="258" y="783"/>
      <point x="337" y="783" type="curve" smooth="yes"/>
      <point x="396" y="783"/>
      <point x="460" y="752"/>
      <point x="517" y="666" type="curve"/>
      <point x="552" y="659" type="line"/>
      <point x="567" y="678"/>
      <point x="612" y="781"/>
      <point x="597" y="794" type="curve" smooth="yes"/>
      <point x="549" y="837"/>
      <point x="436" y="864"/>
      <point x="360" y="864" type="curve" smooth="yes"/>
      <point x="225" y="864"/>
      <point x="93" y="779"/>
      <point x="93" y="630" type="curve" smooth="yes"/>
      <point x="93" y="515"/>
      <point x="189" y="456"/>
      <point x="289" y="404" type="curve" smooth="yes"/>
      <point x="449" y="320"/>
      <point x="513" y="286"/>
      <point x="513" y="204" type="curve" smooth="yes"/>
      <point x="513" y="119"/>
      <point x="451" y="63"/>
      <point x="365" y="63" type="curve" smooth="yes"/>
      <point x="241" y="63"/>
      <point x="145" y="144"/>
      <point x="140" y="244" type="curve"/>
      <point x="101" y="254" type="line"/>
      <point x="84" y="200"/>
      <point x="80" y="47"/>
      <point x="95" y="38" type="curve" smooth="yes"/>
      <point x="175" y="-6"/>
      <point x="263" y="-27"/>
      <point x="320" y="-27" type="curve" smooth="yes"/>
      <point x="390" y="-27"/>
      <point x="630" y="0"/>
    </contour>
  </outline>
</glyph>
<glyph name="t" format="2">
  <advance width="650"/>
  <unicode hex="0074"/>
  <outline>
    <contour>
      <point x="626" y="116" type="curve"/>
      <point x="595" y="169" type="line"/>
      <point x="499" y="119"/>
      <point x="443" y="105"/>
      <point x="400" y="105" type="curve" smooth="yes"/>
      <point x="337" y="105"/>
      <point x="310" y="148"/>
      <point x="310" y="285" type="curve" smooth="yes"/>
      <point x="310" y="742" type="line"/>
      <point x="361" y="742" type="line" smooth="yes"/>
      <point x="447" y="742"/>
      <point x="506" y="725"/>
      <point x="535" y="711" type="curve"/>
      <point x="559" y="724"/>
      <point x="603" y="773"/>
      <point x="626" y="808" type="curve"/>
      <point x="598" y="837" type="line"/>
      <point x="310" y="837" type="line"/>
      <point x="310" y="1129" type="line"/>
      <point x="280" y="1154" type="line"/>
      <point x="148" y="1047" type="line"/>
      <point x="148" y="837" type="line"/>
      <point x="83" y="837" type="line"/>
      <point x="13" y="769" type="line"/>
      <point x="34" y="742" type="line"/>
      <point x="148" y="742" type="line"/>
      <point x="148" y="205" type="line" smooth="yes"/>
      <point x="148" y="38"/>
      <point x="226" y="-27"/>
      <point x="316" y="-27" type="curve" smooth="yes"/>
      <point x="379" y="-27"/>
      <point x="495" y="20"/>
    </contour>
  </outline>
</glyph>
<glyph name="u" format="2">
  <advance width="976"/>
  <unicode hex="0075"/>
  <anchor x="491" y="0" name="H"/>
  <anchor x="490" y="945" name="U"/>
  <outline>
    <contour>
      <point x="962" y="73" type="curve"/>
      <point x="953" y="114" type="line"/>
      <point x="891" y="88"/>
      <point x="857" y="83"/>
      <point x="844" y="93" type="curve" smooth="yes"/>
      <point x="828" y="105"/>
      <point x="823" y="154"/>
      <point x="823" y="228" type="curve" smooth="yes"/>
      <point x="823" y="828" type="line"/>
      <point x="796" y="864" type="line"/>
      <point x="729" y="841"/>
      <point x="648" y="815"/>
      <point x="562" y="804" type="curve"/>
      <point x="562" y="768" type="line"/>
      <point x="673" y="763"/>
      <point x="688" y="747"/>
      <point x="688" y="639" type="curve" smooth="yes"/>
      <point x="688" y="235" type="line"/>
      <point x="583" y="123"/>
      <point x="503" y="81"/>
      <point x="425" y="81" type="curve" smooth="yes"/>
      <point x="339" y="81"/>
      <point x="288" y="132"/>
      <point x="288" y="300" type="curve" smooth="yes"/>
      <point x="288" y="828" type="line"/>
      <point x="262" y="864" type="line"/>
      <point x="183" y="832"/>
      <point x="123" y="815"/>
      <point x="36" y="804" type="curve"/>
      <point x="36" y="768" type="line"/>
      <point x="147" y="757"/>
      <point x="153" y="754"/>
      <point x="153" y="639" type="curve" smooth="yes"/>
      <point x="153" y="251" type="line" smooth="yes"/>
      <point x="153" y="26"/>
      <point x="255" y="-27"/>
      <point x="367" y="-27" type="curve" smooth="yes"/>
      <point x="443" y="-27"/>
      <point x="539" y="0"/>
      <point x="688" y="149" type="curve"/>
      <point x="695" y="26"/>
      <point x="722" y="-27"/>
      <point x="765" y="-27" type="curve" smooth="yes"/>
      <point x="794" y="-27"/>
      <point x="873" y="16"/>
    </contour>
  </outline>
</glyph>
<glyph name="v" format="2">
  <advance width="909"/>
  <unicode hex="0076"/>
  <anchor x="449" y="0" name="H"/>
  <anchor x="482" y="945" name="U"/>
  <outline>
    <contour>
      <point x="890" y="798" type="curve"/>
      <point x="890" y="837" type="line"/>
      <point x="599" y="837" type="line"/>
      <point x="599" y="798" type="line"/>
      <point x="687" y="784"/>
      <point x="705" y="773"/>
      <point x="693" y="737" type="curve" smooth="yes"/>
      <point x="485" y="160" type="line"/>
      <point x="263" y="737" type="line" smooth="yes"/>
      <point x="248" y="775"/>
      <point x="272" y="786"/>
      <point x="365" y="798" type="curve"/>
      <point x="365" y="837" type="line"/>
      <point x="18" y="837" type="line"/>
      <point x="18" y="798" type="line"/>
      <point x="77" y="784"/>
      <point x="105" y="768"/>
      <point x="117" y="737" type="curve" smooth="yes"/>
      <point x="414" y="-27" type="line"/>
      <point x="446" y="-19"/>
      <point x="516" y="0"/>
      <point x="536" y="53" type="curve" smooth="yes"/>
      <point x="791" y="737" type="line" smooth="yes"/>
      <point x="803" y="772"/>
      <point x="818" y="781"/>
    </contour>
  </outline>
</glyph>
<glyph name="w" format="2">
  <advance width="1301"/>
  <unicode hex="0077"/>
  <anchor x="675" y="945" name="U"/>
  <outline>
    <contour>
      <point x="1282" y="798" type="curve"/>
      <point x="1282" y="837" type="line"/>
      <point x="990" y="837" type="line"/>
      <point x="990" y="798" type="line"/>
      <point x="1072" y="784"/>
      <point x="1102" y="770"/>
      <point x="1095" y="742" type="curve" smooth="yes"/>
      <point x="939" y="171" type="line"/>
      <point x="705" y="837" type="line"/>
      <point x="691" y="837"/>
      <point x="648" y="837"/>
      <point x="648" y="837" type="curve"/>
      <point x="641" y="626" type="line"/>
      <point x="870" y="-27" type="line"/>
      <point x="900" y="-19"/>
      <point x="978" y="0"/>
      <point x="993" y="53" type="curve" smooth="yes"/>
      <point x="1192" y="742" type="line" smooth="yes"/>
      <point x="1199" y="770"/>
      <point x="1208" y="781"/>
    </contour>
    <contour>
      <point x="471" y="53" type="curve" smooth="yes"/>
      <point x="711" y="742" type="line"/>
      <point x="693" y="837" type="line"/>
      <point x="693" y="837"/>
      <point x="659" y="837"/>
      <point x="643" y="837" type="curve"/>
      <point x="422" y="171" type="line"/>
      <point x="252" y="742" type="line" smooth="yes"/>
      <point x="244" y="765"/>
      <point x="248" y="786"/>
      <point x="365" y="798" type="curve"/>
      <point x="365" y="837" type="line"/>
      <point x="18" y="837" type="line"/>
      <point x="18" y="798" type="line"/>
      <point x="77" y="784"/>
      <point x="110" y="765"/>
      <point x="116" y="742" type="curve"/>
      <point x="351" y="-27" type="line"/>
      <point x="383" y="-19"/>
      <point x="453" y="-1"/>
    </contour>
  </outline>
</glyph>
<glyph name="x" format="2">
  <advance width="927"/>
  <unicode hex="0078"/>
  <anchor x="720" y="0" name="H"/>
  <anchor x="466" y="945" name="U"/>
  <outline>
    <contour>
      <point x="895" y="798" type="curve"/>
      <point x="895" y="837" type="line"/>
      <point x="552" y="837" type="line"/>
      <point x="552" y="798" type="line"/>
      <point x="626" y="791"/>
      <point x="659" y="777"/>
      <point x="619" y="719" type="curve" smooth="yes"/>
      <point x="450" y="475" type="line"/>
      <point x="497" y="405" type="line"/>
      <point x="719" y="717" type="line" smooth="yes"/>
      <point x="750" y="761"/>
      <point x="798" y="791"/>
    </contour>
    <contour>
      <point x="552" y="0" type="line"/>
      <point x="914" y="0" type="line"/>
      <point x="914" y="38" type="line"/>
      <point x="835" y="49"/>
      <point x="796" y="87"/>
      <point x="770" y="123" type="curve"/>
      <point x="335" y="719" type="line" smooth="yes"/>
      <point x="294" y="775"/>
      <point x="332" y="791"/>
      <point x="405" y="798" type="curve"/>
      <point x="405" y="837" type="line"/>
      <point x="27" y="837" type="line"/>
      <point x="27" y="798" type="line"/>
      <point x="125" y="791"/>
      <point x="149" y="760"/>
      <point x="180" y="717" type="curve" smooth="yes"/>
      <point x="619" y="117" type="line" smooth="yes"/>
      <point x="666" y="53"/>
      <point x="612" y="44"/>
      <point x="552" y="38" type="curve"/>
    </contour>
    <contour>
      <point x="270" y="117" type="curve" smooth="yes"/>
      <point x="450" y="372" type="line"/>
      <point x="404" y="444" type="line"/>
      <point x="173" y="123" type="line" smooth="yes"/>
      <point x="147" y="86"/>
      <point x="114" y="53"/>
      <point x="18" y="38" type="curve"/>
      <point x="18" y="0" type="line"/>
      <point x="359" y="0" type="line"/>
      <point x="359" y="38" type="line"/>
      <point x="302" y="44"/>
      <point x="225" y="53"/>
    </contour>
  </outline>
</glyph>
<glyph name="y" format="2">
  <advance width="909"/>
  <unicode hex="0079"/>
  <anchor x="477" y="945" name="U"/>
  <outline>
    <contour>
      <point x="890" y="798" type="curve"/>
      <point x="890" y="837" type="line"/>
      <point x="589" y="837" type="line"/>
      <point x="589" y="798" type="line"/>
      <point x="678" y="784"/>
      <point x="706" y="774"/>
      <point x="693" y="737" type="curve" smooth="yes"/>
      <point x="485" y="163" type="line"/>
      <point x="263" y="737" type="line" smooth="yes"/>
      <point x="248" y="776"/>
      <point x="272" y="786"/>
      <point x="365" y="798" type="curve"/>
      <point x="365" y="837" type="line"/>
      <point x="18" y="837" type="line"/>
      <point x="18" y="798" type="line"/>
      <point x="77" y="784"/>
      <point x="105" y="770"/>
      <point x="117" y="737" type="curve" smooth="yes"/>
      <point x="413" y="-20" type="line"/>
      <point x="387" y="-82" type="line" smooth="yes"/>
      <point x="343" y="-186"/>
      <point x="269" y="-281"/>
      <point x="225" y="-297" type="curve" smooth="yes"/>
      <point x="180" y="-312"/>
      <point x="119" y="-314"/>
      <point x="63" y="-280" type="curve"/>
      <point x="24" y="-304"/>
      <point x="-42" y="-387"/>
      <point x="-42" y="-402" type="curve" smooth="yes"/>
      <point x="-42" y="-424"/>
      <point x="22" y="-450"/>
      <point x="114" y="-450" type="curve" smooth="yes"/>
      <point x="234" y="-450"/>
      <point x="391" y="-340"/>
      <point x="490" y="-73" type="curve" smooth="yes"/>
      <point x="791" y="738" type="line" smooth="yes"/>
      <point x="803" y="773"/>
      <point x="818" y="781"/>
    </contour>
  </outline>
</glyph>
<glyph name="z" format="2">
  <advance width="806"/>
  <unicode hex="007A"/>
  <anchor x="414" y="0" name="H"/>
  <anchor x="440" y="945" name="U"/>
  <outline>
    <contour>
      <point x="761" y="247" type="curve"/>
      <point x="712" y="259" type="line"/>
      <point x="683" y="143"/>
      <point x="661" y="90"/>
      <point x="627" y="90" type="curve" smooth="yes"/>
      <point x="271" y="90" type="line"/>
      <point x="764" y="798" type="line"/>
      <point x="744" y="837" type="line"/>
      <point x="281" y="837" type="line" smooth="yes"/>
      <point x="204" y="837"/>
      <point x="175" y="837"/>
      <point x="123" y="851" type="curve"/>
      <point x="104" y="607" type="line"/>
      <point x="155" y="594" type="line"/>
      <point x="182" y="711"/>
      <point x="226" y="747"/>
      <point x="270" y="747" type="curve" smooth="yes"/>
      <point x="555" y="747" type="line"/>
      <point x="63" y="40" type="line"/>
      <point x="87" y="0" type="line"/>
      <point x="751" y="0" type="line"/>
      <point x="758" y="42"/>
      <point x="761" y="172"/>
    </contour>
  </outline>
</glyph>
<glyph name="braceleft" format="2">
  <advance width="627"/>
  <unicode hex="007B"/>
  <outline>
    <contour>
      <point x="597" y="1388" type="curve"/>
      <point x="569" y="1440" type="line"/>
      <point x="383" y="1359"/>
      <point x="257" y="1242"/>
      <point x="257" y="1080" type="curve" smooth="yes"/>
      <point x="257" y="936"/>
      <point x="294" y="918"/>
      <point x="294" y="776" type="curve" smooth="yes"/>
      <point x="294" y="686"/>
      <point x="225" y="611"/>
      <point x="86" y="574" type="curve"/>
      <point x="102" y="517" type="line"/>
      <point x="137" y="522"/>
      <point x="127" y="522"/>
      <point x="160" y="522" type="curve" smooth="yes"/>
      <point x="245" y="522"/>
      <point x="294" y="477"/>
      <point x="294" y="379" type="curve" smooth="yes"/>
      <point x="294" y="234"/>
      <point x="257" y="197"/>
      <point x="257" y="60" type="curve" smooth="yes"/>
      <point x="257" y="-113"/>
      <point x="355" y="-202"/>
      <point x="562" y="-283" type="curve"/>
      <point x="588" y="-219" type="line"/>
      <point x="461" y="-149"/>
      <point x="433" y="-86"/>
      <point x="433" y="34" type="curve" smooth="yes"/>
      <point x="433" y="149"/>
      <point x="470" y="207"/>
      <point x="470" y="346" type="curve" smooth="yes"/>
      <point x="470" y="478"/>
      <point x="423" y="566"/>
      <point x="304" y="587" type="curve"/>
      <point x="405" y="631"/>
      <point x="470" y="730"/>
      <point x="470" y="830" type="curve" smooth="yes"/>
      <point x="470" y="965"/>
      <point x="433" y="996"/>
      <point x="433" y="1131" type="curve" smooth="yes"/>
      <point x="433" y="1244"/>
      <point x="503" y="1330"/>
    </contour>
  </outline>
</glyph>
<glyph name="bar" format="2">
  <advance width="450"/>
  <unicode hex="007C"/>
  <outline>
    <contour>
      <point x="288" y="-403" type="curve"/>
      <point x="288" y="1483" type="line"/>
      <point x="255" y="1503" type="line"/>
      <point x="220" y="1494"/>
      <point x="195" y="1478"/>
      <point x="162" y="1458" type="curve"/>
      <point x="162" y="-429" type="line"/>
      <point x="193" y="-450" type="line"/>
      <point x="223" y="-440"/>
      <point x="266" y="-422"/>
    </contour>
  </outline>
</glyph>
<glyph name="braceright" format="2">
  <advance width="627"/>
  <unicode hex="007D"/>
  <outline>
    <contour>
      <point x="542" y="581" type="curve"/>
      <point x="527" y="640" type="line"/>
      <point x="490" y="632"/>
      <point x="500" y="634"/>
      <point x="468" y="634" type="curve" smooth="yes"/>
      <point x="383" y="634"/>
      <point x="335" y="680"/>
      <point x="335" y="777" type="curve" smooth="yes"/>
      <point x="335" y="921"/>
      <point x="370" y="960"/>
      <point x="370" y="1097" type="curve" smooth="yes"/>
      <point x="370" y="1269"/>
      <point x="273" y="1360"/>
      <point x="65" y="1439" type="curve"/>
      <point x="39" y="1375" type="line"/>
      <point x="165" y="1307"/>
      <point x="194" y="1245"/>
      <point x="194" y="1122" type="curve" smooth="yes"/>
      <point x="194" y="1008"/>
      <point x="158" y="949"/>
      <point x="158" y="811" type="curve" smooth="yes"/>
      <point x="158" y="677"/>
      <point x="204" y="590"/>
      <point x="325" y="567" type="curve"/>
      <point x="222" y="523"/>
      <point x="158" y="426"/>
      <point x="158" y="327" type="curve" smooth="yes"/>
      <point x="158" y="190"/>
      <point x="194" y="161"/>
      <point x="194" y="26" type="curve" smooth="yes"/>
      <point x="194" y="-87"/>
      <point x="124" y="-172"/>
      <point x="30" y="-231" type="curve"/>
      <point x="59" y="-283" type="line"/>
      <point x="244" y="-202"/>
      <point x="370" y="-84"/>
      <point x="370" y="77" type="curve" smooth="yes"/>
      <point x="370" y="220"/>
      <point x="335" y="238"/>
      <point x="335" y="379" type="curve" smooth="yes"/>
      <point x="335" y="470"/>
      <point x="402" y="544"/>
    </contour>
  </outline>
</glyph>
<glyph name="asciitilde" format="2">
  <advance width="899"/>
  <unicode hex="007E"/>
  <outline>
    <contour>
      <point x="855" y="696" type="curve"/>
      <point x="807" y="719" type="line"/>
      <point x="757" y="621"/>
      <point x="705" y="575"/>
      <point x="648" y="575" type="curve" smooth="yes"/>
      <point x="552" y="575"/>
      <point x="427" y="719"/>
      <point x="316" y="719" type="curve" smooth="yes"/>
      <point x="202" y="719"/>
      <point x="95" y="569"/>
      <point x="44" y="451" type="curve"/>
      <point x="91" y="427" type="line"/>
      <point x="142" y="527"/>
      <point x="189" y="573"/>
      <point x="248" y="573" type="curve" smooth="yes"/>
      <point x="351" y="573"/>
      <point x="481" y="429"/>
      <point x="582" y="429" type="curve" smooth="yes"/>
      <point x="696" y="429"/>
      <point x="805" y="578"/>
    </contour>
  </outline>
</glyph>
<glyph name="exclamdown" format="2">
  <advance width="501"/>
  <unicode hex="00A1"/>
  <outline>
    <contour>
      <point x="351" y="763" type="curve"/>
      <point x="351" y="828"/>
      <point x="325" y="864"/>
      <point x="263" y="864" type="curve" smooth="yes"/>
      <point x="191" y="864"/>
      <point x="138" y="800"/>
      <point x="138" y="719" type="curve" smooth="yes"/>
      <point x="138" y="652"/>
      <point x="167" y="615"/>
      <point x="228" y="615" type="curve" smooth="yes"/>
      <point x="295" y="615"/>
      <point x="351" y="682"/>
    </contour>
    <contour>
      <point x="333" y="-434" type="curve"/>
      <point x="289" y="495" type="line"/>
      <point x="265" y="512" type="line"/>
      <point x="234" y="503"/>
      <point x="221" y="495"/>
      <point x="197" y="477" type="curve"/>
      <point x="154" y="-488" type="line"/>
      <point x="193" y="-508" type="line"/>
      <point x="234" y="-494"/>
      <point x="287" y="-464"/>
    </contour>
  </outline>
</glyph>
<glyph name="cent" format="2">
  <advance width="864"/>
  <unicode hex="00A2"/>
  <outline>
    <contour>
      <point x="508" y="-7" type="curve"/>
      <point x="508" y="1100" type="line"/>
      <point x="485" y="1120" type="line"/>
      <point x="448" y="1111"/>
      <point x="460" y="1113"/>
      <point x="427" y="1092" type="curve"/>
      <point x="427" y="-14" type="line"/>
      <point x="450" y="-36" type="line"/>
      <point x="478" y="-27"/>
      <point x="486" y="-26"/>
    </contour>
    <contour>
      <point x="777" y="315" type="curve"/>
      <point x="742" y="351" type="line"/>
      <point x="612" y="237"/>
      <point x="573" y="235"/>
      <point x="504" y="235" type="curve" smooth="yes"/>
      <point x="360" y="235"/>
      <point x="230" y="348"/>
      <point x="230" y="554" type="curve" smooth="yes"/>
      <point x="230" y="777"/>
      <point x="346" y="873"/>
      <point x="471" y="873" type="curve" smooth="yes"/>
      <point x="595" y="873"/>
      <point x="659" y="805"/>
      <point x="682" y="763" type="curve"/>
      <point x="713" y="754" type="line"/>
      <point x="735" y="784"/>
      <point x="770" y="872"/>
      <point x="765" y="899" type="curve"/>
      <point x="724" y="944"/>
      <point x="631" y="971"/>
      <point x="552" y="971" type="curve" smooth="yes"/>
      <point x="295" y="971"/>
      <point x="93" y="783"/>
      <point x="93" y="527" type="curve" smooth="yes"/>
      <point x="93" y="260"/>
      <point x="267" y="116"/>
      <point x="440" y="116" type="curve" smooth="yes"/>
      <point x="552" y="116"/>
      <point x="621" y="130"/>
    </contour>
  </outline>
</glyph>
<glyph name="sterling" format="2">
  <advance width="864"/>
  <unicode hex="00A3"/>
  <outline>
    <contour>
      <point x="774" y="1048" type="curve"/>
      <point x="663" y="1105"/>
      <point x="615" y="1111"/>
      <point x="552" y="1111" type="curve" smooth="yes"/>
      <point x="267" y="1111"/>
      <point x="149" y="887"/>
      <point x="177" y="520" type="curve" smooth="yes"/>
      <point x="206" y="142"/>
      <point x="172" y="111"/>
      <point x="57" y="17" type="curve"/>
      <point x="78" y="-27" type="line"/>
      <point x="254" y="85"/>
      <point x="610" y="-89"/>
      <point x="771" y="0" type="curve"/>
      <point x="780" y="35"/>
      <point x="799" y="125"/>
      <point x="808" y="228" type="curve"/>
      <point x="769" y="244" type="line"/>
      <point x="718" y="104"/>
      <point x="676" y="93"/>
      <point x="566" y="90" type="curve" smooth="yes"/>
      <point x="432" y="87"/>
      <point x="396" y="104"/>
      <point x="232" y="90" type="curve"/>
      <point x="301" y="186"/>
      <point x="352" y="349"/>
      <point x="331" y="535" type="curve" smooth="yes"/>
      <point x="279" y="981"/>
      <point x="388" y="1022"/>
      <point x="486" y="1022" type="curve" smooth="yes"/>
      <point x="606" y="1022"/>
      <point x="680" y="958"/>
      <point x="697" y="810" type="curve"/>
      <point x="739" y="810" type="line"/>
      <point x="754" y="855"/>
      <point x="773" y="987"/>
    </contour>
    <contour>
      <point x="553" y="482" type="line"/>
      <point x="576" y="543" type="line"/>
      <point x="553" y="564" type="line"/>
      <point x="77" y="564" type="line"/>
      <point x="70" y="545"/>
      <point x="63" y="522"/>
      <point x="57" y="504" type="curve"/>
      <point x="77" y="482" type="line"/>
    </contour>
  </outline>
</glyph>
<glyph name="currency" format="2">
  <advance width="887"/>
  <unicode hex="00A4"/>
  <outline>
    <contour>
      <point x="327" y="659" type="curve"/>
      <point x="360" y="692"/>
      <point x="402" y="708"/>
      <point x="445" y="708" type="curve" smooth="yes"/>
      <point x="487" y="708"/>
      <point x="528" y="692"/>
      <point x="561" y="659" type="curve" smooth="yes"/>
      <point x="594" y="627"/>
      <point x="611" y="584"/>
      <point x="611" y="541" type="curve" smooth="yes"/>
      <point x="611" y="499"/>
      <point x="594" y="456"/>
      <point x="562" y="424" type="curve" smooth="yes"/>
      <point x="529" y="391"/>
      <point x="487" y="375"/>
      <point x="445" y="375" type="curve" smooth="yes"/>
      <point x="402" y="375"/>
      <point x="360" y="391"/>
      <point x="326" y="425" type="curve" smooth="yes"/>
      <point x="293" y="456"/>
      <point x="278" y="498"/>
      <point x="278" y="540" type="curve" smooth="yes"/>
      <point x="278" y="583"/>
      <point x="294" y="627"/>
    </contour>
    <contour>
      <point x="261" y="726" type="curve"/>
      <point x="209" y="674"/>
      <point x="184" y="607"/>
      <point x="184" y="539" type="curve" smooth="yes"/>
      <point x="184" y="473"/>
      <point x="208" y="408"/>
      <point x="259" y="357" type="curve" smooth="yes"/>
      <point x="310" y="306"/>
      <point x="377" y="281"/>
      <point x="445" y="281" type="curve" smooth="yes"/>
      <point x="512" y="281"/>
      <point x="579" y="306"/>
      <point x="628" y="356" type="curve" smooth="yes"/>
      <point x="679" y="407"/>
      <point x="705" y="473"/>
      <point x="705" y="539" type="curve" smooth="yes"/>
      <point x="705" y="607"/>
      <point x="678" y="675"/>
      <point x="627" y="726" type="curve" smooth="yes"/>
      <point x="576" y="777"/>
      <point x="511" y="803"/>
      <point x="445" y="803" type="curve" smooth="yes"/>
      <point x="378" y="803"/>
      <point x="312" y="777"/>
    </contour>
    <contour>
      <point x="335" y="368" type="line"/>
      <point x="304" y="434" type="line"/>
      <point x="271" y="432" type="line"/>
      <point x="124" y="285" type="line"/>
      <point x="133" y="264"/>
      <point x="145" y="241"/>
      <point x="155" y="224" type="curve"/>
      <point x="187" y="222" type="line"/>
    </contour>
    <contour>
      <point x="265" y="656" type="line"/>
      <point x="330" y="687" type="line"/>
      <point x="328" y="721" type="line"/>
      <point x="189" y="860" type="line"/>
      <point x="168" y="851"/>
      <point x="145" y="839"/>
      <point x="127" y="830" type="curve"/>
      <point x="125" y="797" type="line"/>
    </contour>
    <contour>
      <point x="698" y="222" type="line"/>
      <point x="763" y="252" type="line"/>
      <point x="762" y="286" type="line"/>
      <point x="621" y="427" type="line"/>
      <point x="602" y="418"/>
      <point x="578" y="406"/>
      <point x="560" y="396" type="curve"/>
      <point x="558" y="362" type="line"/>
    </contour>
    <contour>
      <point x="761" y="795" type="line"/>
      <point x="731" y="860" type="line"/>
      <point x="698" y="859" type="line"/>
      <point x="550" y="712" type="line"/>
      <point x="559" y="692"/>
      <point x="571" y="668"/>
      <point x="581" y="650" type="curve"/>
      <point x="614" y="648" type="line"/>
    </contour>
  </outline>
</glyph>
<glyph name="yen" format="2">
  <advance width="887"/>
  <unicode hex="00A5"/>
  <outline>
    <contour>
      <point x="210" y="0" type="line"/>
      <point x="673" y="0" type="line"/>
      <point x="673" y="47" type="line"/>
      <point x="561" y="70"/>
      <point x="526" y="97"/>
      <point x="526" y="112" type="curve" smooth="yes"/>
      <point x="526" y="378" type="line"/>
      <point x="765" y="378" type="line"/>
      <point x="791" y="447" type="line"/>
      <point x="769" y="468" type="line"/>
      <point x="526" y="468" type="line"/>
      <point x="526" y="504" type="line"/>
      <point x="780" y="976" type="line" smooth="yes"/>
      <point x="797" y="1007"/>
      <point x="837" y="1020"/>
      <point x="918" y="1035" type="curve"/>
      <point x="918" y="1083" type="line"/>
      <point x="555" y="1083" type="line"/>
      <point x="555" y="1035" type="line"/>
      <point x="648" y="1024"/>
      <point x="673" y="1008"/>
      <point x="655" y="976" type="curve" smooth="yes"/>
      <point x="469" y="639" type="line"/>
      <point x="385" y="812"/>
      <point x="314" y="938"/>
      <point x="225" y="1055" type="curve" smooth="yes"/>
      <point x="205" y="1079"/>
      <point x="176" y="1092"/>
      <point x="148" y="1092" type="curve" smooth="yes"/>
      <point x="98" y="1092"/>
      <point x="5" y="1081"/>
      <point x="-64" y="1071" type="curve"/>
      <point x="-60" y="1023" type="line"/>
      <point x="38" y="1023"/>
      <point x="63" y="1003"/>
      <point x="84" y="976" type="curve" smooth="yes"/>
      <point x="166" y="870"/>
      <point x="272" y="686"/>
      <point x="355" y="506" type="curve"/>
      <point x="355" y="468" type="line"/>
      <point x="109" y="468" type="line"/>
      <point x="102" y="449"/>
      <point x="91" y="418"/>
      <point x="86" y="400" type="curve"/>
      <point x="105" y="378" type="line"/>
      <point x="355" y="378" type="line"/>
      <point x="355" y="112" type="line" smooth="yes"/>
      <point x="355" y="95"/>
      <point x="319" y="70"/>
      <point x="210" y="47" type="curve"/>
    </contour>
  </outline>
</glyph>
<glyph name="brokenbar" format="2">
  <advance width="450"/>
  <unicode hex="00A6"/>
  <outline>
    <contour>
      <point x="288" y="663" type="curve"/>
      <point x="288" y="1483" type="line"/>
      <point x="254" y="1503" type="line"/>
      <point x="217" y="1494"/>
      <point x="197" y="1478"/>
      <point x="162" y="1458" type="curve"/>
      <point x="162" y="637" type="line"/>
      <point x="195" y="617" type="line"/>
      <point x="225" y="626"/>
      <point x="263" y="644"/>
    </contour>
    <contour>
      <point x="288" y="-403" type="curve"/>
      <point x="288" y="406" type="line"/>
      <point x="254" y="429" type="line"/>
      <point x="217" y="417"/>
      <point x="197" y="403"/>
      <point x="162" y="382" type="curve"/>
      <point x="162" y="-429" type="line"/>
      <point x="195" y="-450" type="line"/>
      <point x="225" y="-440"/>
      <point x="263" y="-422"/>
    </contour>
  </outline>
</glyph>
<glyph name="section" format="2">
  <advance width="864"/>
  <unicode hex="00A7"/>
  <outline>
    <contour>
      <point x="395" y="-27" type="curve" smooth="yes"/>
      <point x="465" y="-27"/>
      <point x="704" y="-18"/>
      <point x="704" y="236" type="curve" smooth="yes"/>
      <point x="704" y="370"/>
      <point x="588" y="423"/>
      <point x="484" y="476" type="curve"/>
      <point x="304" y="578"/>
      <point x="225" y="630"/>
      <point x="225" y="739" type="curve" smooth="yes"/>
      <point x="225" y="816"/>
      <point x="276" y="875"/>
      <point x="366" y="888" type="curve"/>
      <point x="322" y="952" type="line"/>
      <point x="206" y="922"/>
      <point x="107" y="809"/>
      <point x="107" y="697" type="curve" smooth="yes"/>
      <point x="107" y="544"/>
      <point x="205" y="464"/>
      <point x="364" y="377" type="curve" smooth="yes"/>
      <point x="473" y="317"/>
      <point x="587" y="282"/>
      <point x="587" y="186" type="curve" smooth="yes"/>
      <point x="587" y="101"/>
      <point x="526" y="61"/>
      <point x="440" y="61" type="curve" smooth="yes"/>
      <point x="315" y="61"/>
      <point x="220" y="153"/>
      <point x="215" y="253" type="curve"/>
      <point x="176" y="263" type="line"/>
      <point x="159" y="209"/>
      <point x="153" y="54"/>
      <point x="170" y="47" type="curve"/>
      <point x="250" y="3"/>
      <point x="338" y="-27"/>
    </contour>
    <contour>
      <point x="568" y="332" type="line"/>
      <point x="639" y="333"/>
      <point x="757" y="426"/>
      <point x="757" y="590" type="curve" smooth="yes"/>
      <point x="757" y="755"/>
      <point x="644" y="816"/>
      <point x="484" y="908" type="curve" smooth="yes"/>
      <point x="352" y="982"/>
      <point x="285" y="1032"/>
      <point x="285" y="1116" type="curve" smooth="yes"/>
      <point x="285" y="1179"/>
      <point x="333" y="1215"/>
      <point x="412" y="1215" type="curve" smooth="yes"/>
      <point x="470" y="1215"/>
      <point x="535" y="1175"/>
      <point x="592" y="1089" type="curve"/>
      <point x="627" y="1082" type="line"/>
      <point x="642" y="1101"/>
      <point x="686" y="1204"/>
      <point x="672" y="1217" type="curve"/>
      <point x="623" y="1260"/>
      <point x="511" y="1296"/>
      <point x="435" y="1296" type="curve" smooth="yes"/>
      <point x="299" y="1296"/>
      <point x="168" y="1229"/>
      <point x="168" y="1080" type="curve" smooth="yes"/>
      <point x="168" y="958"/>
      <point x="246" y="872"/>
      <point x="364" y="809" type="curve" smooth="yes"/>
      <point x="551" y="708"/>
      <point x="639" y="645"/>
      <point x="639" y="534" type="curve" smooth="yes"/>
      <point x="639" y="462"/>
      <point x="580" y="403"/>
      <point x="494" y="403" type="curve"/>
    </contour>
  </outline>
</glyph>
<glyph name="dieresis" format="2">
  <advance width="720"/>
  <unicode hex="00A8"/>
  <outline>
    <contour>
      <point x="278" y="1136" type="curve"/>
      <point x="278" y="1198"/>
      <point x="248" y="1230"/>
      <point x="191" y="1230" type="curve" smooth="yes"/>
      <point x="129" y="1230"/>
      <point x="75" y="1170"/>
      <point x="75" y="1095" type="curve" smooth="yes"/>
      <point x="75" y="1035"/>
      <point x="103" y="1001"/>
      <point x="161" y="1001" type="curve" smooth="yes"/>
      <point x="227" y="1001"/>
      <point x="278" y="1062"/>
    </contour>
    <contour>
      <point x="645" y="1136" type="curve"/>
      <point x="645" y="1198"/>
      <point x="614" y="1230"/>
      <point x="558" y="1230" type="curve" smooth="yes"/>
      <point x="496" y="1230"/>
      <point x="442" y="1170"/>
      <point x="442" y="1095" type="curve" smooth="yes"/>
      <point x="442" y="1035"/>
      <point x="470" y="1001"/>
      <point x="528" y="1001" type="curve" smooth="yes"/>
      <point x="593" y="1001"/>
      <point x="645" y="1062"/>
    </contour>
  </outline>
</glyph>
<glyph name="copyright" format="2">
  <advance width="1314"/>
  <unicode hex="00A9"/>
  <outline>
    <contour>
      <point x="656" y="-27" type="curve" smooth="yes"/>
      <point x="984" y="-27"/>
      <point x="1224" y="239"/>
      <point x="1224" y="567" type="curve" smooth="yes"/>
      <point x="1224" y="895"/>
      <point x="984" y="1161"/>
      <point x="656" y="1161" type="curve" smooth="yes"/>
      <point x="328" y="1161"/>
      <point x="90" y="895"/>
      <point x="90" y="567" type="curve" smooth="yes"/>
      <point x="90" y="239"/>
      <point x="328" y="-27"/>
    </contour>
    <contour>
      <point x="636" y="195" type="curve" smooth="yes"/>
      <point x="722" y="195"/>
      <point x="809" y="228"/>
      <point x="916" y="332" type="curve"/>
      <point x="891" y="357" type="line"/>
      <point x="800" y="289"/>
      <point x="754" y="274"/>
      <point x="702" y="274" type="curve" smooth="yes"/>
      <point x="601" y="274"/>
      <point x="440" y="372"/>
      <point x="440" y="564" type="curve" smooth="yes"/>
      <point x="440" y="798"/>
      <point x="580" y="866"/>
      <point x="657" y="866" type="curve" smooth="yes"/>
      <point x="731" y="866"/>
      <point x="783" y="831"/>
      <point x="826" y="798" type="curve"/>
      <point x="847" y="794" type="line"/>
      <point x="868" y="810"/>
      <point x="914" y="875"/>
      <point x="905" y="882" type="curve"/>
      <point x="860" y="914"/>
      <point x="792" y="939"/>
      <point x="702" y="939" type="curve" smooth="yes"/>
      <point x="495" y="939"/>
      <point x="322" y="783"/>
      <point x="322" y="541" type="curve" smooth="yes"/>
      <point x="322" y="324"/>
      <point x="481" y="195"/>
    </contour>
    <contour>
      <point x="656" y="50" type="curve" smooth="yes"/>
      <point x="372" y="50"/>
      <point x="167" y="281"/>
      <point x="167" y="567" type="curve" smooth="yes"/>
      <point x="167" y="851"/>
      <point x="372" y="1083"/>
      <point x="656" y="1083" type="curve" smooth="yes"/>
      <point x="942" y="1083"/>
      <point x="1146" y="851"/>
      <point x="1146" y="567" type="curve" smooth="yes"/>
      <point x="1146" y="281"/>
      <point x="942" y="50"/>
    </contour>
  </outline>
</glyph>
<glyph name="ordfeminine" format="2">
  <advance width="471"/>
  <unicode hex="00AA"/>
  <outline>
    <contour>
      <point x="462" y="691" type="curve"/>
      <point x="457" y="713" type="line"/>
      <point x="423" y="700"/>
      <point x="405" y="700"/>
      <point x="399" y="703" type="curve" smooth="yes"/>
      <point x="392" y="711"/>
      <point x="387" y="724"/>
      <point x="387" y="757" type="curve" smooth="yes"/>
      <point x="387" y="934" type="line" smooth="yes"/>
      <point x="387" y="1067"/>
      <point x="355" y="1111"/>
      <point x="269" y="1111" type="curve" smooth="yes"/>
      <point x="206" y="1111"/>
      <point x="70" y="1043"/>
      <point x="59" y="967" type="curve"/>
      <point x="66" y="949" type="line"/>
      <point x="82" y="945"/>
      <point x="163" y="963"/>
      <point x="160" y="974" type="curve" smooth="yes"/>
      <point x="142" y="1025"/>
      <point x="191" y="1060"/>
      <point x="226" y="1060" type="curve" smooth="yes"/>
      <point x="291" y="1060"/>
      <point x="304" y="1019"/>
      <point x="304" y="945" type="curve" smooth="yes"/>
      <point x="304" y="761" type="line" smooth="yes"/>
      <point x="304" y="676"/>
      <point x="330" y="639"/>
      <point x="351" y="639" type="curve" smooth="yes"/>
      <point x="370" y="639"/>
      <point x="407" y="654"/>
    </contour>
    <contour>
      <point x="265" y="882" type="curve"/>
      <point x="372" y="910" type="line"/>
      <point x="369" y="947" type="line"/>
      <point x="221" y="909" type="line" smooth="yes"/>
      <point x="99" y="875"/>
      <point x="44" y="816"/>
      <point x="44" y="742" type="curve" smooth="yes"/>
      <point x="44" y="666"/>
      <point x="101" y="639"/>
      <point x="149" y="639" type="curve" smooth="yes"/>
      <point x="193" y="639"/>
      <point x="260" y="665"/>
      <point x="322" y="729" type="curve"/>
      <point x="316" y="766" type="line"/>
      <point x="267" y="722"/>
      <point x="219" y="702"/>
      <point x="179" y="702" type="curve" smooth="yes"/>
      <point x="162" y="702"/>
      <point x="132" y="713"/>
      <point x="132" y="763" type="curve" smooth="yes"/>
      <point x="132" y="814"/>
      <point x="160" y="853"/>
    </contour>
    <contour>
      <point x="45" y="527" type="line"/>
      <point x="436" y="527" type="line"/>
      <point x="436" y="593" type="line"/>
      <point x="45" y="593" type="line"/>
    </contour>
  </outline>
</glyph>
<glyph name="guillemetleft" format="2">
  <advance width="894"/>
  <unicode hex="00AB"/>
  <outline>
    <contour>
      <point x="405" y="387" type="curve"/>
      <point x="729" y="15" type="line"/>
      <point x="768" y="42" type="line"/>
      <point x="560" y="420" type="line"/>
      <point x="558" y="418"/>
      <point x="768" y="794"/>
      <point x="767" y="794" type="curve"/>
      <point x="729" y="821" type="line"/>
      <point x="406" y="452" type="line"/>
      <point x="405" y="450"/>
      <point x="405" y="387"/>
    </contour>
    <contour>
      <point x="72" y="387" type="curve"/>
      <point x="396" y="15" type="line"/>
      <point x="435" y="42" type="line"/>
      <point x="227" y="420" type="line"/>
      <point x="225" y="418"/>
      <point x="435" y="794"/>
      <point x="434" y="794" type="curve"/>
      <point x="396" y="821" type="line"/>
      <point x="73" y="452" type="line"/>
      <point x="72" y="450"/>
      <point x="72" y="387"/>
    </contour>
  </outline>
</glyph>
<glyph name="guillemotleft" format="2">
  <advance width="912"/>
  <unicode hex="00AB"/>
  <outline>
    <contour>
      <point x="411" y="387" type="curve"/>
      <point x="747" y="10" type="line"/>
      <point x="791" y="42" type="line"/>
      <point x="592" y="420" type="line"/>
      <point x="589" y="418"/>
      <point x="791" y="794"/>
      <point x="790" y="794" type="curve"/>
      <point x="747" y="826" type="line"/>
      <point x="413" y="452" type="line"/>
      <point x="411" y="450"/>
      <point x="411" y="387"/>
    </contour>
    <contour>
      <point x="67" y="387" type="curve"/>
      <point x="403" y="10" type="line"/>
      <point x="446" y="42" type="line"/>
      <point x="247" y="420" type="line"/>
      <point x="245" y="418"/>
      <point x="446" y="794"/>
      <point x="445" y="794" type="curve"/>
      <point x="403" y="826" type="line"/>
      <point x="69" y="452" type="line"/>
      <point x="67" y="450"/>
      <point x="67" y="387"/>
    </contour>
  </outline>
</glyph>
<glyph name="logicalnot" format="2">
  <advance width="864"/>
  <unicode hex="00AC"/>
  <outline>
    <contour>
      <point x="801" y="209" type="curve"/>
      <point x="801" y="536" type="line"/>
      <point x="775" y="556" type="line"/>
      <point x="775" y="556"/>
      <point x="791" y="556"/>
      <point x="82" y="556" type="curve"/>
      <point x="72" y="532"/>
      <point x="61" y="501"/>
      <point x="54" y="477" type="curve"/>
      <point x="77" y="455" type="line"/>
      <point x="702" y="455" type="line"/>
      <point x="702" y="186" type="line"/>
      <point x="724" y="163" type="line"/>
      <point x="754" y="173"/>
      <point x="777" y="191"/>
    </contour>
  </outline>
</glyph>
<glyph name="registered" format="2">
  <advance width="657"/>
  <unicode hex="00AE"/>
  <outline>
    <contour>
      <point x="626" y="975" type="curve"/>
      <point x="626" y="1147"/>
      <point x="500" y="1287"/>
      <point x="327" y="1287" type="curve" smooth="yes"/>
      <point x="155" y="1287"/>
      <point x="31" y="1147"/>
      <point x="31" y="975" type="curve" smooth="yes"/>
      <point x="31" y="803"/>
      <point x="155" y="664"/>
      <point x="327" y="664" type="curve" smooth="yes"/>
      <point x="500" y="664"/>
      <point x="626" y="803"/>
    </contour>
    <contour>
      <point x="573" y="975" type="curve"/>
      <point x="573" y="832"/>
      <point x="470" y="717"/>
      <point x="327" y="717" type="curve" smooth="yes"/>
      <point x="186" y="717"/>
      <point x="83" y="832"/>
      <point x="83" y="975" type="curve" smooth="yes"/>
      <point x="83" y="1117"/>
      <point x="186" y="1233"/>
      <point x="327" y="1233" type="curve" smooth="yes"/>
      <point x="470" y="1233"/>
      <point x="573" y="1117"/>
    </contour>
    <contour>
      <point x="449" y="1076" type="curve"/>
      <point x="449" y="1125"/>
      <point x="402" y="1161"/>
      <point x="312" y="1161" type="curve" smooth="yes"/>
      <point x="262" y="1161"/>
      <point x="225" y="1153"/>
      <point x="190" y="1145" type="curve"/>
      <point x="192" y="1119" type="line"/>
      <point x="231" y="1125"/>
      <point x="269" y="1130"/>
      <point x="302" y="1130" type="curve" smooth="yes"/>
      <point x="370" y="1130"/>
      <point x="394" y="1103"/>
      <point x="394" y="1068" type="curve" smooth="yes"/>
      <point x="394" y="1022"/>
      <point x="366" y="996"/>
      <point x="306" y="996" type="curve" smooth="yes"/>
      <point x="295" y="996"/>
      <point x="287" y="997"/>
      <point x="274" y="999" type="curve"/>
      <point x="276" y="967" type="line"/>
      <point x="288" y="964"/>
      <point x="299" y="963"/>
      <point x="309" y="963" type="curve" smooth="yes"/>
      <point x="386" y="963"/>
      <point x="449" y="1004"/>
    </contour>
    <contour>
      <point x="500" y="808" type="curve"/>
      <point x="498" y="827" type="line"/>
      <point x="472" y="825"/>
      <point x="459" y="828"/>
      <point x="451" y="840" type="curve" smooth="yes"/>
      <point x="345" y="988" type="line"/>
      <point x="306" y="971" type="line"/>
      <point x="405" y="809" type="line" smooth="yes"/>
      <point x="410" y="801"/>
      <point x="423" y="792"/>
      <point x="433" y="792" type="curve" smooth="yes"/>
      <point x="447" y="792"/>
      <point x="476" y="801"/>
    </contour>
    <contour>
      <point x="192" y="798" type="line"/>
      <point x="320" y="798" type="line"/>
      <point x="320" y="814" type="line"/>
      <point x="293" y="819"/>
      <point x="281" y="827"/>
      <point x="281" y="831" type="curve" smooth="yes"/>
      <point x="281" y="1142" type="line"/>
      <point x="232" y="1142" type="line"/>
      <point x="232" y="831" type="line" smooth="yes"/>
      <point x="232" y="826"/>
      <point x="217" y="819"/>
      <point x="192" y="814" type="curve"/>
    </contour>
  </outline>
</glyph>
<glyph name="macron" format="2">
  <advance width="909"/>
  <unicode hex="00AF"/>
  <outline>
    <contour>
      <point x="758" y="1152" type="curve"/>
      <point x="738" y="1174" type="line"/>
      <point x="187" y="1174" type="line"/>
      <point x="175" y="1151"/>
      <point x="155" y="1106"/>
      <point x="150" y="1080" type="curve"/>
      <point x="170" y="1057" type="line"/>
      <point x="723" y="1057" type="line"/>
      <point x="732" y="1080"/>
      <point x="753" y="1126"/>
    </contour>
  </outline>
</glyph>
<glyph name="degree" format="2">
  <advance width="659"/>
  <unicode hex="00B0"/>
  <outline>
    <contour>
      <point x="541" y="942" type="curve"/>
      <point x="541" y="1037"/>
      <point x="461" y="1119"/>
      <point x="364" y="1119" type="curve" smooth="yes"/>
      <point x="248" y="1119"/>
      <point x="118" y="1006"/>
      <point x="118" y="851" type="curve" smooth="yes"/>
      <point x="118" y="755"/>
      <point x="192" y="675"/>
      <point x="294" y="675" type="curve" smooth="yes"/>
      <point x="409" y="675"/>
      <point x="541" y="789"/>
    </contour>
    <contour>
      <point x="430" y="895" type="curve"/>
      <point x="430" y="816"/>
      <point x="374" y="772"/>
      <point x="319" y="772" type="curve" smooth="yes"/>
      <point x="263" y="772"/>
      <point x="230" y="834"/>
      <point x="230" y="898" type="curve" smooth="yes"/>
      <point x="230" y="973"/>
      <point x="283" y="1021"/>
      <point x="339" y="1021" type="curve" smooth="yes"/>
      <point x="395" y="1021"/>
      <point x="430" y="962"/>
    </contour>
  </outline>
</glyph>
<glyph name="plusminus" format="2">
  <advance width="756"/>
  <unicode hex="00B1"/>
  <outline>
    <contour>
      <point x="700" y="623" type="curve"/>
      <point x="678" y="645" type="line"/>
      <point x="82" y="645" type="line"/>
      <point x="72" y="621"/>
      <point x="61" y="592"/>
      <point x="54" y="567" type="curve"/>
      <point x="77" y="546" type="line"/>
      <point x="673" y="546" type="line"/>
      <point x="682" y="566"/>
      <point x="694" y="599"/>
    </contour>
    <contour>
      <point x="429" y="306" type="curve"/>
      <point x="429" y="892" type="line"/>
      <point x="407" y="913" type="line"/>
      <point x="381" y="907"/>
      <point x="348" y="894"/>
      <point x="325" y="887" type="curve"/>
      <point x="325" y="298" type="line"/>
      <point x="348" y="279" type="line"/>
      <point x="374" y="284"/>
      <point x="405" y="295"/>
    </contour>
    <contour>
      <point x="700" y="198" type="curve"/>
      <point x="678" y="220" type="line"/>
      <point x="82" y="220" type="line"/>
      <point x="72" y="197"/>
      <point x="61" y="167"/>
      <point x="54" y="143" type="curve"/>
      <point x="77" y="121" type="line"/>
      <point x="673" y="121" type="line"/>
      <point x="682" y="141"/>
      <point x="694" y="174"/>
    </contour>
  </outline>
</glyph>
<glyph name="SupTwo" format="2">
  <advance width="616"/>
  <unicode hex="00B2"/>
  <outline>
    <contour>
      <point x="543" y="558" type="line"/>
      <point x="552" y="727" type="line"/>
      <point x="507" y="734" type="line"/>
      <point x="507" y="734"/>
      <point x="500" y="642"/>
      <point x="443" y="642" type="curve" smooth="yes"/>
      <point x="204" y="642" type="line"/>
      <point x="466" y="900"/>
      <point x="543" y="980"/>
      <point x="543" y="1077" type="curve" smooth="yes"/>
      <point x="543" y="1177"/>
      <point x="462" y="1224"/>
      <point x="345" y="1224" type="curve" smooth="yes"/>
      <point x="199" y="1224"/>
      <point x="69" y="1128"/>
      <point x="69" y="1053" type="curve"/>
      <point x="87" y="1030" type="line"/>
      <point x="125" y="1034"/>
      <point x="177" y="1045"/>
      <point x="205" y="1059" type="curve"/>
      <point x="202" y="1111"/>
      <point x="239" y="1161"/>
      <point x="302" y="1161" type="curve" smooth="yes"/>
      <point x="379" y="1161"/>
      <point x="408" y="1121"/>
      <point x="408" y="1056" type="curve" smooth="yes"/>
      <point x="408" y="976"/>
      <point x="349" y="895"/>
      <point x="52" y="597" type="curve"/>
      <point x="70" y="558" type="line"/>
    </contour>
  </outline>
</glyph>
<glyph name="twosuperior" format="2">
  <advance width="605"/>
  <unicode hex="00B2"/>
  <anchor x="303" y="1269" name="U"/>
  <outline>
    <contour>
      <point x="526" y="558" type="line"/>
      <point x="535" y="712" type="line"/>
      <point x="495" y="719" type="line"/>
      <point x="495" y="719"/>
      <point x="487" y="632"/>
      <point x="431" y="632" type="curve" smooth="yes"/>
      <point x="185" y="632" type="line"/>
      <point x="443" y="891"/>
      <point x="526" y="975"/>
      <point x="526" y="1071" type="curve" smooth="yes"/>
      <point x="526" y="1177"/>
      <point x="447" y="1224"/>
      <point x="337" y="1224" type="curve" smooth="yes"/>
      <point x="198" y="1224"/>
      <point x="70" y="1126"/>
      <point x="70" y="1052" type="curve"/>
      <point x="86" y="1035" type="line"/>
      <point x="125" y="1039"/>
      <point x="157" y="1048"/>
      <point x="186" y="1062" type="curve"/>
      <point x="186" y="1113"/>
      <point x="230" y="1165"/>
      <point x="294" y="1165" type="curve" smooth="yes"/>
      <point x="380" y="1165"/>
      <point x="412" y="1123"/>
      <point x="412" y="1056" type="curve" smooth="yes"/>
      <point x="412" y="974"/>
      <point x="351" y="895"/>
      <point x="53" y="597" type="curve"/>
      <point x="71" y="558" type="line"/>
    </contour>
  </outline>
</glyph>
<glyph name="threesuperior" format="2">
  <advance width="616"/>
  <unicode hex="00B3"/>
  <outline>
    <contour>
      <point x="544" y="764" type="curve"/>
      <point x="544" y="851"/>
      <point x="476" y="925"/>
      <point x="377" y="935" type="curve"/>
      <point x="459" y="959"/>
      <point x="508" y="1021"/>
      <point x="508" y="1075" type="curve" smooth="yes"/>
      <point x="508" y="1148"/>
      <point x="450" y="1224"/>
      <point x="312" y="1224" type="curve" smooth="yes"/>
      <point x="172" y="1224"/>
      <point x="58" y="1134"/>
      <point x="58" y="1074" type="curve"/>
      <point x="77" y="1051" type="line"/>
      <point x="117" y="1054"/>
      <point x="165" y="1064"/>
      <point x="195" y="1078" type="curve"/>
      <point x="183" y="1127"/>
      <point x="219" y="1161"/>
      <point x="276" y="1161" type="curve" smooth="yes"/>
      <point x="344" y="1161"/>
      <point x="370" y="1115"/>
      <point x="370" y="1065" type="curve" smooth="yes"/>
      <point x="370" y="1021"/>
      <point x="356" y="963"/>
      <point x="209" y="928" type="curve"/>
      <point x="218" y="881" type="line"/>
      <point x="244" y="884"/>
      <point x="241" y="884"/>
      <point x="264" y="884" type="curve" smooth="yes"/>
      <point x="329" y="884"/>
      <point x="406" y="852"/>
      <point x="406" y="748" type="curve" smooth="yes"/>
      <point x="406" y="660"/>
      <point x="345" y="613"/>
      <point x="255" y="613" type="curve" smooth="yes"/>
      <point x="192" y="613"/>
      <point x="136" y="629"/>
      <point x="60" y="678" type="curve"/>
      <point x="38" y="631" type="line"/>
      <point x="113" y="569"/>
      <point x="200" y="541"/>
      <point x="273" y="541" type="curve" smooth="yes"/>
      <point x="439" y="541"/>
      <point x="544" y="642"/>
    </contour>
  </outline>
</glyph>
<glyph name="acute" format="2">
  <advance width="587"/>
  <unicode hex="00B4"/>
  <anchor x="294" y="1269" name="U"/>
  <outline>
    <contour>
      <point x="246" y="942" type="curve"/>
      <point x="557" y="1284" type="line"/>
      <point x="536" y="1319" type="line"/>
      <point x="509" y="1326"/>
      <point x="434" y="1338"/>
      <point x="405" y="1340" type="curve"/>
      <point x="195" y="967" type="line"/>
      <point x="209" y="956"/>
      <point x="225" y="946"/>
    </contour>
  </outline>
</glyph>
<glyph name="mu" format="2">
  <advance width="1012"/>
  <unicode hex="00B5"/>
  <outline>
    <contour>
      <point x="999" y="78" type="curve"/>
      <point x="985" y="127" type="line"/>
      <point x="945" y="111"/>
      <point x="918" y="102"/>
      <point x="892" y="102" type="curve" smooth="yes"/>
      <point x="867" y="102"/>
      <point x="857" y="138"/>
      <point x="857" y="250" type="curve" smooth="yes"/>
      <point x="857" y="286"/>
      <point x="857" y="662"/>
      <point x="857" y="683" type="curve"/>
      <point x="859" y="757"/>
      <point x="867" y="796"/>
      <point x="871" y="826" type="curve"/>
      <point x="844" y="864" type="line"/>
      <point x="789" y="843"/>
      <point x="717" y="823"/>
      <point x="661" y="810" type="curve"/>
      <point x="677" y="787"/>
      <point x="695" y="711"/>
      <point x="695" y="673" type="curve" smooth="yes"/>
      <point x="695" y="644"/>
      <point x="695" y="220"/>
      <point x="695" y="194" type="curve" smooth="yes"/>
      <point x="695" y="78"/>
      <point x="720" y="-27"/>
      <point x="781" y="-27" type="curve" smooth="yes"/>
      <point x="828" y="-27"/>
      <point x="927" y="31"/>
    </contour>
    <contour>
      <point x="750" y="230" type="curve"/>
      <point x="736" y="322" type="line"/>
      <point x="622" y="150"/>
      <point x="548" y="129"/>
      <point x="481" y="129" type="curve" smooth="yes"/>
      <point x="396" y="129"/>
      <point x="326" y="243"/>
      <point x="326" y="333" type="curve" smooth="yes"/>
      <point x="326" y="346"/>
      <point x="326" y="815"/>
      <point x="326" y="823" type="curve"/>
      <point x="316" y="835"/>
      <point x="290" y="864"/>
      <point x="289" y="864" type="curve"/>
      <point x="217" y="831"/>
      <point x="148" y="818"/>
      <point x="50" y="804" type="curve"/>
      <point x="50" y="759" type="line"/>
      <point x="163" y="747"/>
      <point x="164" y="739"/>
      <point x="164" y="646" type="curve" smooth="yes"/>
      <point x="164" y="635"/>
      <point x="164" y="420"/>
      <point x="164" y="402" type="curve" smooth="yes"/>
      <point x="164" y="158"/>
      <point x="321" y="-27"/>
      <point x="443" y="-27" type="curve" smooth="yes"/>
      <point x="528" y="-27"/>
      <point x="633" y="56"/>
    </contour>
    <contour>
      <point x="250" y="413" type="curve"/>
      <point x="243" y="460"/>
      <point x="164" y="553"/>
      <point x="164" y="553" type="curve"/>
      <point x="164" y="489"/>
      <point x="164" y="-395"/>
      <point x="164" y="-421" type="curve"/>
      <point x="201" y="-450" type="line"/>
      <point x="230" y="-435"/>
      <point x="350" y="-388"/>
      <point x="385" y="-377" type="curve"/>
      <point x="319" y="-301"/>
      <point x="251" y="-155"/>
      <point x="252" y="95" type="curve"/>
      <point x="254" y="235"/>
      <point x="242" y="303"/>
    </contour>
  </outline>
</glyph>
<glyph name="paragraph" format="2">
  <advance width="1021"/>
  <unicode hex="00B6"/>
  <outline>
    <contour>
      <point x="884" y="1134" type="curve"/>
      <point x="884" y="1134"/>
      <point x="562" y="1161"/>
      <point x="457" y="1161" type="curve" smooth="yes"/>
      <point x="214" y="1161"/>
      <point x="44" y="1017"/>
      <point x="44" y="812" type="curve" smooth="yes"/>
      <point x="44" y="587"/>
      <point x="230" y="473"/>
      <point x="453" y="473" type="curve" smooth="yes"/>
      <point x="575" y="473"/>
      <point x="608" y="506"/>
      <point x="608" y="506" type="curve"/>
      <point x="601" y="556" type="line"/>
      <point x="601" y="556"/>
      <point x="569" y="549"/>
      <point x="492" y="549" type="curve" smooth="yes"/>
      <point x="281" y="549"/>
      <point x="193" y="713"/>
      <point x="193" y="844" type="curve" smooth="yes"/>
      <point x="193" y="978"/>
      <point x="297" y="1085"/>
      <point x="440" y="1085" type="curve" smooth="yes"/>
      <point x="504" y="1085"/>
      <point x="628" y="1076"/>
      <point x="744" y="1032" type="curve"/>
      <point x="754" y="1023"/>
      <point x="884" y="1134"/>
    </contour>
    <contour>
      <point x="399" y="-225" type="line"/>
      <point x="949" y="-225" type="line"/>
      <point x="949" y="-186" type="line"/>
      <point x="862" y="-169"/>
      <point x="818" y="-145"/>
      <point x="818" y="-130" type="curve" smooth="yes"/>
      <point x="818" y="1039" type="line" smooth="yes"/>
      <point x="818" y="1056"/>
      <point x="868" y="1078"/>
      <point x="949" y="1095" type="curve"/>
      <point x="949" y="1134" type="line"/>
      <point x="401" y="1134" type="line"/>
      <point x="401" y="1095" type="line"/>
      <point x="488" y="1078"/>
      <point x="532" y="1113"/>
      <point x="532" y="1098" type="curve" smooth="yes"/>
      <point x="531" y="-130" type="line" smooth="yes"/>
      <point x="531" y="-147"/>
      <point x="481" y="-169"/>
      <point x="399" y="-186" type="curve"/>
    </contour>
    <contour>
      <point x="711" y="1083" type="line"/>
      <point x="711" y="-130" type="line"/>
      <point x="711" y="-144"/>
      <point x="689" y="-154"/>
      <point x="675" y="-158" type="curve"/>
      <point x="663" y="-154"/>
      <point x="639" y="-144"/>
      <point x="639" y="-130" type="curve" smooth="yes"/>
      <point x="639" y="1100" type="line"/>
    </contour>
  </outline>
</glyph>
<glyph name="periodcentered" format="2">
  <advance width="270"/>
  <unicode hex="00B7"/>
  <outline>
    <contour>
      <point x="225" y="648" type="curve"/>
      <point x="225" y="704"/>
      <point x="199" y="734"/>
      <point x="148" y="734" type="curve" smooth="yes"/>
      <point x="91" y="734"/>
      <point x="45" y="680"/>
      <point x="45" y="612" type="curve" smooth="yes"/>
      <point x="45" y="557"/>
      <point x="67" y="525"/>
      <point x="120" y="525" type="curve" smooth="yes"/>
      <point x="180" y="525"/>
      <point x="225" y="581"/>
    </contour>
  </outline>
</glyph>
<glyph name="cedilla" format="2">
  <advance width="422"/>
  <unicode hex="00B8"/>
  <outline>
    <contour>
      <point x="367" y="-206" type="curve"/>
      <point x="367" y="-138"/>
      <point x="304" y="-107"/>
      <point x="241" y="-93" type="curve"/>
      <point x="288" y="45" type="line"/>
      <point x="217" y="46" type="line"/>
      <point x="153" y="-153"/>
      <point x="140" y="-188"/>
      <point x="140" y="-188" type="curve"/>
      <point x="214" y="-195"/>
      <point x="243" y="-207"/>
      <point x="243" y="-248" type="curve" smooth="yes"/>
      <point x="243" y="-287"/>
      <point x="195" y="-333"/>
      <point x="70" y="-355" type="curve"/>
      <point x="90" y="-399" type="line"/>
      <point x="287" y="-370"/>
      <point x="367" y="-295"/>
    </contour>
  </outline>
</glyph>
<glyph name="SupOne" format="2">
  <advance width="616"/>
  <unicode hex="00B9"/>
  <outline>
    <contour>
      <point x="103" y="558" type="line"/>
      <point x="544" y="558" type="line"/>
      <point x="544" y="601" type="line"/>
      <point x="418" y="614"/>
      <point x="396" y="635"/>
      <point x="396" y="649" type="curve" smooth="yes"/>
      <point x="396" y="1210" type="line"/>
      <point x="371" y="1230" type="line"/>
      <point x="314" y="1205"/>
      <point x="155" y="1154"/>
      <point x="84" y="1138" type="curve"/>
      <point x="99" y="1096" type="line"/>
      <point x="209" y="1116"/>
      <point x="243" y="1113"/>
      <point x="253" y="1104" type="curve" smooth="yes"/>
      <point x="264" y="1094"/>
      <point x="265" y="1080"/>
      <point x="265" y="1051" type="curve" smooth="yes"/>
      <point x="265" y="649" type="line" smooth="yes"/>
      <point x="265" y="634"/>
      <point x="235" y="614"/>
      <point x="103" y="601" type="curve"/>
    </contour>
  </outline>
</glyph>
<glyph name="onesuperior" format="2">
  <advance width="621"/>
  <unicode hex="00B9"/>
  <outline>
    <contour>
      <point x="103" y="558" type="line"/>
      <point x="544" y="558" type="line"/>
      <point x="544" y="598" type="line"/>
      <point x="418" y="612"/>
      <point x="394" y="633"/>
      <point x="394" y="647" type="curve" smooth="yes"/>
      <point x="394" y="1210" type="line"/>
      <point x="369" y="1230" type="line"/>
      <point x="312" y="1205"/>
      <point x="155" y="1154"/>
      <point x="84" y="1138" type="curve"/>
      <point x="99" y="1098" type="line"/>
      <point x="209" y="1119"/>
      <point x="245" y="1115"/>
      <point x="255" y="1106" type="curve" smooth="yes"/>
      <point x="266" y="1096"/>
      <point x="267" y="1082"/>
      <point x="267" y="1053" type="curve" smooth="yes"/>
      <point x="267" y="647" type="line" smooth="yes"/>
      <point x="267" y="632"/>
      <point x="235" y="612"/>
      <point x="103" y="598" type="curve"/>
    </contour>
  </outline>
</glyph>
<glyph name="ordmasculine" format="2">
  <advance width="520"/>
  <unicode hex="00BA"/>
  <outline>
    <contour>
      <point x="475" y="884" type="curve"/>
      <point x="475" y="1015"/>
      <point x="390" y="1111"/>
      <point x="274" y="1111" type="curve" smooth="yes"/>
      <point x="147" y="1111"/>
      <point x="44" y="991"/>
      <point x="44" y="866" type="curve" smooth="yes"/>
      <point x="44" y="735"/>
      <point x="125" y="639"/>
      <point x="244" y="639" type="curve" smooth="yes"/>
      <point x="357" y="639"/>
      <point x="475" y="761"/>
    </contour>
    <contour>
      <point x="54" y="527" type="line"/>
      <point x="464" y="527" type="line"/>
      <point x="464" y="593" type="line"/>
      <point x="54" y="593" type="line"/>
    </contour>
    <contour>
      <point x="390" y="870" type="curve"/>
      <point x="390" y="768"/>
      <point x="339" y="691"/>
      <point x="274" y="691" type="curve" smooth="yes"/>
      <point x="200" y="691"/>
      <point x="128" y="777"/>
      <point x="128" y="879" type="curve" smooth="yes"/>
      <point x="128" y="981"/>
      <point x="173" y="1058"/>
      <point x="244" y="1058" type="curve" smooth="yes"/>
      <point x="324" y="1058"/>
      <point x="390" y="971"/>
    </contour>
  </outline>
</glyph>
<glyph name="guillemetright" format="2">
  <advance width="894"/>
  <unicode hex="00BB"/>
  <outline>
    <contour>
      <point x="489" y="387" type="line"/>
      <point x="487" y="452" type="line"/>
      <point x="164" y="821" type="line"/>
      <point x="126" y="794" type="line"/>
      <point x="333" y="420" type="line"/>
      <point x="126" y="42" type="line"/>
      <point x="164" y="15" type="line"/>
    </contour>
    <contour>
      <point x="822" y="387" type="line"/>
      <point x="820" y="452" type="line"/>
      <point x="497" y="821" type="line"/>
      <point x="459" y="794" type="line"/>
      <point x="666" y="420" type="line"/>
      <point x="459" y="42" type="line"/>
      <point x="497" y="15" type="line"/>
    </contour>
  </outline>
</glyph>
<glyph name="guillemotright" format="2">
  <advance width="912"/>
  <unicode hex="00BB"/>
  <outline>
    <contour>
      <point x="500" y="386" type="line"/>
      <point x="499" y="452" type="line"/>
      <point x="164" y="826" type="line"/>
      <point x="122" y="794" type="line"/>
      <point x="320" y="419" type="line"/>
      <point x="121" y="42" type="line"/>
      <point x="164" y="10" type="line"/>
    </contour>
    <contour>
      <point x="844" y="386" type="line"/>
      <point x="843" y="452" type="line"/>
      <point x="508" y="826" type="line"/>
      <point x="466" y="794" type="line"/>
      <point x="664" y="419" type="line"/>
      <point x="465" y="42" type="line"/>
      <point x="508" y="10" type="line"/>
    </contour>
  </outline>
</glyph>
<glyph name="onequarter" format="2">
  <advance width="1080"/>
  <unicode hex="00BC"/>
  <outline>
    <contour>
      <point x="293" y="2" type="curve"/>
      <point x="975" y="1086" type="line"/>
      <point x="953" y="1111" type="line"/>
      <point x="927" y="1106"/>
      <point x="896" y="1092"/>
      <point x="873" y="1082" type="curve"/>
      <point x="187" y="0" type="line"/>
      <point x="209" y="-27" type="line"/>
      <point x="242" y="-18"/>
      <point x="265" y="-10"/>
    </contour>
    <contour>
      <point x="1008" y="189" type="curve"/>
      <point x="994" y="203" type="line"/>
      <point x="939" y="203" type="line"/>
      <point x="939" y="522" type="line"/>
      <point x="921" y="538" type="line"/>
      <point x="900" y="529"/>
      <point x="867" y="517"/>
      <point x="839" y="506" type="curve"/>
      <point x="587" y="162" type="line"/>
      <point x="604" y="147" type="line"/>
      <point x="855" y="147" type="line"/>
      <point x="855" y="56" type="line" smooth="yes"/>
      <point x="855" y="46"/>
      <point x="843" y="37"/>
      <point x="756" y="26" type="curve"/>
      <point x="756" y="0" type="line"/>
      <point x="1002" y="0" type="line"/>
      <point x="1002" y="26" type="line"/>
      <point x="946" y="36"/>
      <point x="939" y="43"/>
      <point x="939" y="52" type="curve" smooth="yes"/>
      <point x="939" y="147" type="line"/>
      <point x="967" y="147" type="line"/>
      <point x="982" y="157"/>
      <point x="993" y="171"/>
    </contour>
    <contour>
      <point x="855" y="441" type="line"/>
      <point x="855" y="203" type="line"/>
      <point x="674" y="203" type="line"/>
    </contour>
    <contour>
      <point x="87" y="573" type="line"/>
      <point x="424" y="573" type="line"/>
      <point x="424" y="603" type="line"/>
      <point x="324" y="614"/>
      <point x="306" y="630"/>
      <point x="306" y="642" type="curve" smooth="yes"/>
      <point x="306" y="1096" type="line"/>
      <point x="288" y="1111" type="line"/>
      <point x="243" y="1089"/>
      <point x="127" y="1051"/>
      <point x="72" y="1037" type="curve"/>
      <point x="82" y="1008" type="line"/>
      <point x="171" y="1025"/>
      <point x="198" y="1021"/>
      <point x="207" y="1014" type="curve" smooth="yes"/>
      <point x="216" y="1007"/>
      <point x="216" y="995"/>
      <point x="216" y="972" type="curve" smooth="yes"/>
      <point x="216" y="642" type="line" smooth="yes"/>
      <point x="216" y="630"/>
      <point x="192" y="614"/>
      <point x="87" y="603" type="curve"/>
    </contour>
  </outline>
</glyph>
<glyph name="onehalf" format="2">
  <advance width="1080"/>
  <unicode hex="00BD"/>
  <outline>
    <contour>
      <point x="285" y="2" type="curve"/>
      <point x="967" y="1086" type="line"/>
      <point x="945" y="1111" type="line"/>
      <point x="918" y="1106"/>
      <point x="888" y="1092"/>
      <point x="864" y="1082" type="curve"/>
      <point x="179" y="0" type="line"/>
      <point x="201" y="-27" type="line"/>
      <point x="234" y="-18"/>
      <point x="257" y="-10"/>
    </contour>
    <contour>
      <point x="87" y="573" type="line"/>
      <point x="424" y="573" type="line"/>
      <point x="424" y="603" type="line"/>
      <point x="324" y="614"/>
      <point x="306" y="630"/>
      <point x="306" y="642" type="curve" smooth="yes"/>
      <point x="306" y="1096" type="line"/>
      <point x="288" y="1111" type="line"/>
      <point x="243" y="1089"/>
      <point x="127" y="1051"/>
      <point x="72" y="1037" type="curve"/>
      <point x="82" y="1008" type="line"/>
      <point x="171" y="1025"/>
      <point x="198" y="1021"/>
      <point x="207" y="1014" type="curve" smooth="yes"/>
      <point x="216" y="1007"/>
      <point x="216" y="995"/>
      <point x="216" y="972" type="curve" smooth="yes"/>
      <point x="216" y="642" type="line" smooth="yes"/>
      <point x="216" y="630"/>
      <point x="192" y="614"/>
      <point x="87" y="603" type="curve"/>
    </contour>
    <contour>
      <point x="1000" y="0" type="line"/>
      <point x="1008" y="124" type="line"/>
      <point x="975" y="128" type="line"/>
      <point x="975" y="128"/>
      <point x="970" y="59"/>
      <point x="924" y="59" type="curve" smooth="yes"/>
      <point x="728" y="59" type="line"/>
      <point x="934" y="267"/>
      <point x="1000" y="333"/>
      <point x="1000" y="411" type="curve" smooth="yes"/>
      <point x="1000" y="495"/>
      <point x="937" y="533"/>
      <point x="849" y="533" type="curve" smooth="yes"/>
      <point x="738" y="533"/>
      <point x="635" y="455"/>
      <point x="635" y="395" type="curve"/>
      <point x="648" y="382" type="line"/>
      <point x="679" y="385"/>
      <point x="705" y="391"/>
      <point x="729" y="403" type="curve"/>
      <point x="729" y="444"/>
      <point x="764" y="486"/>
      <point x="815" y="486" type="curve" smooth="yes"/>
      <point x="883" y="486"/>
      <point x="909" y="451"/>
      <point x="909" y="398" type="curve" smooth="yes"/>
      <point x="909" y="333"/>
      <point x="861" y="270"/>
      <point x="621" y="31" type="curve"/>
      <point x="636" y="0" type="line"/>
    </contour>
  </outline>
</glyph>
<glyph name="threequarters" format="2">
  <advance width="1080"/>
  <unicode hex="00BE"/>
  <outline>
    <contour>
      <point x="284" y="2" type="curve"/>
      <point x="966" y="1086" type="line"/>
      <point x="944" y="1111" type="line"/>
      <point x="918" y="1106"/>
      <point x="887" y="1092"/>
      <point x="864" y="1082" type="curve"/>
      <point x="178" y="0" type="line"/>
      <point x="200" y="-27" type="line"/>
      <point x="233" y="-18"/>
      <point x="256" y="-10"/>
    </contour>
    <contour>
      <point x="467" y="738" type="curve" smooth="yes"/>
      <point x="467" y="808"/>
      <point x="408" y="867"/>
      <point x="332" y="875" type="curve"/>
      <point x="397" y="895"/>
      <point x="437" y="944"/>
      <point x="437" y="987" type="curve" smooth="yes"/>
      <point x="437" y="1045"/>
      <point x="391" y="1107"/>
      <point x="288" y="1107" type="curve" smooth="yes"/>
      <point x="182" y="1107"/>
      <point x="90" y="1038"/>
      <point x="90" y="990" type="curve"/>
      <point x="103" y="976" type="line"/>
      <point x="132" y="979"/>
      <point x="165" y="983"/>
      <point x="188" y="994" type="curve"/>
      <point x="180" y="1033"/>
      <point x="208" y="1059"/>
      <point x="259" y="1059" type="curve" smooth="yes"/>
      <point x="320" y="1059"/>
      <point x="343" y="1019"/>
      <point x="343" y="980" type="curve" smooth="yes"/>
      <point x="343" y="944"/>
      <point x="329" y="898"/>
      <point x="210" y="869" type="curve"/>
      <point x="216" y="836" type="line"/>
      <point x="237" y="839"/>
      <point x="232" y="839"/>
      <point x="251" y="839" type="curve" smooth="yes"/>
      <point x="307" y="839"/>
      <point x="372" y="810"/>
      <point x="372" y="724" type="curve" smooth="yes"/>
      <point x="372" y="650"/>
      <point x="321" y="612"/>
      <point x="243" y="612" type="curve" smooth="yes"/>
      <point x="192" y="612"/>
      <point x="149" y="622"/>
      <point x="88" y="661" type="curve"/>
      <point x="72" y="631" type="line"/>
      <point x="132" y="582"/>
      <point x="196" y="560"/>
      <point x="256" y="560" type="curve" smooth="yes"/>
      <point x="387" y="560"/>
      <point x="467" y="641"/>
    </contour>
    <contour>
      <point x="1008" y="189" type="curve"/>
      <point x="994" y="203" type="line"/>
      <point x="939" y="203" type="line"/>
      <point x="939" y="522" type="line"/>
      <point x="921" y="538" type="line"/>
      <point x="900" y="529"/>
      <point x="867" y="517"/>
      <point x="839" y="506" type="curve"/>
      <point x="587" y="162" type="line"/>
      <point x="604" y="147" type="line"/>
      <point x="855" y="147" type="line"/>
      <point x="855" y="56" type="line" smooth="yes"/>
      <point x="855" y="46"/>
      <point x="843" y="37"/>
      <point x="756" y="26" type="curve"/>
      <point x="756" y="0" type="line"/>
      <point x="1002" y="0" type="line"/>
      <point x="1002" y="26" type="line"/>
      <point x="946" y="36"/>
      <point x="939" y="43"/>
      <point x="939" y="52" type="curve" smooth="yes"/>
      <point x="939" y="147" type="line"/>
      <point x="967" y="147" type="line"/>
      <point x="982" y="157"/>
      <point x="993" y="171"/>
    </contour>
    <contour>
      <point x="855" y="441" type="line"/>
      <point x="855" y="203" type="line"/>
      <point x="674" y="203" type="line"/>
    </contour>
  </outline>
</glyph>
<glyph name="questiondown" format="2">
  <advance width="811"/>
  <unicode hex="00BF"/>
  <outline>
    <contour>
      <point x="547" y="756" type="curve" smooth="yes"/>
      <point x="547" y="828"/>
      <point x="508" y="864"/>
      <point x="443" y="864" type="curve" smooth="yes"/>
      <point x="366" y="864"/>
      <point x="306" y="802"/>
      <point x="306" y="716" type="curve" smooth="yes"/>
      <point x="306" y="643"/>
      <point x="345" y="606"/>
      <point x="407" y="606" type="curve" smooth="yes"/>
      <point x="482" y="606"/>
      <point x="547" y="670"/>
    </contour>
    <contour>
      <point x="383" y="470" type="curve"/>
      <point x="378" y="384" type="line"/>
      <point x="361" y="145"/>
      <point x="67" y="49"/>
      <point x="67" y="-221" type="curve" smooth="yes"/>
      <point x="67" y="-387"/>
      <point x="168" y="-503"/>
      <point x="353" y="-503" type="curve" smooth="yes"/>
      <point x="560" y="-503"/>
      <point x="744" y="-377"/>
      <point x="744" y="-207" type="curve" smooth="yes"/>
      <point x="744" y="-198"/>
      <point x="744" y="-182"/>
      <point x="742" y="-173" type="curve"/>
      <point x="715" y="-144" type="line"/>
      <point x="662" y="-148"/>
      <point x="595" y="-163"/>
      <point x="555" y="-185" type="curve"/>
      <point x="562" y="-202"/>
      <point x="567" y="-221"/>
      <point x="567" y="-239" type="curve" smooth="yes"/>
      <point x="567" y="-333"/>
      <point x="498" y="-411"/>
      <point x="421" y="-411" type="curve" smooth="yes"/>
      <point x="310" y="-411"/>
      <point x="246" y="-328"/>
      <point x="246" y="-180" type="curve" smooth="yes"/>
      <point x="246" y="-9"/>
      <point x="501" y="177"/>
      <point x="488" y="384" type="curve"/>
      <point x="483" y="486" type="line"/>
      <point x="457" y="507" type="line"/>
      <point x="425" y="498"/>
      <point x="404" y="488"/>
    </contour>
  </outline>
</glyph>
<glyph name="AE" format="2">
  <advance width="1435"/>
  <unicode hex="00C6"/>
  <anchor x="831" y="1233" name="U"/>
  <outline>
    <contour>
      <point x="1382" y="219" type="curve"/>
      <point x="1341" y="235" type="line"/>
      <point x="1290" y="95"/>
      <point x="1253" y="81"/>
      <point x="1143" y="81" type="curve" smooth="yes"/>
      <point x="1026" y="81" type="line" smooth="yes"/>
      <point x="868" y="81"/>
      <point x="840" y="103"/>
      <point x="840" y="138" type="curve" smooth="yes"/>
      <point x="840" y="585" type="line"/>
      <point x="967" y="585" type="line" smooth="yes"/>
      <point x="1069" y="585"/>
      <point x="1111" y="571"/>
      <point x="1146" y="536" type="curve"/>
      <point x="1172" y="555"/>
      <point x="1208" y="603"/>
      <point x="1229" y="636" type="curve"/>
      <point x="1205" y="661" type="line"/>
      <point x="840" y="661" type="line"/>
      <point x="840" y="1053" type="line"/>
      <point x="1170" y="1053" type="line" smooth="yes"/>
      <point x="1216" y="1053"/>
      <point x="1238" y="1019"/>
      <point x="1243" y="909" type="curve"/>
      <point x="1284" y="909" type="line"/>
      <point x="1301" y="954"/>
      <point x="1317" y="1050"/>
      <point x="1321" y="1111" type="curve"/>
      <point x="1294" y="1134" type="line"/>
      <point x="971" y="1134" type="line"/>
      <point x="819" y="1134" type="line"/>
      <point x="342" y="1134" type="line"/>
      <point x="342" y="1095" type="line"/>
      <point x="460" y="1072"/>
      <point x="531" y="1060"/>
      <point x="513" y="1019" type="curve" smooth="yes"/>
      <point x="142" y="99" type="line" smooth="yes"/>
      <point x="126" y="64"/>
      <point x="81" y="53"/>
      <point x="0" y="38" type="curve"/>
      <point x="0" y="0" type="line"/>
      <point x="374" y="0" type="line"/>
      <point x="374" y="38" type="line"/>
      <point x="276" y="49"/>
      <point x="241" y="64"/>
      <point x="256" y="99" type="curve" smooth="yes"/>
      <point x="454" y="585" type="line"/>
      <point x="696" y="585" type="line"/>
      <point x="696" y="93" type="line" smooth="yes"/>
      <point x="696" y="77"/>
      <point x="648" y="54"/>
      <point x="567" y="38" type="curve"/>
      <point x="567" y="0" type="line"/>
      <point x="1343" y="0" type="line"/>
      <point x="1352" y="35"/>
      <point x="1371" y="116"/>
    </contour>
    <contour>
      <point x="696" y="1033" type="curve" smooth="yes"/>
      <point x="696" y="661" type="line"/>
      <point x="485" y="661" type="line"/>
      <point x="626" y="1017" type="line" smooth="yes"/>
      <point x="643" y="1059"/>
      <point x="696" y="1059"/>
    </contour>
  </outline>
</glyph>
<glyph name="Eth" format="2">
  <advance width="1092"/>
  <unicode hex="00D0"/>
  <anchor x="517" y="1233" name="U"/>
  <outline>
    <component base="D"/>
    <contour>
      <point x="552" y="553" type="line"/>
      <point x="575" y="613" type="line"/>
      <point x="552" y="634" type="line"/>
      <point x="44" y="634" type="line"/>
      <point x="36" y="615"/>
      <point x="29" y="594"/>
      <point x="24" y="576" type="curve"/>
      <point x="44" y="553" type="line"/>
    </contour>
  </outline>
</glyph>
<glyph name="multiply" format="2">
  <advance width="756"/>
  <unicode hex="00D7"/>
  <outline>
    <contour>
      <point x="671" y="252" type="curve"/>
      <point x="671" y="282" type="line"/>
      <point x="168" y="785" type="line"/>
      <point x="142" y="779"/>
      <point x="108" y="768"/>
      <point x="84" y="757" type="curve"/>
      <point x="85" y="727" type="line"/>
      <point x="588" y="224" type="line"/>
      <point x="610" y="229"/>
      <point x="647" y="242"/>
    </contour>
    <contour>
      <point x="83" y="282" type="line"/>
      <point x="83" y="252" type="line"/>
      <point x="108" y="242"/>
      <point x="144" y="229"/>
      <point x="167" y="224" type="curve"/>
      <point x="670" y="727" type="line"/>
      <point x="670" y="757" type="line"/>
      <point x="647" y="768"/>
      <point x="612" y="779"/>
      <point x="586" y="785" type="curve"/>
    </contour>
  </outline>
</glyph>
<glyph name="Oslash" format="2">
  <advance width="1119"/>
  <unicode hex="00D8"/>
  <outline>
    <contour>
      <point x="1042" y="582" type="curve"/>
      <point x="1042" y="875"/>
      <point x="880" y="1161"/>
      <point x="576" y="1161" type="curve" smooth="yes"/>
      <point x="282" y="1161"/>
      <point x="58" y="877"/>
      <point x="58" y="550" type="curve" smooth="yes"/>
      <point x="58" y="248"/>
      <point x="230" y="-27"/>
      <point x="524" y="-27" type="curve" smooth="yes"/>
      <point x="804" y="-27"/>
      <point x="1042" y="256"/>
    </contour>
    <contour>
      <point x="873" y="566" type="curve"/>
      <point x="873" y="248"/>
      <point x="740" y="85"/>
      <point x="554" y="85" type="curve" smooth="yes"/>
      <point x="377" y="85"/>
      <point x="227" y="307"/>
      <point x="227" y="576" type="curve" smooth="yes"/>
      <point x="227" y="870"/>
      <point x="343" y="1053"/>
      <point x="543" y="1053" type="curve" smooth="yes"/>
      <point x="741" y="1053"/>
      <point x="873" y="814"/>
    </contour>
    <contour>
      <point x="217" y="-1" type="curve"/>
      <point x="1034" y="1150" type="line"/>
      <point x="1008" y="1181" type="line"/>
      <point x="971" y="1174"/>
      <point x="917" y="1157"/>
      <point x="883" y="1137" type="curve"/>
      <point x="64" y="-16" type="line"/>
      <point x="91" y="-47" type="line"/>
      <point x="120" y="-40"/>
      <point x="195" y="-20"/>
    </contour>
  </outline>
</glyph>
<glyph name="Thorn" format="2">
  <advance width="990"/>
  <unicode hex="00DE"/>
  <outline>
    <contour>
      <point x="915" y="601" type="curve"/>
      <point x="915" y="807"/>
      <point x="742" y="920"/>
      <point x="477" y="920" type="curve" smooth="yes"/>
      <point x="365" y="920"/>
      <point x="287" y="913"/>
      <point x="214" y="899" type="curve"/>
      <point x="224" y="825" type="line"/>
      <point x="294" y="833"/>
      <point x="362" y="837"/>
      <point x="426" y="837" type="curve" smooth="yes"/>
      <point x="607" y="837"/>
      <point x="747" y="754"/>
      <point x="747" y="564" type="curve" smooth="yes"/>
      <point x="747" y="394"/>
      <point x="615" y="312"/>
      <point x="507" y="312" type="curve" smooth="yes"/>
      <point x="464" y="312"/>
      <point x="422" y="316"/>
      <point x="373" y="339" type="curve"/>
      <point x="396" y="265" type="line"/>
      <point x="436" y="245"/>
      <point x="488" y="236"/>
      <point x="543" y="236" type="curve" smooth="yes"/>
      <point x="689" y="236"/>
      <point x="915" y="352"/>
    </contour>
    <contour>
      <point x="42" y="0" type="line"/>
      <point x="497" y="0" type="line"/>
      <point x="497" y="47" type="line"/>
      <point x="372" y="68"/>
      <point x="342" y="88"/>
      <point x="342" y="102" type="curve" smooth="yes"/>
      <point x="342" y="1030" type="line" smooth="yes"/>
      <point x="342" y="1047"/>
      <point x="374" y="1065"/>
      <point x="497" y="1086" type="curve"/>
      <point x="497" y="1134" type="line"/>
      <point x="42" y="1134" type="line"/>
      <point x="42" y="1086" type="line"/>
      <point x="128" y="1069"/>
      <point x="171" y="1044"/>
      <point x="171" y="1030" type="curve" smooth="yes"/>
      <point x="171" y="102" type="line" smooth="yes"/>
      <point x="171" y="86"/>
      <point x="123" y="63"/>
      <point x="42" y="47" type="curve"/>
    </contour>
  </outline>
</glyph>
<glyph name="germandbls" format="2">
  <advance width="1041"/>
  <unicode hex="00DF"/>
  <anchor x="504" y="1521" name="U"/>
  <outline>
    <contour>
      <point x="960" y="254" type="curve"/>
      <point x="960" y="552"/>
      <point x="560" y="536"/>
      <point x="560" y="693" type="curve" smooth="yes"/>
      <point x="560" y="837"/>
      <point x="870" y="775"/>
      <point x="870" y="1071" type="curve" smooth="yes"/>
      <point x="870" y="1203"/>
      <point x="794" y="1395"/>
      <point x="587" y="1395" type="curve" smooth="yes"/>
      <point x="501" y="1395"/>
      <point x="418" y="1364"/>
      <point x="353" y="1312" type="curve" smooth="yes"/>
      <point x="260" y="1234"/>
      <point x="175" y="1153"/>
      <point x="175" y="864" type="curve" smooth="yes"/>
      <point x="175" y="91" type="line" smooth="yes"/>
      <point x="175" y="77"/>
      <point x="130" y="53"/>
      <point x="49" y="38" type="curve"/>
      <point x="49" y="0" type="line"/>
      <point x="310" y="0" type="line"/>
      <point x="310" y="914" type="line" smooth="yes"/>
      <point x="310" y="1211"/>
      <point x="392" y="1282"/>
      <point x="508" y="1282" type="curve" smooth="yes"/>
      <point x="670" y="1282"/>
      <point x="733" y="1131"/>
      <point x="733" y="1009" type="curve" smooth="yes"/>
      <point x="733" y="837"/>
      <point x="434" y="899"/>
      <point x="434" y="656" type="curve" smooth="yes"/>
      <point x="434" y="411"/>
      <point x="843" y="444"/>
      <point x="843" y="195" type="curve" smooth="yes"/>
      <point x="843" y="116"/>
      <point x="775" y="63"/>
      <point x="691" y="63" type="curve" smooth="yes"/>
      <point x="599" y="63"/>
      <point x="486" y="114"/>
      <point x="469" y="243" type="curve"/>
      <point x="434" y="254" type="line"/>
      <point x="416" y="230"/>
      <point x="411" y="59"/>
      <point x="422" y="42" type="curve" smooth="yes"/>
      <point x="440" y="12"/>
      <point x="589" y="-27"/>
      <point x="656" y="-27" type="curve" smooth="yes"/>
      <point x="872" y="-27"/>
      <point x="960" y="114"/>
    </contour>
  </outline>
</glyph>
